<svg width="69" height="20" viewBox="0 0 69 20" fill="none" xmlns="http://www.w3.org/2000/svg">
<path d="M5.33562 19.4289C5.37433 19.3589 5.4458 19.3202 5.53066 19.2964C5.60808 19.2815 5.68698 19.2964 5.75696 19.3426C5.83437 19.3902 5.87457 19.4438 5.8969 19.5301C5.91328 19.6165 5.8969 19.6865 5.85075 19.7639C5.8046 19.8339 5.74207 19.8815 5.65572 19.8964C5.56937 19.9113 5.49195 19.8964 5.42198 19.8502C5.352 19.8026 5.31329 19.7401 5.29692 19.6552C5.28203 19.5778 5.29692 19.4989 5.33562 19.4289Z" fill="#E30613"/>
<path fill-rule="evenodd" clip-rule="evenodd" d="M4.33581 18.6629L4.57782 18.3897L4.46914 18.2885L4.53167 18.2111L4.64928 18.3123L4.84432 18.4835L4.953 18.5773L4.89047 18.6547L4.78179 18.5609L4.11034 19.3351L4.21158 19.4289L4.14905 19.4989L4.04036 19.4125L3.79769 19.2011C3.68752 19.1073 3.60265 19.0061 3.56395 18.9049C3.51779 18.8036 3.54013 18.6934 3.64136 18.5773C3.68007 18.5312 3.71878 18.4999 3.76642 18.4761C3.81258 18.4523 3.86766 18.4374 3.92275 18.4374C3.97783 18.4448 4.04036 18.4612 4.11034 18.4925C4.18009 18.531 4.24984 18.5859 4.33581 18.6629ZM4.27262 18.7336C4.2488 18.7024 4.21009 18.6786 4.16245 18.6562C4.12374 18.6324 4.06865 18.625 4.00612 18.6324C3.94359 18.6398 3.88851 18.6786 3.82598 18.7575C3.76345 18.8349 3.73962 18.9138 3.76345 18.9838C3.78727 19.0463 3.83342 19.1088 3.90488 19.1639L4.27262 18.7336Z" fill="#E30613"/>
<path fill-rule="evenodd" clip-rule="evenodd" d="M3.6637 18.2885C3.58628 18.3585 3.48355 18.3987 3.37487 18.421C3.2647 18.4374 3.14857 18.4284 3.0384 18.3823C2.92078 18.3436 2.81954 18.2721 2.73319 18.1709C2.64684 18.0696 2.60069 17.9595 2.57687 17.8344C2.55305 17.7168 2.56198 17.6081 2.60069 17.4979C2.6394 17.3878 2.69448 17.3029 2.78083 17.2329C2.86718 17.1629 2.96098 17.1153 3.07711 17.1004C3.18728 17.0766 3.29596 17.093 3.41358 17.1317C3.53119 17.1778 3.62499 17.2493 3.70985 17.3505C3.7962 17.4518 3.8498 17.562 3.87362 17.6781C3.89744 17.8031 3.88851 17.9133 3.8498 18.022C3.81109 18.1322 3.74856 18.217 3.66221 18.287L3.6637 18.2885ZM3.46866 18.0547C3.5699 17.9773 3.63243 17.891 3.67114 17.8121C3.70985 17.7257 3.72623 17.6557 3.71878 17.5858C3.71134 17.5158 3.68007 17.4533 3.64136 17.4056C3.60265 17.3595 3.55501 17.3282 3.48504 17.3044C3.42251 17.2806 3.3436 17.2806 3.25874 17.3044C3.17239 17.3282 3.07859 17.3744 2.97736 17.4607C2.87612 17.5471 2.80614 17.6245 2.76595 17.7108C2.73468 17.7882 2.71979 17.8672 2.72724 17.9371C2.74213 18.0071 2.76595 18.0622 2.80466 18.1083C2.86718 18.1872 2.96098 18.226 3.07859 18.2334C3.19621 18.2334 3.32871 18.1783 3.46866 18.0533V18.0547Z" fill="#E30613"/>
<path d="M1.82055 16.3039L1.87564 16.3903C1.81311 16.429 1.78185 16.4915 1.76547 16.5704C1.75802 16.6478 1.77291 16.7267 1.82055 16.7967C1.85926 16.8592 1.91435 16.9069 1.98432 16.9381C2.04685 16.9694 2.12427 16.9843 2.21807 16.9694C2.31186 16.9545 2.40566 16.9143 2.50689 16.8518C2.63195 16.7654 2.70937 16.6642 2.75701 16.5555C2.79572 16.4379 2.78083 16.3292 2.71086 16.2116C2.63344 16.1029 2.52327 16.0315 2.37439 16.0166L2.38183 15.9064C2.56942 15.9451 2.71831 16.0389 2.81954 16.1952C2.88207 16.289 2.92078 16.3903 2.93716 16.5079C2.95354 16.6329 2.93716 16.7416 2.88207 16.8518C2.83443 16.953 2.75701 17.0468 2.65577 17.1168C2.55454 17.1793 2.44436 17.218 2.32824 17.227C2.21062 17.227 2.10194 17.2031 2.0007 17.1406C1.89946 17.0855 1.81311 16.9992 1.75058 16.8831C1.6955 16.7818 1.67316 16.6716 1.68061 16.563H1.57044L1.52428 16.4855L1.52279 16.4841L1.82055 16.3039Z" fill="#E30613"/>
<path d="M1.18632 15.1248L1.23248 15.2186C1.16995 15.2498 1.13124 15.3124 1.11486 15.3898C1.09848 15.4672 1.10742 15.5461 1.14613 15.6161C1.17739 15.6861 1.22354 15.7411 1.29501 15.7724C1.35754 15.8111 1.43495 15.8275 1.52875 15.8275C1.62254 15.82 1.71634 15.7888 1.82502 15.7263C1.95753 15.6563 2.04388 15.5625 2.09896 15.4523C2.15405 15.3421 2.14511 15.2335 2.08258 15.1084C2.01261 14.9908 1.91137 14.9208 1.76249 14.8895L1.77887 14.7794C1.96646 14.8345 2.1064 14.9431 2.19276 15.0995C2.24784 15.2007 2.27911 15.3109 2.28655 15.427C2.28655 15.5446 2.26273 15.6607 2.2002 15.7635C2.14511 15.8647 2.06025 15.9436 1.95008 16.0061C1.8414 16.0612 1.73123 16.0925 1.61361 16.0836C1.49599 16.0836 1.38731 16.0449 1.29352 15.9734C1.19228 15.9109 1.12082 15.8171 1.06722 15.692C1.01958 15.5908 1.00469 15.4806 1.02851 15.3719L0.910894 15.3645L0.872186 15.2781L0.873674 15.2811L1.18632 15.1248Z" fill="#E30613"/>
<path d="M1.46026 14.2896L0.584845 14.0082L0.546137 14.0156L0.59229 14.1556L0.491051 14.1868L0.444898 14.0543L0.367481 13.8042L0.321327 13.6643L0.422566 13.633L0.468719 13.7655L1.44537 13.4528L1.39922 13.3129L1.49302 13.2816L1.54066 13.4216L1.61808 13.6717L1.66423 13.8042L1.57044 13.8355L1.52428 13.703L0.759036 13.9531L1.62552 14.2345L1.68805 14.2106L1.6419 14.0781L1.74314 14.0394L1.78185 14.1809L1.8682 14.431L1.91435 14.5709L1.81311 14.6022L1.7744 14.4623L0.797746 14.7824L0.836454 14.9149L0.74266 14.9461L0.696506 14.8136L0.610156 14.5561L0.571447 14.4235L0.672685 14.3923L0.711395 14.5337L1.46175 14.291L1.46026 14.2896Z" fill="#E30613"/>
<path fill-rule="evenodd" clip-rule="evenodd" d="M0.187335 12.3601L1.2027 12.1799L1.17144 12.031L1.27267 12.0161L1.30394 12.165L1.34265 12.4226L1.37391 12.564L1.27267 12.5804L1.24141 12.439L0.858786 12.5089C0.858786 12.564 0.873674 12.6102 0.897495 12.6266C0.921317 12.6504 0.95258 12.6653 0.998733 12.6816L1.3352 12.7918C1.40518 12.8156 1.44538 12.8692 1.46026 12.9556C1.47664 13.033 1.48409 13.1045 1.47664 13.1744L1.3754 13.1983V13.1834C1.36796 13.1759 1.36796 13.167 1.36796 13.1596C1.36051 13.1283 1.35307 13.1045 1.33669 13.097C1.3218 13.0732 1.28161 13.0509 1.21908 13.027L1.00022 12.9496C0.930249 12.9258 0.882608 12.8871 0.86772 12.8395H0.860275C0.860275 12.8856 0.852831 12.9333 0.829009 12.9809C0.812634 13.036 0.782857 13.0747 0.74266 13.1134C0.70395 13.1521 0.648865 13.1759 0.593779 13.1834C0.531249 13.1983 0.468719 13.1908 0.406189 13.167C0.351103 13.1432 0.296018 13.097 0.257309 13.0419C0.211156 12.9794 0.179891 12.9005 0.163514 12.8082L0.0860963 12.3779L0.0622754 12.2365L0.163514 12.2127L0.187335 12.3616V12.3601ZM0.234977 12.6176C0.249865 12.829 0.352592 12.9303 0.547625 12.9065C0.657798 12.8901 0.727772 12.8514 0.759036 12.7814C0.790301 12.7189 0.790301 12.6325 0.759036 12.5238L0.236465 12.6176H0.234977Z" fill="#E30613"/>
<path d="M0.757547 10.5943C0.843898 10.5943 0.913872 10.633 0.976402 10.6956C1.03149 10.7581 1.06275 10.8281 1.05382 10.9144C1.05382 11.0008 1.02255 11.0708 0.960025 11.1333C0.897495 11.1884 0.820077 11.2196 0.733726 11.2107C0.647376 11.2107 0.577402 11.1794 0.522316 11.1169C0.459786 11.0544 0.435965 10.9755 0.435965 10.8906C0.435965 10.8058 0.474674 10.7343 0.537205 10.6792C0.599734 10.6167 0.669708 10.5929 0.756059 10.5929L0.757547 10.5943Z" fill="#E30613"/>
<path d="M1.35902 9.3363L1.32776 9.4688L1.30394 9.60875L1.2027 9.59237L1.23396 9.44349L0.226044 9.24846L0.163514 9.54473L0.296018 9.56855L0.272198 9.67872L0.0458984 9.63257L0.248376 8.56956L0.474675 8.61572L0.458298 8.7244L0.325795 8.70058L0.270707 8.98941L1.27863 9.18444L1.30245 9.04449L1.40369 9.06831L1.37987 9.20826L1.35605 9.33332L1.35902 9.3363Z" fill="#E30613"/>
<path fill-rule="evenodd" clip-rule="evenodd" d="M1.14761 8.18843L1.49897 8.28967L1.53768 8.14823L1.63892 8.1795L1.59277 8.31944L1.52279 8.57701L1.48409 8.70951L1.38285 8.67825L1.42155 8.54574L0.437455 8.26436L0.398745 8.39686L0.297507 8.37304L0.336215 8.23309L0.430011 7.92789C0.468719 7.77901 0.523805 7.67033 0.593779 7.58397C0.671196 7.49762 0.781369 7.4738 0.930249 7.52145C0.985334 7.53782 1.03149 7.56015 1.07913 7.59142C1.11784 7.62268 1.1491 7.66139 1.17292 7.71648C1.19675 7.76263 1.20419 7.83409 1.20419 7.90407C1.19674 7.98149 1.18037 8.07677 1.1491 8.18545L1.14761 8.18843ZM1.05382 8.16461C1.06983 8.12677 1.0773 8.0804 1.08458 8.03522L1.08508 8.03211C1.08508 7.97702 1.0702 7.93087 1.03893 7.87578C1.00022 7.82963 0.937693 7.78943 0.843898 7.7671C0.750104 7.74328 0.672685 7.75965 0.617599 7.80581C0.562514 7.85345 0.531249 7.92342 0.516362 8.00977L1.05531 8.1661L1.05382 8.16461Z" fill="#E30613"/>
<path d="M1.51535 6.8753L1.08508 6.43015L1.03 6.55521L0.92876 6.5165L1.07764 6.16514L1.17144 6.20385L1.11635 6.32891L1.84289 7.07927C1.89053 7.12542 1.92924 7.17306 1.94413 7.21177C1.96795 7.25048 1.96795 7.30557 1.94413 7.3681C1.9203 7.42318 1.8816 7.46934 1.84289 7.5006L1.71783 7.3681C1.77291 7.33683 1.80418 7.30557 1.81162 7.2743C1.82651 7.23559 1.81907 7.18795 1.78036 7.1418L1.74165 7.11053L0.764992 7.20433L0.726283 7.30557L0.632488 7.26686L0.827521 6.783L0.921317 6.82171L0.866229 6.95421L1.50642 6.89912L1.54513 6.90657L1.55257 6.89912L1.51386 6.8753H1.51535Z" fill="#E30613"/>
<path fill-rule="evenodd" clip-rule="evenodd" d="M1.53173 5.37608L2.71979 5.58749L2.78977 5.46243L3.17239 5.68873L3.07859 5.85249L2.78232 5.68128L2.32973 6.47035L2.626 6.63412L2.52476 6.80682L2.14214 6.58052L2.21211 6.4629L1.51684 5.61875L1.45431 5.73637L1.36051 5.68128L1.43049 5.55622L1.53173 5.37608ZM1.71932 5.68128L2.25826 6.33785L2.55454 5.82272L1.7342 5.65895L1.67912 5.63513L1.67167 5.64257L1.71783 5.68128H1.71932Z" fill="#E30613"/>
<path d="M3.32872 4.16568C3.39869 4.22076 3.42995 4.29074 3.4374 4.37709C3.44484 4.46344 3.41358 4.53341 3.35998 4.60339C3.30489 4.66592 3.23492 4.69718 3.14857 4.70463C3.06222 4.71207 2.99224 4.68974 2.92227 4.63465C2.85974 4.57212 2.82848 4.50215 2.82103 4.4158C2.81359 4.32945 2.83592 4.25947 2.89101 4.19694C2.95354 4.12697 3.02351 4.0957 3.10986 4.08677C3.18728 4.07933 3.26618 4.10315 3.32872 4.16419V4.16568Z" fill="#E30613"/>
<path fill-rule="evenodd" clip-rule="evenodd" d="M4.1736 3.15867L4.48552 3.54782L4.5942 3.45403L4.65673 3.54038L4.54656 3.62673L4.33515 3.7905L4.22646 3.87685L4.15649 3.79943L4.27411 3.71308L3.64136 2.90019L3.53268 2.98654L3.46271 2.90913L3.58032 2.82278L3.79173 2.65007L3.90042 2.56372L3.96295 2.65007L3.85277 2.73642L4.11034 3.07289L4.54805 2.72898L4.28304 2.40144L4.17436 2.48779L4.11183 2.41038L4.22051 2.32403L4.43192 2.15132L4.54209 2.06497L4.61206 2.15132L4.49445 2.23767L5.12719 3.04163L5.23587 2.95528L5.30585 3.0327L5.18823 3.12649L4.97682 3.29026L4.86814 3.37661L4.80561 3.29919L4.91578 3.2054L4.61058 2.81533L4.1736 3.15867Z" fill="#E30613"/>
<path fill-rule="evenodd" clip-rule="evenodd" d="M5.89095 2.26001L5.41453 2.51757L5.4458 2.77513L5.56341 2.70516L5.60956 2.79895L5.29692 2.9791L5.24183 2.8853L5.35945 2.82278L5.2195 1.61238L5.34456 1.5424L6.32866 2.28532L6.45372 2.21534L6.50136 2.30914L6.0175 2.57414L5.96985 2.48779L6.09492 2.41782L5.89095 2.2615V2.26001ZM5.33562 1.85356L5.39815 2.41633L5.8046 2.19003L5.34307 1.84612L5.32669 1.80741L5.31925 1.81485L5.33414 1.85356H5.33562Z" fill="#E30613"/>
<path fill-rule="evenodd" clip-rule="evenodd" d="M6.6949 1.68235L6.85123 2.01882L6.98373 1.96373L7.02244 2.05753L6.88994 2.11262L6.64726 2.2213L6.51476 2.28383L6.47605 2.19003L6.60111 2.1275L6.18722 1.18956L6.05472 1.25209L6.01601 1.15085L6.14851 1.09576L6.43734 0.963257C6.56984 0.908171 6.6949 0.876906 6.81252 0.876906C6.92269 0.876906 7.00755 0.94688 7.07008 1.08832C7.0939 1.1434 7.10879 1.19849 7.10879 1.24464C7.11624 1.29973 7.10135 1.35332 7.07753 1.40097C7.05371 1.45605 7.00755 1.5022 6.95247 1.54985C6.88994 1.596 6.80359 1.64364 6.6949 1.68235ZM6.65619 1.596C6.6949 1.58856 6.74255 1.56473 6.78126 1.53347C6.81996 1.5022 6.85123 1.4635 6.8676 1.40097C6.88249 1.34588 6.87505 1.26846 6.8289 1.18211C6.79019 1.09576 6.72766 1.04216 6.65768 1.03323C6.58027 1.02579 6.5088 1.04068 6.43139 1.07938L6.65768 1.59451L6.65619 1.596Z" fill="#E30613"/>
<path fill-rule="evenodd" clip-rule="evenodd" d="M7.3202 1.23571C7.29638 1.13447 7.29638 1.0243 7.32765 0.915616C7.35891 0.805444 7.414 0.711649 7.49886 0.626787C7.58521 0.540437 7.69389 0.477906 7.81895 0.446642C7.95146 0.415377 8.07652 0.407933 8.19413 0.439198C8.31175 0.470463 8.40554 0.525548 8.4904 0.602966C8.56782 0.689317 8.62291 0.774179 8.65417 0.884351C8.68544 0.985589 8.67799 1.09576 8.64673 1.20444C8.61546 1.31313 8.56038 1.41585 8.47551 1.49327C8.38916 1.57962 8.28048 1.64215 8.15542 1.67342C8.02292 1.71213 7.9053 1.71213 7.78024 1.68086C7.66263 1.6496 7.56883 1.59451 7.48397 1.51709C7.40655 1.43968 7.35147 1.34588 7.3202 1.23571ZM7.61648 1.15829C7.64774 1.28335 7.69389 1.37715 7.74898 1.44712C7.81151 1.51709 7.87404 1.56473 7.93657 1.57962C8.00654 1.60344 8.06907 1.60344 8.1316 1.58707C8.18669 1.57218 8.24177 1.54091 8.28793 1.49327C8.33408 1.43819 8.37428 1.37566 8.38916 1.28186C8.40405 1.19551 8.39661 1.08683 8.36535 0.961768C8.32664 0.836709 8.27899 0.73547 8.2254 0.665496C8.17031 0.602966 8.10778 0.556813 8.03781 0.540436C7.96783 0.516615 7.9053 0.516616 7.84277 0.532993C7.74898 0.556814 7.67156 0.626787 7.62392 0.728026C7.56883 0.838198 7.56883 0.978145 7.61648 1.15829Z" fill="#E30613"/>
<path fill-rule="evenodd" clip-rule="evenodd" d="M9.42091 0.110171L9.9673 1.18062L10.1072 1.16574L10.1623 1.61089L9.97474 1.63471L9.9271 1.29079L9.03679 1.40097L9.0755 1.74488L8.88047 1.7687L8.82539 1.32355L8.96682 1.30717L9.22438 0.244164L9.09188 0.259052L9.07699 0.157813L9.22587 0.133993L9.42091 0.110171ZM9.29585 0.446642L9.09337 1.26697L9.6874 1.197L9.3286 0.439198L9.31223 0.384112H9.29734V0.446642H9.29585Z" fill="#E30613"/>
<path fill-rule="evenodd" clip-rule="evenodd" d="M10.1549 0.649119C10.1549 0.54788 10.1787 0.437709 10.2323 0.343914C10.2874 0.242675 10.3737 0.163768 10.475 0.101239C10.5837 0.0387093 10.7013 0.00744391 10.8338 0C10.9663 0 11.0839 0.0312648 11.1926 0.086351C11.2938 0.141437 11.3802 0.218855 11.4427 0.320093C11.4978 0.413888 11.5291 0.515127 11.5291 0.625298C11.5365 0.73547 11.5052 0.836709 11.4516 0.937947C11.3966 1.03919 11.3117 1.11809 11.209 1.18062C11.1077 1.24315 10.9827 1.27442 10.8502 1.27442C10.7251 1.28186 10.6 1.2506 10.4914 1.197C10.3901 1.13447 10.3038 1.05556 10.2487 0.963257C10.1862 0.862019 10.1549 0.76078 10.1549 0.650608V0.649119ZM10.4601 0.649119C10.4601 0.774179 10.4839 0.875418 10.5226 0.961768C10.5613 1.03919 10.609 1.10172 10.6715 1.13298C10.734 1.17169 10.7891 1.18807 10.8516 1.18807C10.9142 1.18807 10.9767 1.16425 11.0318 1.13298C11.0943 1.09427 11.1405 1.03919 11.1807 0.952836C11.2194 0.875418 11.2358 0.765246 11.2358 0.632742C11.2283 0.500239 11.2119 0.399 11.1732 0.320093C11.1345 0.233742 11.0794 0.178657 11.0244 0.139948C10.9618 0.108683 10.8993 0.0937943 10.8368 0.0937943C10.7355 0.0937943 10.6492 0.139948 10.5718 0.226299C10.4943 0.320093 10.4541 0.460041 10.4631 0.64763L10.4601 0.649119Z" fill="#E30613"/>
<path fill-rule="evenodd" clip-rule="evenodd" d="M12.4521 0.695272V0.702716C12.5385 0.717604 12.6084 0.757802 12.6635 0.811399C12.7186 0.866485 12.7409 0.943903 12.7335 1.0377C12.7261 1.14787 12.671 1.23273 12.5772 1.28782C12.4834 1.3429 12.3747 1.36523 12.2571 1.35035L11.6556 1.27293L11.663 1.17169L11.803 1.19551L11.9281 0.172701L11.7866 0.156324L11.803 0.0550862L12.3732 0.12506C12.5221 0.139948 12.6233 0.18759 12.6784 0.250119C12.7246 0.312649 12.7484 0.382623 12.7484 0.445153C12.7409 0.515127 12.7097 0.577657 12.662 0.625298C12.607 0.671452 12.537 0.695272 12.4506 0.695272H12.4521ZM12.0697 1.21936L12.132 0.728026L12.2184 0.742914C12.2809 0.750358 12.3434 0.766735 12.3985 0.805444C12.461 0.844152 12.4834 0.915616 12.4685 1.01685C12.4685 1.08683 12.4372 1.14936 12.3747 1.18807C12.3196 1.22678 12.2496 1.24166 12.1797 1.23422L12.0697 1.21936ZM12.1469 0.625298L12.2333 0.632742C12.3032 0.640186 12.3658 0.625298 12.4134 0.58659C12.4596 0.54788 12.4908 0.500239 12.4908 0.437709C12.4983 0.391556 12.4834 0.343914 12.4521 0.297761C12.4134 0.250119 12.3583 0.227787 12.2794 0.220343L12.1931 0.205455L12.1454 0.626787L12.1469 0.625298Z" fill="#E30613"/>
<path d="M13.6074 0.640186L13.5836 0.687829L13.0908 1.35928C13.0595 1.39799 13.0283 1.42181 12.997 1.44563C12.9583 1.46945 12.9196 1.47689 12.8645 1.46052C12.8258 1.45307 12.7856 1.42925 12.7469 1.40543L12.8794 1.22529C12.8958 1.25655 12.9181 1.27144 12.9419 1.28037C12.9806 1.28782 13.0194 1.27293 13.0521 1.21784L13.6149 0.467485L13.4824 0.43622L13.5062 0.334981L13.6476 0.373691L13.8352 0.419843L13.9454 1.6228L14.0704 1.65406L14.0647 1.67117L14.0213 1.65555L13.9944 1.73634L13.5241 1.61535L13.5553 1.51411L13.6878 1.55282L13.6104 0.693783L13.6178 0.64763L13.6104 0.640186H13.6074Z" fill="#E30613"/>
<path fill-rule="evenodd" clip-rule="evenodd" d="M13.9944 1.73634L13.99 1.74935L14.334 1.88185L14.3727 1.78806L14.2476 1.7419L14.4203 1.55431L14.928 1.74935L14.9265 1.75084L14.934 2.0084L14.8015 1.95331L14.7627 2.05455L15.2779 2.24959L15.3166 2.15579L15.1915 2.10964L15.1215 0.867974L14.9816 0.812888L14.1538 1.70319L14.0647 1.67117L14.0392 1.74786L13.9944 1.73634ZM14.8818 1.06152L14.4918 1.47541L14.922 1.63918L14.8982 1.06896L14.9057 1.03025H14.8982L14.8833 1.06152H14.8818Z" fill="#E30613"/>
<path d="M16.859 1.75679L16.6952 2.062L16.6014 2.01435C16.6327 1.95182 16.6327 1.88185 16.6014 1.80294C16.5776 1.72553 16.524 1.67044 16.4525 1.63173C16.3826 1.59302 16.3126 1.57665 16.2411 1.58558C16.1637 1.59302 16.0922 1.61684 16.0148 1.67937C15.9449 1.73446 15.8734 1.81188 15.8198 1.92205C15.7573 2.05455 15.7334 2.17961 15.7498 2.30467C15.7662 2.42229 15.8362 2.51608 15.9523 2.57861C16.0774 2.64114 16.2024 2.64114 16.3424 2.57861L16.3885 2.68878C16.2084 2.74387 16.0297 2.73494 15.8645 2.65007C15.7632 2.59499 15.6769 2.52501 15.6069 2.42378C15.5369 2.32998 15.4982 2.21981 15.4893 2.10368C15.4818 1.98607 15.5057 1.87738 15.5593 1.75977C15.6143 1.65853 15.6918 1.57218 15.7945 1.50965C15.8957 1.44712 16.0059 1.41585 16.122 1.41585C16.2396 1.4233 16.3558 1.45456 16.4659 1.52454C16.5597 1.58707 16.6386 1.66448 16.6848 1.77466L16.7786 1.71957L16.856 1.75828L16.859 1.75679Z" fill="#E30613"/>
<path d="M16.7816 3.24857L16.6729 3.16222L16.5553 3.07587L16.6252 2.99845L16.7339 3.08481L17.3667 2.27936L17.1329 2.09177L17.0555 2.19301L16.9617 2.13048L17.1106 1.94289L17.9622 2.6069L17.8222 2.79449L17.7284 2.72451L17.8059 2.62328L17.5796 2.43569L16.9468 3.24857L17.057 3.33492L16.9945 3.42128L16.8768 3.32748L16.7831 3.25006L16.7816 3.24857Z" fill="#E30613"/>
<path d="M17.8133 3.67884L18.7274 3.55378L18.7587 3.52251L18.6575 3.42128L18.7349 3.3513L18.8287 3.4451L19.0163 3.64013L19.1175 3.74137L19.0401 3.81879L18.9388 3.7101L18.2049 4.42026L18.3061 4.52895L18.2287 4.59892L18.1274 4.49024L17.9473 4.30265L17.8461 4.20141L17.9235 4.13144L18.0173 4.23267L18.6024 3.66991L17.6957 3.80241L17.6406 3.84856L17.7418 3.9498L17.6719 4.01977L17.5706 3.91854L17.3905 3.73095L17.2892 3.62077L17.3592 3.5508L17.4605 3.66097L18.2034 2.94188L18.1021 2.84064L18.1721 2.77067L18.2733 2.87191L18.4609 3.06694L18.5547 3.16818L18.4848 3.23815L18.3835 3.12947L17.8133 3.67586V3.67884Z" fill="#E30613"/>
<path fill-rule="evenodd" clip-rule="evenodd" d="M19.4283 4.34428L19.1175 4.59297L19.3602 4.89817L19.4614 4.81182L19.5239 4.88924L19.2426 5.11554L19.18 5.04556L19.2738 4.95921L19.0311 4.66294L18.6634 4.95921L18.9761 5.34183L19.0773 5.25548L19.1398 5.3329L18.9374 5.49667L18.3121 4.72249L18.3895 4.65996L18.4833 4.77013L19.2798 4.1225L19.186 4.01233L19.2634 3.9498L19.8723 4.69271L19.6847 4.84904L19.6222 4.77162L19.716 4.6942L19.4283 4.34428ZM19.4301 4.34285L19.4283 4.34428L19.4272 4.34285H19.4301Z" fill="#E30613"/>
<path d="M20.0554 6.49119C19.978 6.5299 19.8991 6.53734 19.8217 6.51501C19.7354 6.49119 19.6728 6.43759 19.6341 6.36613C19.5954 6.28871 19.588 6.20981 19.6103 6.12346C19.6341 6.04455 19.6877 5.98202 19.7666 5.94331C19.8366 5.9046 19.9155 5.89567 20.0004 5.91949C20.0778 5.94331 20.1403 5.99691 20.1805 6.06837C20.2192 6.14579 20.2267 6.2247 20.2043 6.30211C20.1805 6.38847 20.1269 6.45099 20.0554 6.4897V6.49119Z" fill="#E30613"/>
<path d="M21.4534 8.06188L21.1259 8.1795L21.0946 8.07826C21.1572 8.05444 21.2033 8.00084 21.2361 7.92938C21.2673 7.85196 21.2673 7.77305 21.2361 7.69564C21.2122 7.62566 21.1735 7.56313 21.111 7.51549C21.0559 7.47678 20.9785 7.44552 20.8847 7.43807C20.7909 7.43063 20.6897 7.44552 20.5795 7.49316C20.4381 7.54825 20.3368 7.62566 20.2669 7.7269C20.2043 7.82814 20.1894 7.93831 20.2356 8.06337C20.2817 8.19587 20.3845 8.28223 20.5244 8.32838L20.4857 8.43855C20.3145 8.36113 20.1894 8.23607 20.1269 8.06337C20.0793 7.9532 20.0718 7.83707 20.0793 7.71946C20.0956 7.60184 20.1344 7.5006 20.2118 7.40681C20.2817 7.31301 20.3755 7.24304 20.4932 7.1954C20.6018 7.15669 20.7195 7.14031 20.8371 7.16413C20.9472 7.18795 21.0485 7.23411 21.1423 7.31301C21.2286 7.39936 21.2912 7.5006 21.3224 7.62566C21.3537 7.73583 21.3537 7.84452 21.3224 7.9532L21.4311 7.97702L21.4549 8.06337L21.4534 8.06188Z" fill="#E30613"/>
<path fill-rule="evenodd" clip-rule="evenodd" d="M20.9145 8.46684C21.0157 8.45195 21.1259 8.45939 21.2346 8.4981C21.3358 8.53681 21.4296 8.59934 21.5085 8.69314C21.5859 8.78693 21.641 8.89561 21.6648 9.02961C21.6961 9.15466 21.6887 9.27972 21.65 9.39734C21.6112 9.50751 21.5487 9.60875 21.4624 9.67872C21.376 9.75614 21.2822 9.80378 21.1735 9.8276C21.0723 9.85143 20.9621 9.83505 20.8534 9.79634C20.7448 9.76508 20.6584 9.6951 20.5721 9.60131C20.4946 9.51496 20.447 9.39883 20.4157 9.27377C20.3919 9.14127 20.3994 9.01621 20.4396 8.89859C20.4783 8.78991 20.5408 8.68718 20.6271 8.61721C20.7135 8.53979 20.8073 8.49215 20.916 8.46833L20.9145 8.46684ZM20.9696 8.77204C20.8445 8.79586 20.7507 8.83457 20.6733 8.88073C20.6033 8.93581 20.5482 8.99834 20.5244 9.06087C20.5006 9.13085 20.4932 9.19337 20.5095 9.24846C20.517 9.31099 20.5482 9.36607 20.5959 9.41967C20.642 9.46582 20.7046 9.50602 20.7909 9.52984C20.8847 9.55366 20.9859 9.55366 21.1185 9.52984C21.2435 9.50602 21.3448 9.46731 21.4147 9.41223C21.4921 9.35714 21.5398 9.30206 21.5636 9.23208C21.5874 9.16955 21.5949 9.10702 21.5785 9.04449C21.5636 8.94325 21.5011 8.86435 21.3983 8.80182C21.2971 8.74673 21.1557 8.73184 20.9681 8.77055L20.9696 8.77204Z" fill="#E30613"/>
<path d="M20.6882 10.4589L20.712 10.9904L21.7125 10.9591L21.705 10.8102H21.8137V10.9427L21.8212 11.2167L21.8286 11.3566L21.7274 11.3641L21.7199 11.2152L20.6971 11.2539L20.7046 11.4176L20.2594 11.4325L20.252 11.2211L20.5959 11.2062L20.5572 10.1983L20.5497 10.0584L20.6599 10.0509V10.1924L21.6827 10.1611V10.0197L21.7839 10.0122L21.7914 10.1522L21.7988 10.4172L21.8063 10.5661H21.6961V10.4261L20.6882 10.4574V10.4589Z" fill="#E30613"/>
<path d="M20.8683 11.9894L21.5398 12.6146L21.5785 12.6221L21.6023 12.4732L21.7036 12.4881L21.6887 12.628L21.6574 12.8856L21.6336 13.0345L21.5323 13.0181L21.5487 12.8767L20.5334 12.7516L20.517 12.8916L20.4157 12.8841L20.4306 12.7352L20.4619 12.4777L20.4768 12.3377L20.578 12.3452L20.5631 12.4941L21.3671 12.5878L20.6956 11.9626L20.6331 11.9551L20.6093 12.104L20.508 12.0891L20.5229 11.9477L20.5616 11.6827L20.5765 11.5427L20.6778 11.5576L20.6629 11.699L21.6782 11.8241L21.6931 11.6827L21.7944 11.6901L21.778 11.8315L21.7467 12.0965L21.7318 12.238L21.6306 12.2305L21.6455 12.0817L20.8639 11.9879L20.8683 11.9894Z" fill="#E30613"/>
<path fill-rule="evenodd" clip-rule="evenodd" d="M20.0961 14.2733L20.1344 14.2851L20.1731 14.1526L21.3924 13.9576L21.4311 13.8087L20.4619 13.0747L20.4932 12.9422L20.3919 12.9184L20.2981 13.2772L20.3994 13.301L20.4306 13.1759L20.6331 13.3248L20.4935 13.8476L20.2445 13.8861L20.2758 13.7461L20.182 13.7223L20.0432 14.2179L20.0406 14.2151C20.0093 14.2553 19.9855 14.294 19.9706 14.3253C19.9468 14.3714 19.9468 14.4191 19.9631 14.4578C19.978 14.4965 20.0018 14.5278 20.0331 14.5665L20.6182 15.1531L20.6569 15.1843V15.1933L20.6108 15.1769L19.7517 15.1218L19.8068 14.9967L19.713 14.9506L19.4942 15.4434L19.588 15.4821L19.643 15.3719L20.846 15.4419L20.9234 15.2617L20.9785 15.1367L20.8847 15.098L20.8296 15.223L20.1731 14.5516C20.1344 14.5039 20.118 14.4652 20.1344 14.434C20.1418 14.4101 20.1656 14.3863 20.1969 14.3789L20.0961 14.2733ZM20.4932 13.8489L20.4935 13.8476L20.4946 13.8474L20.4932 13.8489ZM20.0961 14.2733L20.0432 14.2179L20.0331 14.2538L20.0961 14.2733ZM21.172 13.7313L20.7269 13.3873L20.6018 13.8325L21.1646 13.7461L21.2108 13.7536V13.7461L21.172 13.7298V13.7313Z" fill="#E30613"/>
<path fill-rule="evenodd" clip-rule="evenodd" d="M19.5253 16.0228L19.8679 16.8637L19.9066 16.8875L19.984 16.7699L20.0703 16.825L19.9929 16.9426L19.853 17.1689L19.783 17.294L19.6892 17.2389L19.7666 17.1138L18.9001 16.5674L18.8227 16.6925L18.7364 16.6374L18.9537 16.286L19.0237 16.1684L19.1101 16.2235L19.0401 16.3486L19.719 16.7788L19.3751 15.9272L19.32 15.8885L19.2426 16.0136L19.1562 15.9585L19.2336 15.8409L19.3751 15.6146L19.445 15.4895L19.5388 15.5446L19.4614 15.6697L20.3279 16.2086L20.4053 16.091L20.4917 16.1461L20.4142 16.2712L20.2728 16.4975L20.2028 16.6151L20.1165 16.56L20.1865 16.4349L19.5253 16.0228ZM19.5239 16.0195L19.5253 16.0228L19.5225 16.021L19.5239 16.0195Z" fill="#E30613"/>
<path d="M18.9076 17.3863L18.9775 17.4488L18.9388 17.495C18.8912 17.55 18.8689 17.6126 18.8763 17.6825C18.8838 17.7525 18.9225 17.8076 18.9775 17.8463C19.0326 17.885 19.0862 17.8925 19.1413 17.885C19.189 17.8701 19.2351 17.8389 19.2738 17.7912C19.32 17.7361 19.3364 17.6736 19.3289 17.6111C19.3215 17.556 19.2902 17.5009 19.2426 17.4622L19.3125 17.3848L19.5314 17.5724L19.4689 17.6498L19.3989 17.626C19.4138 17.7347 19.3751 17.8448 19.2813 17.9386C19.2113 18.025 19.1324 18.0711 19.0475 18.0875C18.9701 18.1113 18.8912 18.0949 18.8287 18.0488C18.7587 18.0026 18.7185 17.9476 18.7111 17.885C18.7036 17.8225 18.7185 17.76 18.7423 17.6974L18.7661 17.6662L18.7587 17.6587L18.7274 17.69C18.6575 17.7361 18.586 17.7674 18.525 17.7838C18.455 17.7912 18.3924 17.7689 18.3374 17.7287C18.251 17.6736 18.2049 17.5798 18.1885 17.4637C18.1721 17.3461 18.2346 17.2136 18.3597 17.0572C18.446 16.956 18.5398 16.9009 18.6336 16.8771L18.5637 16.8295L18.6336 16.752L18.8763 16.9545L18.8138 17.0319C18.7587 16.9932 18.6962 16.9769 18.6336 16.9858C18.5637 17.0007 18.5086 17.0409 18.446 17.1108C18.391 17.1883 18.3686 17.2597 18.3761 17.3297C18.3835 17.4071 18.4222 17.4622 18.4937 17.5098C18.58 17.5649 18.65 17.5798 18.7125 17.5485C18.7751 17.5173 18.8302 17.4786 18.8689 17.4309L18.9076 17.3848V17.3863Z" fill="#E30613"/>
<path fill-rule="evenodd" clip-rule="evenodd" d="M17.5951 18.4208L17.8282 19.3485L17.523 19.6061L17.4605 19.5287L17.5706 19.4349L16.8917 18.6696L16.7816 18.7634L16.719 18.686L16.8277 18.5922L17.0227 18.4195L17.1314 18.3257L17.194 18.4031L17.0853 18.4969L17.6629 19.1609L17.4128 18.223L17.523 18.1292L18.4207 18.4969L17.8431 17.8404L17.7329 17.9342L17.6704 17.8567L17.7806 17.7629L17.858 17.693L17.9592 17.5992L18.0292 17.6766L17.919 17.7704L18.5905 18.5446L18.6991 18.4508L18.7691 18.5282L18.6589 18.622L18.4714 18.7857L17.5951 18.4208ZM17.5944 18.418L17.5951 18.4208L17.5885 18.418H17.5944Z" fill="#E30613"/>
<path d="M15.7662 19.8473C15.7275 19.7684 15.7111 19.6909 15.7349 19.6135C15.7588 19.5272 15.8049 19.4646 15.8838 19.4259C15.9538 19.3872 16.0327 19.3798 16.1176 19.4021C16.195 19.4259 16.259 19.4646 16.3051 19.5346C16.3439 19.612 16.3602 19.6909 16.3364 19.7684C16.3126 19.8547 16.2664 19.9172 16.1875 19.9559C16.1176 20.0021 16.0386 20.011 15.9538 19.9872C15.8764 19.9634 15.8138 19.9172 15.7662 19.8473Z" fill="#E30613"/>
<path fill-rule="evenodd" clip-rule="evenodd" d="M4.92322 15.7739C4.78625 15.954 4.73117 16.49 4.99469 16.6419C5.20014 16.764 5.35647 16.8161 5.69443 16.6166C5.81274 16.5466 5.95637 16.3595 6.10177 16.1355L6.42394 17.6811C7.20387 17.6092 7.78963 17.4048 8.29852 17.2272C9.17098 16.9228 9.81752 16.6972 10.8293 17.3535L10.9306 17.4235L11.0392 17.3535C12.0539 16.6983 12.6993 16.922 13.5702 17.2237C14.0806 17.4006 14.6685 17.6043 15.4535 17.6736L15.767 16.1709L16.1801 16.6046C16.3573 16.6448 16.6074 16.5421 16.722 16.4364C16.8605 16.3084 16.9245 16.1357 16.9394 15.9064L16.0132 14.991L16.0622 14.7561C16.1706 14.6356 16.263 14.5239 16.3141 14.4459C16.926 13.5243 17.1002 12.2707 17.0629 11.3521C17.0406 11.0771 17.0013 10.7921 16.9489 10.5055L17.7106 6.85446C16.9314 6.8904 16.0583 6.88391 15.2376 6.68025C15.0381 6.37182 14.8412 6.08165 14.7106 5.92693C13.2999 4.26026 12.6388 3.73225 12.1778 3.36401C12.0515 3.26318 11.9403 3.17433 11.8328 3.07736C11.9427 3.24462 12.197 3.50665 12.5225 3.84213C13.1011 4.43833 13.9047 5.26649 14.523 6.20683C14.5824 6.29704 14.6406 6.38508 14.6973 6.47098L14.7339 6.52631C14.6736 6.50405 14.6137 6.48045 14.5543 6.45546C14.0466 6.24554 13.6327 6.12048 13.1801 6.06539C12.5474 6.00286 11.8685 6.13537 10.9306 6.76811L10.932 6.76662C10.2863 6.32748 9.76165 6.1293 9.28957 6.07252L10.3452 5.03535L10.3484 5.03514L10.3469 5.03365L10.3452 5.03535L7.85171 5.2004L6.97331 6.03562L6.74552 5.81825L6.26166 6.29169L6.45223 6.51948L6.17463 6.77643C5.49237 6.88697 4.79634 6.88227 4.16691 6.85297L5.86477 14.9984C5.23294 15.4676 5.01294 15.6527 4.92025 15.7754L4.92322 15.7739ZM15.1718 15.5459L15.5697 15.9637L15.263 17.4324H15.2555L15.0679 17.4086L14.8878 17.3773L14.7166 17.3461L14.5528 17.3074L14.3965 17.2612L14.2402 17.2225L14.0913 17.1749L13.9424 17.1287L13.8025 17.0826L13.67 17.0275L13.5375 16.9813L13.405 16.9426L13.2724 16.895L13.1399 16.8563L13.0149 16.8175L12.7499 16.755L12.6174 16.7312L12.4849 16.7148L12.3524 16.7074H12.2124L12.0725 16.7148L11.9325 16.7386L11.7836 16.7699L11.6422 16.8086L11.4859 16.8637L11.337 16.9262L11.1807 17.0036L11.0244 17.09V16.0811C12.1299 16.3193 13.2658 16.2512 13.6893 16.1267C14.1053 16.0016 14.76 15.7695 15.1718 15.5459ZM10.603 14.9446L10.8531 15.0576V11.0113L7.6656 7.66437L6.15149 9.1502L4.93067 7.92789L5.90499 7.02602L5.88946 7.02716L5.78078 7.04205L5.5783 7.05694L5.46813 7.06438L5.36689 7.07183H5.16441L5.06317 7.07927H4.65673L4.56293 7.07183H4.45425L6.07575 14.8423C6.52862 14.5021 6.6559 14.2364 6.76421 14.0104C6.8283 13.8766 6.88575 13.7567 7.00011 13.6434L7.28149 13.8489L7.87404 13.1908L8.44127 13.7432L8.50529 13.6881L9.06062 14.2434L9.12612 14.2017L9.75589 14.6752L9.80353 14.635L10.5241 15.0488L10.603 14.9446ZM11.0244 11.1911V15.135L11.3444 15.2796L11.3683 15.1382L12.406 15.3719L12.4462 15.2707L13.5955 15.2856L13.5553 15.1471L14.4385 14.776L11.0244 11.1911ZM8.13607 7.20582L9.08514 6.27336L9.12166 6.27829H9.18419L9.24672 6.28574L9.3018 6.29318L9.36433 6.30063L9.42686 6.31551L9.48939 6.32296L9.55192 6.33785L9.62189 6.35422L9.68443 6.37804L9.7544 6.39293L9.81693 6.4242L9.95688 6.47184L10.0343 6.5031L10.1043 6.54181L10.1817 6.57308L10.2591 6.61178L10.3291 6.65049L10.3544 6.64305L10.4318 6.68176L10.5092 6.7294L10.5956 6.78449L10.673 6.83064L10.7668 6.89317L10.8531 6.94826V9.89118L8.13607 7.20582ZM15.1448 14.1328L11.0244 10.0604V6.94974L11.1107 6.88721L11.2834 6.77704L11.3698 6.73089L11.4472 6.68325L11.5261 6.64454L11.5395 6.65049L11.7717 6.53437L11.9117 6.47184L11.9817 6.44802L12.0516 6.41675L12.1216 6.39293L12.1916 6.37804L12.2541 6.35422L12.3166 6.33785L12.3866 6.32296L12.4491 6.30807L12.5117 6.30063L12.5668 6.29318L12.7543 6.27085H12.9806L13.0432 6.27829H13.0983L13.1533 6.28574H13.1921L13.2695 6.30063H13.3156L13.4705 6.3304L13.5017 6.33785L13.5479 6.34529L13.6253 6.36018L13.664 6.37655L13.7414 6.39144L13.7801 6.40633L13.8188 6.41377L13.8575 6.43015L13.8963 6.43759L13.935 6.45397L13.9811 6.46886L14.0198 6.48524L14.0585 6.50012L14.1047 6.51501L14.1434 6.53139L14.1896 6.54628L14.2283 6.56265L14.2759 6.57754L14.3146 6.59243L14.3608 6.61625L14.4069 6.63263L14.4546 6.64752L14.5558 6.68623L14.6496 6.72493L14.7508 6.7562L14.8521 6.79491L14.9257 6.81764C15.2465 7.30858 15.4986 7.71999 15.6143 8.05742C15.7228 8.3739 15.8952 9.04558 16.0119 9.49996L16.0121 9.50094C16.0715 9.73205 16.1164 9.90702 16.131 9.94969L16.259 9.96755L16.323 11.1363L16.4198 11.1809L16.0699 12.4807L16.1786 12.5328L15.4744 13.7268L15.5563 13.8265L15.1448 14.1328ZM15.7722 7.53025C15.6708 7.36633 15.5392 7.15389 15.4003 6.93456L15.4774 6.95123L15.5786 6.96612L15.6798 6.98994L15.7885 7.00483L15.8898 7.02121L15.991 7.02865L16.0997 7.04354L16.4034 7.06587H16.5121L16.6133 7.07331H16.7146L16.8158 7.08076H17.121L17.2148 7.07331H17.4262L16.8285 9.93557C16.7829 9.7447 16.7327 9.55554 16.6788 9.37054C16.6595 9.30801 16.2501 8.19141 15.9657 7.83707C15.95 7.81739 15.8771 7.69966 15.7722 7.53025ZM6.46858 15.5217C6.41005 15.6237 6.3478 15.7322 6.28394 15.84L6.61749 17.4384L6.80507 17.4071L7.16537 17.3446L7.32913 17.3059L7.48546 17.2597L7.64179 17.221L7.79067 17.1734L7.9321 17.1272L8.21349 17.0334L8.34599 16.9873L8.611 16.8935L8.7435 16.8548L8.86856 16.8161L9.13357 16.7535L9.25863 16.7297L9.40006 16.7133L9.53257 16.7059H9.67252L9.81395 16.7133L9.9539 16.7372L10.0953 16.7684L10.2442 16.8071L10.3842 16.8622L10.5405 16.9247L10.6968 17.0022L10.8531 17.0885V16.0416C10.7339 16.0123 10.6155 15.9793 10.4988 15.9421C9.88044 15.7465 9.36396 15.2858 9.22092 15.1582C9.20175 15.1411 9.18929 15.13 9.18419 15.1263C8.51869 14.6364 8.28644 14.4057 7.75791 13.8265C7.74372 13.8473 7.60709 13.96 7.52814 14.0252C7.49949 14.0489 7.47831 14.0663 7.47355 14.0707C7.58074 14.1749 7.65369 14.2479 7.66858 14.2642L6.81103 14.9848C6.74565 15.0388 6.61946 15.2588 6.46858 15.5217Z" fill="#E30613"/>
<path d="M6.28394 15.84C6.3478 15.7322 6.41005 15.6237 6.46858 15.5217C6.61946 15.2588 6.74565 15.0388 6.81103 14.9848L7.66858 14.2642C7.65369 14.2479 7.58074 14.1749 7.47355 14.0707C7.47831 14.0663 7.49949 14.0489 7.52814 14.0252C7.60709 13.96 7.74372 13.8473 7.75791 13.8265C8.28644 14.4057 8.51869 14.6364 9.18419 15.1263C9.18929 15.13 9.20175 15.1411 9.22092 15.1582C9.36396 15.2858 9.88044 15.7465 10.4988 15.9421C10.6155 15.9793 10.7339 16.0123 10.8531 16.0416V17.0885L10.6968 17.0022L10.5405 16.9247L10.3842 16.8622L10.2442 16.8071L10.0953 16.7684L9.9539 16.7372L9.81395 16.7133L9.67252 16.7059H9.53257L9.40006 16.7133L9.25863 16.7297L9.13357 16.7535L8.86856 16.8161L8.7435 16.8548L8.611 16.8935L8.34599 16.9873L8.21349 17.0334L7.9321 17.1272L7.79067 17.1734L7.64179 17.221L7.48546 17.2597L7.32913 17.3059L7.16537 17.3446L6.80507 17.4071L6.61749 17.4384L6.28394 15.84Z" fill="#F8DDDF"/>
<path d="M15.5697 15.9637L15.1718 15.5459C14.76 15.7695 14.1053 16.0016 13.6893 16.1267C13.2658 16.2512 12.1299 16.3193 11.0244 16.0811V17.09L11.1807 17.0036L11.337 16.9262L11.4859 16.8637L11.6422 16.8086L11.7836 16.7699L11.9325 16.7386L12.0725 16.7148L12.2124 16.7074H12.3524L12.4849 16.7148L12.6174 16.7312L12.7499 16.755L13.0149 16.8175L13.1399 16.8563L13.2724 16.895L13.405 16.9426L13.5375 16.9813L13.67 17.0275L13.8025 17.0826L13.9424 17.1287L14.0913 17.1749L14.2402 17.2225L14.3965 17.2612L14.5528 17.3074L14.7166 17.3461L14.8878 17.3773L15.0679 17.4086L15.2555 17.4324H15.263L15.5697 15.9637Z" fill="#F8DDDF"/>
<path d="M11.0244 15.135V11.1911L14.4385 14.776L13.5553 15.1471L13.5955 15.2856L12.4462 15.2707L12.406 15.3719L11.3683 15.1382L11.3444 15.2796L11.0244 15.135Z" fill="#F8DDDF"/>
<path d="M10.8531 15.0576L10.603 14.9446L10.5241 15.0488L9.80353 14.635L9.75589 14.6752L9.12612 14.2017L9.06062 14.2434L8.50529 13.6881L8.44127 13.7432L7.87404 13.1908L7.28149 13.8489L7.00011 13.6434C6.88575 13.7567 6.8283 13.8766 6.76421 14.0104C6.6559 14.2364 6.52862 14.5021 6.07575 14.8423L4.45425 7.07183H4.56293L4.65673 7.07927H5.06317L5.16441 7.07183H5.36689L5.46813 7.06438L5.5783 7.05694L5.78078 7.04205L5.88946 7.02716L5.90499 7.02602L4.93067 7.92789L6.15149 9.1502L7.6656 7.66437L10.8531 11.0113V15.0576Z" fill="#F8DDDF"/>
<path d="M11.0244 10.0604L15.1448 14.1328L15.5563 13.8265L15.4744 13.7268L16.1786 12.5328L16.0699 12.4807L16.4198 11.1809L16.323 11.1363L16.259 9.96755L16.131 9.94969C16.1164 9.90702 16.0715 9.73205 16.0121 9.50094L16.0119 9.49996C15.8952 9.04558 15.7228 8.3739 15.6143 8.05742C15.4986 7.71999 15.2465 7.30858 14.9257 6.81764L14.8521 6.79491L14.7508 6.7562L14.6496 6.72493L14.5558 6.68623L14.4546 6.64752L14.4069 6.63263L14.3608 6.61625L14.3146 6.59243L14.2759 6.57754L14.2283 6.56265L14.1896 6.54628L14.1434 6.53139L14.1047 6.51501L14.0585 6.50012L14.0198 6.48524L13.9811 6.46886L13.935 6.45397L13.8963 6.43759L13.8575 6.43015L13.8188 6.41377L13.7801 6.40633L13.7414 6.39144L13.664 6.37655L13.6253 6.36018L13.5479 6.34529L13.5017 6.33785L13.4705 6.3304L13.3156 6.30063H13.2695L13.1921 6.28574H13.1533L13.0983 6.27829H13.0432L12.9806 6.27085H12.7543L12.5668 6.29318L12.5117 6.30063L12.4491 6.30807L12.3866 6.32296L12.3166 6.33785L12.2541 6.35422L12.1916 6.37804L12.1216 6.39293L12.0516 6.41675L11.9817 6.44802L11.9117 6.47184L11.7717 6.53437L11.5395 6.65049L11.5261 6.64454L11.4472 6.68325L11.3698 6.73089L11.2834 6.77704L11.1107 6.88721L11.0244 6.94974V10.0604Z" fill="#F8DDDF"/>
<path d="M9.08514 6.27336L8.13607 7.20582L10.8531 9.89118V6.94826L10.7668 6.89317L10.673 6.83064L10.5956 6.78449L10.5092 6.7294L10.4318 6.68176L10.3544 6.64305L10.3291 6.65049L10.2591 6.61178L10.1817 6.57308L10.1043 6.54181L10.0343 6.5031L9.95688 6.47184L9.81693 6.4242L9.7544 6.39293L9.68443 6.37804L9.62189 6.35422L9.55192 6.33785L9.48939 6.32296L9.42686 6.31551L9.36433 6.30063L9.3018 6.29318L9.24672 6.28574L9.18419 6.27829H9.12166L9.08514 6.27336Z" fill="#F8DDDF"/>
<path d="M15.4003 6.93456C15.5392 7.15389 15.6708 7.36633 15.7722 7.53025C15.8771 7.69966 15.95 7.81739 15.9657 7.83707C16.2501 8.19141 16.6595 9.30801 16.6788 9.37054C16.7327 9.55554 16.7829 9.7447 16.8285 9.93557L17.4262 7.07331H17.2148L17.121 7.08076H16.8158L16.7146 7.07331H16.6133L16.5121 7.06587H16.4034L16.0997 7.04354L15.991 7.02865L15.8898 7.02121L15.7885 7.00483L15.6798 6.98994L15.5786 6.96612L15.4774 6.95123L15.4003 6.93456Z" fill="#F8DDDF"/>
<path d="M24.8648 4.64482V15.5474H28.1694V11.1199H28.2121L30.2627 15.5474H34.2996L30.8668 9.78335L33.9975 4.64482H30.1772L28.2121 8.66045H28.1694V4.64482H24.8648Z" fill="#E30613"/>
<path d="M35.3157 4.64482V15.5474H38.6845V7.36361H40.9944V15.5474H44.3631V4.64482H35.3157Z" fill="#E30613"/>
<path fill-rule="evenodd" clip-rule="evenodd" d="M50.4506 4.64482H46.5418V15.5535H49.8678V12.8317H50.5147C51.3142 12.8317 52.0038 12.7249 52.5652 12.5082C53.1053 12.2916 53.56 12.0109 53.9048 11.6447C54.274 11.2755 54.509 10.8452 54.6829 10.3265C54.8355 9.82912 54.8995 9.31039 54.8995 8.72757C54.8995 8.14476 54.8141 7.58331 54.5975 7.08593C54.4022 6.58855 54.1001 6.15526 53.7339 5.78909C53.3464 5.42293 52.8704 5.1422 52.3303 4.94691C51.7688 4.73026 51.1402 4.64482 50.4506 4.64482ZM49.8678 10.1068V7.36361H50.3652C50.7527 7.36361 51.0334 7.4704 51.2501 7.66569C51.4881 7.86098 51.5949 8.22715 51.5949 8.72452C51.5949 9.2219 51.4881 9.5667 51.2501 9.78335C51.0334 10 50.7527 10.1068 50.3652 10.1068H49.8678Z" fill="#E30613"/>
<path fill-rule="evenodd" clip-rule="evenodd" d="M60.5782 13.9943V15.5474H63.8828V13.9943H64.4443C65.912 13.9943 67.0349 13.6464 67.8344 12.9782C68.6125 12.3099 69 11.2724 69 9.86879C69 8.59331 68.6125 7.60161 67.8344 6.88759C67.0349 6.1522 65.9333 5.8074 64.5083 5.8074H63.8828V4.44648H60.5782V5.8074H59.9526C58.5032 5.8074 57.4047 6.1522 56.6266 6.88759C55.8485 7.60161 55.461 8.59636 55.461 9.86879C55.461 11.2724 55.8485 12.3099 56.6266 12.9782C57.4261 13.6495 58.549 13.9943 60.0167 13.9943H60.5782ZM63.8828 11.2724V8.52923C65.0484 8.52923 65.6313 8.98389 65.6313 9.86879C65.6313 10.3662 65.5031 10.711 65.201 10.949C64.9203 11.1656 64.487 11.2724 63.8828 11.2724ZM58.8297 9.86879C58.8297 8.98389 59.4125 8.52923 60.5782 8.52923V11.2724C59.974 11.2724 59.5407 11.1656 59.2386 10.949C58.9579 10.711 58.8297 10.3662 58.8297 9.86879Z" fill="#E30613"/>
</svg>
