<svg width="116" height="20" viewBox="0 0 116 20" fill="none" xmlns="http://www.w3.org/2000/svg">
<path fill-rule="evenodd" clip-rule="evenodd" d="M12.3363 5.45284H12.823C13.7103 5.45284 14.4681 5.6562 14.4681 7.27046C14.4681 8.88476 13.7103 9.11892 12.823 9.11892H12.3363V5.45284ZM12.3363 12.5323H12.823C14.6037 12.5323 17.7768 12.4646 17.7768 7.27046C17.7768 2.08254 14.616 2.05174 12.823 2.05174H9.02145V16.8084H12.3363V12.5323Z" fill="#941A1F"/>
<path fill-rule="evenodd" clip-rule="evenodd" d="M6.5199 16.8453C6.58768 16.8515 6.64929 16.8515 6.71706 16.8577C6.84645 16.8577 6.97587 16.8638 7.11141 16.8577C7.37634 16.8577 7.64743 16.8392 7.93088 16.8084V12.5631C6.51374 12.6617 5.55257 12.4584 4.93025 11.6143C4.51745 11.0598 4.30178 10.154 4.30178 9.45778C4.30178 8.76153 4.51745 7.86197 4.93025 7.3013C5.55257 6.45718 6.51374 6.25383 7.93088 6.35241V2.10719C3.45766 1.61429 0.635742 4.70114 0.635742 9.45778C0.635742 13.6968 2.87235 16.6112 6.5199 16.8453Z" fill="#941A1F"/>
<path d="M18.9229 0H17.9247L21.2149 10L17.9247 20H18.9229L22.2192 10L18.9229 0Z" fill="#941A1F"/>
<path d="M29.2245 7.19704C29.0658 7.24663 28.8178 7.29623 28.5996 7.29623C27.8061 7.29623 27.201 6.67133 27.201 5.07438C27.201 3.41791 27.8656 2.78309 28.5996 2.78309C28.8872 2.78309 29.0559 2.8426 29.2046 2.91204L29.4229 1.82095C29.2939 1.73168 28.9765 1.64241 28.5202 1.64241C27.2208 1.64241 25.8223 2.62439 25.8223 5.14381C25.8223 7.04825 26.6356 8.44683 28.3516 8.44683C28.798 8.44683 29.165 8.3774 29.3534 8.28813L29.2245 7.19704Z" fill="#941A1F"/>
<path d="M30.0676 1.70191V8.3873H31.367V2.83267H32.6962V8.3873H33.9955V1.70191H30.0676Z" fill="#941A1F"/>
<path d="M35.1461 8.3873H36.4455V5.89764C36.5348 5.90755 36.6141 5.90755 36.7034 5.90755C37.249 5.90755 37.9135 5.70917 38.3301 5.26282C38.6773 4.89582 38.8955 4.38003 38.8955 3.65595C38.8955 3.09056 38.717 2.5351 38.3202 2.18793C37.8937 1.78126 37.2787 1.67215 36.505 1.67215C36.0091 1.67215 35.5131 1.72174 35.1461 1.8011V8.3873ZM36.4455 2.77316C36.5249 2.7434 36.6439 2.72356 36.7629 2.72356C37.368 2.72356 37.606 3.17983 37.606 3.76505C37.606 4.38995 37.3184 4.85614 36.6637 4.85614C36.5844 4.85614 36.515 4.85614 36.4455 4.84622V2.77316Z" fill="#941A1F"/>
<path d="M41.5041 6.85978L41.7918 8.3873H43.0515L41.7521 1.70191H40.1948L38.7467 8.3873H40.0064L40.3039 6.85978H41.5041ZM40.4329 5.84804L40.6809 4.44946C40.7503 4.06262 40.8495 3.37821 40.9189 2.93186H40.9487C41.0082 3.36829 41.0975 4.04279 41.1669 4.44946L41.3851 5.84804H40.4329Z" fill="#941A1F"/>
<path d="M43.7855 8.35754C44.083 8.40714 44.4996 8.43689 44.9956 8.43689C46.1164 8.43689 46.7909 8.19884 47.1877 7.7624C47.5051 7.43508 47.6836 6.99864 47.6836 6.4531C47.6836 5.70917 47.2769 5.07436 46.5033 4.85614V4.81647C47.1579 4.52881 47.4654 3.95351 47.4654 3.35838C47.4654 2.89218 47.3166 2.44583 46.9595 2.14826C46.4934 1.7515 45.8883 1.67215 45.2634 1.67215C44.7079 1.67215 44.1822 1.71182 43.7855 1.8011V8.35754ZM45.0849 2.68388C45.1642 2.65413 45.2832 2.64421 45.432 2.64421C45.9577 2.64421 46.1859 3.02113 46.1859 3.50716C46.1859 4.0527 45.8288 4.44946 45.3626 4.44946H45.0849V2.68388ZM45.0849 5.4116H45.3626C45.8784 5.4116 46.3346 5.75877 46.3346 6.43326C46.3346 7.10775 45.9081 7.43508 45.3725 7.43508C45.2634 7.43508 45.1642 7.43508 45.0849 7.41524V5.4116Z" fill="#941A1F"/>
<path d="M51.3933 4.37011H49.8757V2.83267H51.4825V1.70191H48.5763V8.3873H51.5917V7.25654H49.8757V5.45128H51.3933V4.37011Z" fill="#941A1F"/>
<path d="M53.1688 1.70191V3.38813C53.1688 4.17173 53.1093 4.95533 52.9803 5.71909C52.8712 6.26464 52.7323 6.77051 52.524 7.27637L52.0578 7.29621L52.1074 9.84539H53.0894L53.139 8.3873H56.0354L56.0949 9.84539H57.0769L57.1364 7.29621L56.6107 7.27637V1.70191H53.1688ZM54.3591 2.83267H55.3113V7.25654H53.8631C54.002 6.84986 54.121 6.34399 54.1904 5.85796C54.2995 5.14379 54.3591 4.37011 54.3591 3.60635V2.83267Z" fill="#941A1F"/>
<path d="M58.2671 1.70191V4.71728C58.2671 6.01666 58.1878 6.76059 57.791 7.16726C57.672 7.27637 57.5033 7.35573 57.3446 7.3954L57.6224 8.49641C57.9596 8.49641 58.277 8.36746 58.525 8.16908C59.3681 7.51443 59.4673 6.13569 59.4673 4.59825V2.83267H60.4493V8.3873H61.7487V1.70191H58.2671Z" fill="#941A1F"/>
<path d="M62.8993 1.70191V8.3873H64.0995L65.0814 5.83812C65.2997 5.27274 65.5972 4.4693 65.7559 3.87416H65.7758C65.7361 4.54866 65.6865 5.54055 65.6865 6.87962V8.3873H66.8272V1.70191H65.6468L64.6648 4.29076C64.4665 4.79663 64.1292 5.67942 63.9408 6.25472H63.9209C63.9705 5.56039 64.0499 4.40979 64.0499 3.17984V1.70191H62.8993Z" fill="#941A1F"/>
<path d="M67.9877 8.35754C68.2853 8.40714 68.7019 8.43689 69.1978 8.43689C70.3186 8.43689 70.9931 8.19884 71.3899 7.7624C71.7073 7.43508 71.8859 6.99864 71.8859 6.4531C71.8859 5.70917 71.4792 5.07436 70.7055 4.85614V4.81647C71.3602 4.52881 71.6676 3.95351 71.6676 3.35838C71.6676 2.89218 71.5189 2.44583 71.1618 2.14826C70.6956 1.7515 70.0905 1.67215 69.4656 1.67215C68.9102 1.67215 68.3845 1.71182 67.9877 1.8011V8.35754ZM69.2871 2.68388C69.3664 2.65413 69.4855 2.64421 69.6342 2.64421C70.16 2.64421 70.3881 3.02113 70.3881 3.50716C70.3881 4.0527 70.031 4.44946 69.5648 4.44946H69.2871V2.68388ZM69.2871 5.4116H69.5648C70.0806 5.4116 70.5369 5.75877 70.5369 6.43326C70.5369 7.10775 70.1104 7.43508 69.5747 7.43508C69.4656 7.43508 69.3664 7.43508 69.2871 7.41524V5.4116Z" fill="#941A1F"/>
<path d="M75.0402 6.85978L75.3278 8.3873H76.5875L75.2881 1.70191H73.7309L72.2827 8.3873H73.5424L73.84 6.85978H75.0402ZM73.9689 5.84804L74.2169 4.44946C74.2863 4.06262 74.3855 3.37821 74.4549 2.93186H74.4847C74.5442 3.36829 74.6335 4.04279 74.7029 4.44946L74.9211 5.84804H73.9689Z" fill="#941A1F"/>
<path d="M78.1745 8.3873C78.2638 8.19884 78.3233 8.00046 78.363 7.80208C78.4721 7.29621 78.5217 6.33407 78.8093 5.95715C78.9382 5.79844 79.1267 5.71909 79.3549 5.71909H79.4937V8.3873H80.7931V1.8011C80.3864 1.72174 79.8706 1.67215 79.3747 1.67215C78.6903 1.67215 78.0951 1.83085 77.6786 2.1681C77.3115 2.46567 77.0536 2.93186 77.0536 3.62619C77.0536 4.4693 77.5099 5.01485 78.2042 5.22315V5.24298C78.0356 5.3025 77.8571 5.4116 77.7281 5.54055C77.2322 6.05634 77.2421 6.99864 77.0536 7.67313C76.9842 7.93103 76.8949 8.179 76.8057 8.3873H78.1745ZM79.4937 4.70736C79.4243 4.71728 79.3945 4.71728 79.3052 4.71728C78.7399 4.71728 78.3729 4.3106 78.3729 3.67578C78.3729 3.16991 78.6308 2.68388 79.2358 2.68388C79.335 2.68388 79.4243 2.6938 79.4937 2.71364V4.70736Z" fill="#941A1F"/>
<path d="M83.5208 8.3873H84.8202V5.89764C84.9095 5.90755 84.9888 5.90755 85.0781 5.90755C85.6236 5.90755 86.2882 5.70917 86.7048 5.26282C87.052 4.89582 87.2702 4.38003 87.2702 3.65595C87.2702 3.09056 87.0917 2.5351 86.6949 2.18793C86.2684 1.78126 85.6534 1.67215 84.8797 1.67215C84.3838 1.67215 83.8878 1.72174 83.5208 1.8011V8.3873ZM84.8202 2.77316C84.8996 2.7434 85.0186 2.72356 85.1376 2.72356C85.7427 2.72356 85.9807 3.17983 85.9807 3.76505C85.9807 4.38995 85.6931 4.85614 85.0384 4.85614C84.9591 4.85614 84.8896 4.85614 84.8202 4.84622V2.77316Z" fill="#941A1F"/>
<path d="M89.9384 1.62256C88.4506 1.62256 87.7265 3.19968 87.7265 5.02477C87.7265 6.85978 88.3216 8.46666 89.8392 8.46666C91.1089 8.46666 92.0016 7.445 92.0016 4.92558C92.0016 3.39806 91.5453 1.62256 89.9384 1.62256ZM89.8789 2.75332C90.474 2.75332 90.6526 3.81465 90.6526 4.98509C90.6526 6.34399 90.4443 7.33589 89.8888 7.33589C89.3631 7.33589 89.0755 6.56221 89.0755 5.04461C89.0755 3.60635 89.3631 2.75332 89.8789 2.75332Z" fill="#941A1F"/>
<path d="M95.8997 7.19704C95.7409 7.24663 95.493 7.29623 95.2748 7.29623C94.4812 7.29623 93.8762 6.67133 93.8762 5.07438C93.8762 3.41791 94.5408 2.78309 95.2748 2.78309C95.5624 2.78309 95.731 2.8426 95.8798 2.91204L96.098 1.82095C95.9691 1.73168 95.6517 1.64241 95.1954 1.64241C93.896 1.64241 92.4975 2.62439 92.4975 5.14381C92.4975 7.04825 93.3108 8.44683 95.0268 8.44683C95.4732 8.44683 95.8401 8.3774 96.0286 8.28813L95.8997 7.19704Z" fill="#941A1F"/>
<path d="M99.6987 7.19704C99.54 7.24663 99.292 7.29623 99.0738 7.29623C98.2803 7.29623 97.6752 6.67133 97.6752 5.07438C97.6752 3.41791 98.3398 2.78309 99.0738 2.78309C99.3614 2.78309 99.5301 2.8426 99.6789 2.91204L99.8971 1.82095C99.7681 1.73168 99.4507 1.64241 98.9944 1.64241C97.6951 1.64241 96.2965 2.62439 96.2965 5.14381C96.2965 7.04825 97.1098 8.44683 98.8258 8.44683C99.2722 8.44683 99.6392 8.3774 99.8276 8.28813L99.6987 7.19704Z" fill="#941A1F"/>
<path d="M100.542 1.70191V8.3873H101.742L102.724 5.83812C102.942 5.27274 103.24 4.4693 103.398 3.87416H103.418C103.379 4.54866 103.329 5.54055 103.329 6.87962V8.3873H104.47V1.70191H103.289L102.307 4.29076C102.109 4.79663 101.772 5.67942 101.583 6.25472H101.563C101.613 5.56039 101.692 4.40979 101.692 3.17984V1.70191H100.542Z" fill="#941A1F"/>
<path d="M106.483 8.3873C106.572 8.19884 106.632 8.00046 106.672 7.80208C106.781 7.29621 106.83 6.33407 107.118 5.95715C107.247 5.79844 107.435 5.71909 107.663 5.71909H107.802V8.3873H109.102V1.8011C108.695 1.72174 108.179 1.67215 107.683 1.67215C106.999 1.67215 106.404 1.83085 105.987 2.1681C105.62 2.46567 105.362 2.93186 105.362 3.62619C105.362 4.4693 105.819 5.01485 106.513 5.22315V5.24298C106.344 5.3025 106.166 5.4116 106.037 5.54055C105.541 6.05634 105.551 6.99864 105.362 7.67313C105.293 7.93103 105.204 8.179 105.114 8.3873H106.483ZM107.802 4.70736C107.733 4.71728 107.703 4.71728 107.614 4.71728C107.049 4.71728 106.682 4.3106 106.682 3.67578C106.682 3.16991 106.939 2.68388 107.544 2.68388C107.644 2.68388 107.733 2.6938 107.802 2.71364V4.70736Z" fill="#941A1F"/>
<path d="M111.552 5.36201V6.2448H115.916V5.36201H111.552Z" fill="#941A1F"/>
<path d="M26.0043 11.1826V17.868H27.3561V12.3134H28.7388V17.868H30.0905V11.1826H26.0043Z" fill="#941A1F"/>
<path d="M33.8121 16.3405L34.1113 17.868H35.4218L34.07 11.1826H32.45L30.9435 17.868H32.254L32.5635 16.3405H33.8121ZM32.6977 15.3287L32.9556 13.9302C33.0279 13.5433 33.131 12.8589 33.2033 12.4126H33.2342C33.2961 12.849 33.389 13.5235 33.4612 13.9302L33.6882 15.3287H32.6977Z" fill="#941A1F"/>
<path d="M36.5844 17.868H37.9361V12.3828H39.1744V11.1826H35.3565V12.3828H36.5844V17.868Z" fill="#941A1F"/>
<path d="M40.0584 17.868H41.4101V15.3783C41.503 15.3882 41.5855 15.3882 41.6784 15.3882C42.2459 15.3882 42.9373 15.1899 43.3707 14.7435C43.7318 14.3765 43.9588 13.8607 43.9588 13.1366C43.9588 12.5712 43.7731 12.0158 43.3603 11.6686C42.9166 11.2619 42.2769 11.1528 41.472 11.1528C40.9561 11.1528 40.4402 11.2024 40.0584 11.2818V17.868ZM41.4101 12.2538C41.4927 12.2241 41.6165 12.2042 41.7403 12.2042C42.3698 12.2042 42.6174 12.6605 42.6174 13.2457C42.6174 13.8706 42.3182 14.3368 41.6371 14.3368C41.5546 14.3368 41.4823 14.3368 41.4101 14.3269V12.2538Z" fill="#941A1F"/>
<path d="M44.9459 11.1826V17.868H46.1945L47.216 15.3188C47.443 14.7534 47.7526 13.95 47.9177 13.3549H47.9383C47.8971 14.0294 47.8455 15.0213 47.8455 16.3603V17.868H49.0321V11.1826H47.8042L46.7826 13.7715C46.5763 14.2773 46.2254 15.1601 46.0294 15.7354H46.0087C46.0603 15.0411 46.1429 13.8905 46.1429 12.6605V11.1826H44.9459Z" fill="#941A1F"/>
<path d="M52.3719 11.1032C50.8241 11.1032 50.0708 12.6804 50.0708 14.5055C50.0708 16.3405 50.69 17.9474 52.2687 17.9474C53.5895 17.9474 54.5182 16.9257 54.5182 14.4063C54.5182 12.8787 54.0435 11.1032 52.3719 11.1032ZM52.31 12.234C52.9291 12.234 53.1148 13.2953 53.1148 14.4658C53.1148 15.8247 52.8981 16.8166 52.3203 16.8166C51.7734 16.8166 51.4742 16.0429 51.4742 14.5253C51.4742 13.087 51.7734 12.234 52.31 12.234Z" fill="#941A1F"/>
<path d="M56.1554 17.868H57.5072V12.3828H58.7454V11.1826H54.9275V12.3828H56.1554V17.868Z" fill="#941A1F"/>
<path d="M59.6293 11.1826V17.8383C59.9388 17.8879 60.3722 17.9176 60.8056 17.9176C61.7859 17.9176 62.5391 17.6696 63.0138 17.1935C63.3749 16.8364 63.5916 16.3306 63.5916 15.666C63.5916 14.436 62.7145 13.6425 61.4763 13.6425C61.3215 13.6425 61.1358 13.6624 60.9707 13.6921V11.1826L59.6293 11.1826ZM60.981 14.7237C61.0739 14.7038 61.1771 14.6939 61.2699 14.6939C61.8271 14.6939 62.1883 15.1403 62.1883 15.785C62.1883 16.3802 61.7962 16.8761 61.2287 16.8761C61.1564 16.8761 61.0739 16.8761 60.981 16.8563V14.7237ZM64.1076 11.1826V17.868H65.4593V11.1826H64.1076Z" fill="#941A1F"/>
<path d="M68.3521 14.8427V15.7255H72.8923V14.8427H68.3521Z" fill="#941A1F"/>
<path d="M75.6403 12.4919C75.9189 12.3431 76.2904 12.2142 76.6103 12.2142C77.1881 12.2142 77.4874 12.5316 77.4874 12.9978C77.4874 13.6028 76.8682 13.8905 76.2594 13.8905H76.115V14.8824H76.3214C77.0437 14.8824 77.6834 15.17 77.6834 15.9239C77.6834 16.4595 77.3016 16.8563 76.5793 16.8563C76.1975 16.8563 75.8054 16.7571 75.5062 16.5884L75.2998 17.6498C75.6197 17.8184 76.1356 17.9474 76.7135 17.9474C77.9517 17.9474 79.0868 17.2431 79.0868 15.9636C79.0868 15.0411 78.5295 14.436 77.7144 14.2872V14.2674C78.416 14.0988 78.8907 13.4342 78.8907 12.7498C78.8907 11.8769 78.2716 11.1032 76.9508 11.1032C76.2904 11.1032 75.7126 11.2917 75.4133 11.4901L75.6403 12.4919Z" fill="#941A1F"/>
<path d="M82.437 16.3405L82.7362 17.868H84.0467L82.6949 11.1826H81.0749L79.5684 17.868H80.8788L81.1884 16.3405H82.437ZM81.3225 15.3287L81.5805 13.9302C81.6528 13.5433 81.7559 12.8589 81.8282 12.4126H81.8591C81.921 12.849 82.0139 13.5235 82.0861 13.9302L82.3131 15.3287H81.3225Z" fill="#941A1F"/>
<path d="M86.7949 11.1826V17.868H88.1466V12.3134H89.5293V17.868H90.8811V11.1826H86.7949Z" fill="#941A1F"/>
<path d="M92.25 17.868H93.6017V15.3783C93.6946 15.3882 93.7771 15.3882 93.87 15.3882C94.4375 15.3882 95.1289 15.1899 95.5622 14.7435C95.9234 14.3765 96.1504 13.8607 96.1504 13.1366C96.1504 12.5712 95.9647 12.0158 95.5519 11.6686C95.1082 11.2619 94.4685 11.1528 93.6636 11.1528C93.1477 11.1528 92.6317 11.2024 92.25 11.2818V17.868ZM93.6017 12.2538C93.6842 12.2241 93.8081 12.2042 93.9319 12.2042C94.5613 12.2042 94.809 12.6605 94.809 13.2457C94.809 13.8706 94.5098 14.3368 93.8287 14.3368C93.7462 14.3368 93.6739 14.3368 93.6017 14.3269V12.2538Z" fill="#941A1F"/>
<path d="M99.0361 16.3405L99.3354 17.868H100.646L99.2941 11.1826H97.6741L96.1675 17.868H97.478L97.7876 16.3405H99.0361ZM97.9217 15.3287L98.1797 13.9302C98.2519 13.5433 98.3551 12.8589 98.4273 12.4126H98.4583C98.5201 12.849 98.613 13.5235 98.6853 13.9302L98.9123 15.3287H97.9217Z" fill="#941A1F"/>
<path d="M101.581 17.8382C101.891 17.8878 102.324 17.9176 102.84 17.9176C104.006 17.9176 104.708 17.6795 105.121 17.2431C105.451 16.9158 105.637 16.4793 105.637 15.9338C105.637 15.1899 105.214 14.555 104.409 14.3368V14.2971C105.09 14.0095 105.41 13.4342 105.41 12.8391C105.41 12.3729 105.255 11.9265 104.883 11.6289C104.398 11.2322 103.769 11.1528 103.119 11.1528C102.541 11.1528 101.994 11.1925 101.581 11.2818V17.8382ZM102.933 12.1646C103.016 12.1348 103.14 12.1249 103.294 12.1249C103.841 12.1249 104.079 12.5018 104.079 12.9878C104.079 13.5334 103.707 13.9301 103.222 13.9301H102.933V12.1646ZM102.933 14.8923H103.222C103.759 14.8923 104.233 15.2395 104.233 15.9139C104.233 16.5884 103.79 16.9158 103.232 16.9158C103.119 16.9158 103.016 16.9158 102.933 16.8959V14.8923Z" fill="#941A1F"/>
<path d="M107.356 11.1826V12.8688C107.356 13.6524 107.295 14.436 107.16 15.1998C107.047 15.7453 106.902 16.2512 106.686 16.7571L106.201 16.7769L106.252 19.3261H107.274L107.325 17.868H110.338L110.4 19.3261H111.422L111.484 16.7769L110.937 16.7571V11.1826H107.356ZM108.595 12.3134H109.585V16.7372H108.079C108.223 16.3306 108.347 15.8247 108.419 15.3387C108.533 14.6245 108.595 13.8508 108.595 13.087V12.3134Z" fill="#941A1F"/>
<path d="M111.646 11.1826L113.266 15.8346C113.317 15.9834 113.327 16.0925 113.276 16.2314C113.173 16.5587 112.884 16.9059 112.533 16.9059C112.368 16.9059 112.265 16.886 112.203 16.8761L112.151 17.9374C112.285 17.9771 112.461 17.997 112.698 17.997C113.276 17.997 113.781 17.6498 114.112 17.1241C114.463 16.5587 114.731 15.6362 114.968 14.7931L116 11.1826H114.628L114.163 13.7219C114.101 14.0988 114.05 14.5055 113.998 14.8229H113.967C113.916 14.5253 113.833 14.1285 113.74 13.7516L113.1 11.1826H111.646Z" fill="#941A1F"/>
</svg>
