<svg width="79" height="20" viewBox="0 0 79 20" fill="none" xmlns="http://www.w3.org/2000/svg">
<g clip-path="url(#clip0_56_3389)">
<mask id="mask0_56_3389" style="mask-type:luminance" maskUnits="userSpaceOnUse" x="0" y="0" width="79" height="20">
<path d="M79.0001 0H0.714355V20H79.0001V0Z" fill="white"/>
</mask>
<g mask="url(#mask0_56_3389)">
<path d="M32.8514 2.12892H29.087V3.10624H32.0497C32.0497 4.18826 31.98 4.95615 31.6663 4.95615C31.4223 4.95615 29.087 4.95615 29.087 4.95615V6.00329H32.8514V8.09752H26.2637V0.104492H32.8165V2.12892" fill="#2F80ED"/>
<path d="M40.1712 9.31942V8.09776H36.0582V9.31942H33.5835V5.89879C33.5835 5.89879 33.7578 5.89879 34.1064 5.7941C34.7686 5.58466 35.1172 4.81677 35.3612 3.83946C35.6748 2.51311 35.7794 1.08204 35.8142 0.0698242H41.7397V5.89879H42.6808V9.2845H40.1712V9.31942ZM37.9405 2.12916C37.8708 3.69984 37.5222 5.096 37.0342 5.86387H38.9513V2.12916H37.9405Z" fill="#2F80ED"/>
<path d="M49.4077 8.06284V4.67715V3.90927C49.4077 3.90927 47.63 6.31764 47.2814 6.91102C47.0026 7.36479 46.5495 8.06284 45.7826 8.06284C44.7718 8.06284 43.7959 8.06284 43.7959 8.06284V0.0698242H46.4101V3.59513L46.3752 4.85167C46.3752 4.85167 48.7802 1.39618 49.2334 0.62829C49.5819 0.104728 50.1048 0.0698242 50.4185 0.0698242C50.5928 0.0698242 52.0218 0.0698242 52.0218 0.0698242V8.06284H49.4077Z" fill="#2F80ED"/>
<path d="M56.17 2.82724H58.6447V0.0698242H61.4682L61.4333 8.06284H58.6447V5.0611H56.17V8.06284H53.3467V0.0698242H56.17V2.82724Z" fill="#2F80ED"/>
<path d="M71.4369 8.06284H68.474L67.8815 6.38747H65.4763L64.9883 8.06284H61.9209L64.8489 0.0698242H68.474L71.4369 8.06284ZM65.8598 4.71206H67.498L66.6615 1.84993L65.8598 4.71206Z" fill="#2F80ED"/>
<path d="M76.2816 8.06283V4.99128C75.8982 4.99128 75.4799 5.06109 75.3405 5.41013C75.2359 5.65446 74.7131 6.94592 74.5388 7.39963C74.2948 7.95815 74.1902 8.02792 73.8765 8.02792C73.3188 8.02792 71.2622 8.02792 71.2622 8.02792L72.0291 6.24781C72.5171 5.20071 72.8308 4.92147 73.1096 4.64224C73.3885 4.36301 73.9462 4.11868 73.9462 4.11868C73.7022 4.11868 73.0748 4.01397 72.5868 3.69983C71.9942 3.31589 71.7851 2.75742 71.8199 2.16406C71.8199 1.74521 71.8896 1.22165 72.5171 0.698086C72.9005 0.349048 73.5976 0.0349121 74.6434 0.0349121H78.9999V8.02792H76.2816V8.06283ZM75.5496 1.74521C75.3056 1.74521 74.9919 1.78011 74.7479 1.91973C74.5736 2.05934 74.4691 2.23386 74.4691 2.5131C74.4691 2.79233 74.5736 2.96685 74.7479 3.10646C74.9919 3.28098 75.3405 3.31589 75.6193 3.31589H76.3514V1.7103H75.5496V1.74521Z" fill="#2F80ED"/>
<path d="M67.1146 19.8603V16.0906V15.2181C67.1146 15.2181 65.1975 17.9405 64.8141 18.5688C64.1866 19.5461 63.9078 19.8254 63.0712 19.8254C61.9906 19.8254 61.0146 19.8254 61.0146 19.8254V11.1343H63.8381V14.7294L63.8032 16.0557C63.8032 16.0557 66.3826 12.5653 66.9055 11.7276C67.2541 11.1691 67.8466 11.0994 68.1952 11.0994C68.4044 11.0994 69.9381 11.0994 69.9381 11.0994V19.7904H67.1146" fill="#2F80ED"/>
<path d="M76.0372 19.8603V16.5444C75.619 16.5444 75.1658 16.6142 75.0264 16.9982C74.9218 17.2774 74.3298 18.6735 74.1555 19.1622C73.9115 19.7556 73.7721 19.8603 73.4235 19.8603C72.831 19.8603 70.6001 19.8603 70.6001 19.8603L71.4018 17.9406C71.9595 16.7887 72.2732 16.5095 72.587 16.1954C72.9007 15.8812 73.4932 15.6369 73.4932 15.6369C73.2492 15.6369 72.5521 15.5322 72.0292 15.1831C71.367 14.7643 71.1578 14.171 71.1927 13.5078C71.2275 13.054 71.2972 12.4955 71.9247 11.9022C72.343 11.5182 73.075 11.2041 74.2601 11.2041H78.9652V19.8603H76.0372ZM75.2355 13.0191C74.9915 13.0191 74.6087 13.054 74.3995 13.2285C74.1904 13.3682 74.0858 13.5776 74.0858 13.8917C74.0858 14.2058 74.2252 14.4152 74.3647 14.52C74.6435 14.7294 75.0264 14.7643 75.3052 14.7643H76.0721V13.054H75.2355V13.0191Z" fill="#2F80ED"/>
<path d="M29.819 11.2041C30.6555 11.2041 32.1194 11.2041 32.956 11.9371C33.444 12.3559 33.932 13.1238 33.932 14.3106C33.932 16.1255 32.6422 17.3821 30.8646 17.3821H29.2961V19.8603H26.2637V11.2041H29.819ZM29.2264 15.3576H30.0281C30.8646 15.3576 31.1086 14.6247 31.1086 14.2756C31.1086 13.8917 30.9344 13.2285 30.0281 13.2285H29.2264V15.3576Z" fill="#2F80ED"/>
<path d="M42.437 12.4257C43.169 13.2285 43.5524 14.3454 43.5524 15.4973C43.5873 17.6613 42.3325 19.9998 38.9166 19.9998C38.1498 19.9998 36.895 19.8951 35.8493 18.9178C34.9082 18.0801 34.4551 16.8585 34.4551 15.5321C34.4202 12.8096 36.1979 11.0295 39.0212 11.0295C40.3457 11.0295 41.5308 11.4135 42.437 12.4257ZM38.9864 13.3332C37.6967 13.3332 37.5573 14.7294 37.5573 15.4973C37.5573 16.3 37.7316 17.6613 39.0212 17.6613C40.276 17.6613 40.4503 16.3349 40.4154 15.567C40.4154 14.0313 39.7532 13.3332 38.9864 13.3332Z" fill="#2F80ED"/>
<path d="M51.6383 13.6823C51.2897 13.6125 50.5229 13.4729 49.7561 13.4729C48.327 13.4729 47.4905 14.3454 47.4905 15.4973C47.4905 16.6142 48.0133 17.4519 49.7213 17.4868C50.5578 17.4868 51.3246 17.3821 51.6034 17.3472L51.8823 19.7207C50.4532 19.9999 49.2681 19.9999 49.059 19.9999C46.2008 19.9999 44.1792 18.2896 44.1792 15.4624C44.1792 12.7399 45.9568 11.0645 49.1287 11.0645C50.3138 11.0645 51.464 11.239 52.0566 11.4135L51.6383 13.6823Z" fill="#2F80ED"/>
<path d="M59.6548 13.6823C59.3062 13.6125 58.5393 13.4729 57.7727 13.4729C56.3436 13.4729 55.5071 14.3454 55.5071 15.4973C55.5071 16.6142 56.0299 17.4519 57.7379 17.4868C58.5742 17.4868 59.3411 17.3821 59.6199 17.3472L59.8988 19.7207C58.4696 19.9999 57.2847 19.9999 57.0756 19.9999C54.2174 19.9999 52.1958 18.2896 52.1958 15.4624C52.1958 12.7399 53.9734 11.0645 57.1453 11.0645C58.3302 11.0645 59.4805 11.239 60.0731 11.4135L59.6548 13.6823Z" fill="#2F80ED"/>
<path d="M22.6035 11.4136C22.1504 9.59858 20.6167 7.01567 15.8067 7.01567C14.7959 7.01567 12.1817 7.29492 11.7285 7.26001C11.7634 7.12041 12.2514 5.72424 12.3211 5.54971C12.0423 5.37519 11.1708 5.20067 9.98574 5.16577C7.16248 5.09596 3.78146 6.28269 1.69012 7.85338C1.44613 8.58635 0.993013 9.70327 0.749023 10.3665C2.94493 9.21464 6.1865 8.02789 8.62637 7.78355C10.3343 7.60904 10.9617 7.95807 11.136 8.02789C11.3451 8.13264 9.70694 8.69109 9.7418 9.35424C9.7418 10.1221 13.1228 9.24955 15.2838 9.31932C19.1179 9.45898 20.791 10.7853 21.3836 12.6352C22.1504 14.9738 20.7561 17.2077 19.0831 18.0453C21.1744 17.5916 23.3703 14.5898 22.6035 11.4136Z" fill="#ED1B2E"/>
<path d="M9.98574 5.23553C11.1709 5.27044 12.0423 5.41005 12.3211 5.61948C12.2514 5.79401 11.7983 7.15527 11.7285 7.32978C12.1817 7.36469 14.8307 7.08544 15.8067 7.08544C20.6167 7.08544 22.1504 9.66835 22.6035 11.4833C22.7429 11.972 22.7778 12.4956 22.7429 12.9842C23.0218 11.6579 23.0217 10.0523 22.8824 9.17967C22.6035 7.39955 21.0001 4.85159 16.6083 4.81668C15.5975 4.81668 12.9833 5.09592 12.5303 5.06101C12.5651 4.9214 13.0531 3.52524 13.1228 3.35072C12.8439 3.1762 12.112 2.89696 10.9269 2.86206C8.10357 2.79225 4.72257 3.97899 2.59638 5.51476C2.35239 6.21287 1.93412 7.25995 1.65527 7.95807C3.78147 6.31755 7.16248 5.16572 9.98574 5.23553Z" fill="#00AEEF"/>
<path d="M22.8129 6.28262C22.4295 4.81664 20.861 2.47807 17.4452 2.44317C16.4344 2.40826 13.9596 2.61769 13.367 2.6875C13.4019 2.54788 13.8202 1.32624 13.8899 1.15172C13.6808 0.837582 12.9488 0.523447 11.7288 0.488543C8.90556 0.418735 5.55941 1.71018 3.43321 3.28086C3.18922 4.01385 2.59668 5.54963 2.59668 5.44491C4.68802 3.87423 8.10385 2.7224 10.9272 2.79221C12.1123 2.82711 12.8443 3.07144 13.1231 3.28086C13.0533 3.45538 12.6003 4.81664 12.5305 4.99116C12.9837 5.02606 15.6327 4.71193 16.6087 4.74683C21.0004 4.78174 22.6038 7.3297 22.8827 9.10982C22.9524 9.56359 22.9872 10.2268 22.9872 10.9598C23.2312 9.42399 23.1964 7.7137 22.8129 6.28262Z" fill="white"/>
<path d="M13.8549 1.15185C13.9246 0.942428 13.9944 0.732999 14.0292 0.663194C13.7504 0.418866 12.9836 0.0349219 11.8682 1.79193e-05C9.07973 -0.0697903 5.73358 1.22166 3.60739 2.79234C3.57253 2.93195 3.50282 3.10647 3.43311 3.28099C5.5593 1.74522 8.9403 0.45377 11.7288 0.488674C12.879 0.523578 13.6109 0.837714 13.8549 1.15185ZM22.7431 5.61957C22.3946 4.29321 20.8958 1.91974 17.4799 1.91974C16.2948 1.91974 14.1338 2.05935 13.5064 2.16407C13.4018 2.40839 13.3321 2.65273 13.3321 2.68763C13.9246 2.61782 16.4342 2.40839 17.445 2.4433C20.8609 2.51311 22.4294 4.85167 22.8128 6.28277C22.8825 6.59688 22.9522 6.94591 23.022 7.29494C22.9522 6.59688 22.8477 6.03842 22.7431 5.61957Z" fill="#00539F"/>
<path d="M7.05788 10.1222C6.04705 10.1571 5.00138 10.7156 4.23456 11.5882C3.60716 12.3211 3.29346 13.2287 3.29346 14.1362C3.29346 14.3107 3.29346 14.5201 3.32831 14.6946L3.36317 14.8691L3.53745 14.939C3.67687 14.9739 3.74658 15.0437 3.78143 15.1135C3.78143 15.1484 3.64201 15.4276 3.64201 15.4276L3.18889 16.4049C2.97975 16.9285 2.84033 17.5219 2.84033 18.1501C2.84033 18.7784 2.97975 19.3718 3.36317 19.8953L3.46774 20.035H5.94249L6.01219 19.7906C6.01219 19.7208 6.04705 19.651 6.04705 19.5463C6.04705 19.3369 6.0122 19.0925 5.90763 18.918C5.80306 18.7435 5.66364 18.6737 5.59393 18.6737C5.55907 18.6737 5.48936 18.6039 5.48936 18.4643V18.4294C5.52422 18.2549 5.76821 18.0803 6.25618 17.836C6.25618 17.836 6.29104 17.836 6.29104 17.8011C6.53502 18.185 6.74416 18.6039 6.88359 18.8133L7.12759 19.2322C7.33673 19.5463 7.61553 19.8255 7.9641 19.9651L8.03382 20.0001H10.648V19.651C10.648 19.0227 10.4737 18.6388 10.16 18.569L9.9509 18.5341C9.67205 18.4991 9.63719 18.4643 9.63719 18.3945C9.63719 18.3595 9.63719 18.3595 9.63719 18.3246C9.63719 18.185 9.67205 18.0105 9.74176 17.836C9.74176 17.836 9.77662 17.5917 9.84633 17.4171C10.1251 17.3473 10.4388 17.3125 10.7177 17.3125C10.648 17.6615 10.6131 18.0454 10.6131 18.3595C10.6131 18.7086 10.648 18.9878 10.648 19.1623V19.1973V19.2322C10.7177 19.5114 11.2057 19.8953 11.6239 20.035H11.6588H14.273L14.2381 19.7208C14.2032 18.9878 13.9942 18.6388 13.6107 18.6388C13.2273 18.6388 13.0879 18.4991 13.053 18.4294C13.053 18.3595 13.1924 18.1501 13.7153 17.6615C14.029 18.4643 15.1095 19.5812 15.8066 20.0001L15.8763 20.035H18.4905L18.4208 19.651C18.2814 19.0227 17.9676 18.6388 17.5494 18.569C17.0614 18.4643 16.8523 18.3945 16.7477 18.2199C16.678 18.1152 16.6083 17.7662 16.5386 17.487C16.4689 17.1728 16.3643 16.8587 16.2946 16.5794C16.2598 16.4747 16.2249 16.4049 16.19 16.3351C16.2249 16.37 16.2249 16.4049 16.2249 16.4049H16.3992C16.8871 16.37 18.1071 16.0559 18.5602 15.6021C18.8391 15.637 19.2922 15.637 19.5362 15.4974C19.6756 15.4276 19.9544 15.0786 20.0242 14.8342V14.7994C20.059 14.7994 20.0939 14.7645 20.1287 14.7645C20.5122 14.5201 20.9304 13.9966 20.9304 13.6475V13.6126C20.9304 13.473 20.8258 13.3334 20.6864 13.2985L20.5818 13.2635C20.303 13.1589 19.9893 13.0193 19.6407 12.9494C19.5362 12.4259 18.7694 12.1466 18.1419 11.9023C18.0374 11.658 17.7934 11.4137 17.4797 11.309C17.2008 11.2042 16.922 11.2391 16.678 11.3438C15.8415 10.925 14.0638 10.3317 13.053 10.2269L12.809 10.192L12.7393 10.4363C12.7045 10.5062 12.5999 10.7156 12.4256 10.7505C11.7285 10.8552 11.0314 10.7156 10.1948 10.541C9.28862 10.2967 8.31267 10.0873 7.05788 10.1222Z" fill="white"/>
<path d="M19.9547 14.4502C20.373 14.2059 20.7564 13.5776 20.5821 13.5078C20.2684 13.3682 19.7804 13.1588 19.3621 13.0889C19.4667 12.705 18.9788 12.4258 17.9331 12.0767C17.8634 11.6579 17.2011 11.2739 16.7132 11.6579C15.9812 11.2391 14.0293 10.6108 13.0184 10.4712C12.9487 10.6457 12.7745 10.9249 12.4608 10.9947C10.9271 11.2041 9.42829 10.3315 7.09298 10.4363C5.28048 10.506 3.32857 12.356 3.64227 14.6596C3.88626 14.7643 4.1651 14.9737 4.02568 15.253C3.92111 15.5323 3.71198 15.8464 3.43313 16.5095C3.15429 17.1727 2.80573 18.6736 3.57256 19.6858H5.62903C5.66389 19.5462 5.62903 18.9877 5.4199 18.9179C5.21077 18.883 5.03649 18.6387 5.07135 18.3245C5.14106 18.0104 5.4199 17.801 6.01245 17.5217C5.94274 17.0331 5.62904 16.5793 5.59418 16.4048C5.87302 16.3699 7.12784 18.7783 7.30212 19.0575C7.47641 19.3368 7.72035 19.5462 7.99921 19.6858H10.2299C10.2299 19.4764 10.2299 18.9179 9.98601 18.8481C9.67229 18.7783 9.28886 18.8132 9.21915 18.4293C9.14944 18.0802 9.35858 17.6265 9.46315 17.1029C9.98601 16.9284 10.6831 16.9633 10.9619 16.9284C10.7528 17.6614 10.7877 18.7085 10.8225 19.0924C10.8574 19.232 11.2059 19.5462 11.6242 19.6858H13.855C13.855 19.4764 13.7853 18.883 13.5064 18.883C12.9487 18.883 12.635 18.6038 12.6699 18.3595C12.7048 18.1151 13.0184 17.7661 13.5064 17.3472C13.6807 17.1727 14.2732 16.4397 14.5172 16.5444C14.2383 16.7189 14.099 17.1378 13.8898 17.4171C14.099 18.1151 15.2144 19.3019 15.9114 19.6858H18.1422C18.0725 19.4415 17.9331 18.9179 17.5148 18.8132C16.9571 18.7085 16.6783 18.6038 16.504 18.3245C16.3297 18.0453 16.1903 17.1378 15.9812 16.6492C15.6674 15.8464 15.5977 15.5322 15.9463 15.3577C15.9811 15.4275 16.26 15.8813 16.3646 16.0209C16.9571 15.986 18.2119 15.5671 18.421 15.2181C18.8045 15.253 19.2228 15.253 19.4318 15.1832C19.4667 15.1483 19.8153 14.7992 19.7107 14.6945C19.6758 14.6596 19.6061 14.6596 19.4667 14.6247C19.641 14.5898 19.8501 14.52 19.9547 14.4502Z" fill="#2F80ED"/>
<path d="M18.8745 13.473C18.7699 13.473 18.3516 13.7522 18.247 13.7522C18.1425 13.6126 17.7939 13.1239 18.9093 13.2287C19.0488 13.2287 18.9442 13.0542 18.8048 12.9843C18.5608 12.8796 18.1076 12.7051 17.5848 12.5306C17.4802 12.0419 16.9225 11.8325 16.7482 12.4259C16.086 12.0419 14.6569 11.5184 13.681 11.309C13.5416 11.4136 13.5416 11.7976 12.8444 11.9023C12.0079 12.0768 10.3348 11.5532 8.41779 11.309C6.5007 11.0995 5.00192 12.007 4.82764 13.7871C5.24591 13.7173 6.18701 13.6824 6.77956 14.4503C8.62693 16.7888 8.2435 17.6266 8.59207 17.8011C8.94059 16.9634 9.46344 15.1484 8.94059 14.1012C9.11487 14.0315 9.46344 14.2758 9.77716 14.5899C10.1257 14.939 10.7182 15.2182 11.2759 15.2182C11.4502 14.4503 12.3565 13.6824 12.5656 13.7522C12.0776 14.5201 11.8685 15.0088 11.5896 15.9512C11.2411 17.0681 11.3805 18.3246 11.6245 18.3944C11.6942 18.0454 11.8336 17.3474 12.4262 16.4398C13.2976 15.0088 14.9706 13.822 16.2254 14.1362C15.842 14.206 15.5632 14.555 15.4934 14.7295C15.9814 14.8342 16.1906 15.0436 16.3997 15.2531C16.8528 14.8691 17.6894 14.9739 18.247 14.6946C18.2122 14.555 18.2819 14.3456 18.5608 14.3107C18.9093 14.2758 19.3973 14.4154 19.711 14.2409C19.8504 14.1711 20.0944 13.857 20.1293 13.6475C19.9201 13.5777 19.4321 13.473 18.8745 13.473Z" fill="white"/>
</g>
</g>
<defs>
<clipPath id="clip0_56_3389">
<rect width="78.2857" height="20" fill="white" transform="translate(0.714355)"/>
</clipPath>
</defs>
</svg>
