<svg width="39" height="50" viewBox="0 0 39 50" fill="none" xmlns="http://www.w3.org/2000/svg">
<g clip-path="url(#clip0_540_3865)">
<path d="M38.9713 0H0.0407222C0.0214978 0.0283139 0.00962385 0.0628567 0.00962385 0.100231C-0.00338091 9.62218 1.16386e-05 17.8598 0.00227334 26.5901C0.00340418 30.4782 0.00510046 34.4642 0.00510046 38.7039C-0.0186474 43.0467 3.98173 44.4539 5.1171 44.4652C7.4998 44.4652 10.2964 44.4539 12.0057 44.4476C12.7577 44.4443 13.2994 44.4426 13.5023 44.4426C15.5141 44.4426 18.9462 45.143 19.3245 49.8233C19.3245 49.8352 19.3256 49.8471 19.3279 49.8579C19.3364 49.9094 19.3664 49.9496 19.4082 49.9739C19.4353 49.9909 19.467 50.0006 19.5009 50.0006C19.5897 50.0006 19.6638 49.9349 19.6762 49.8488C19.6768 49.8437 19.6773 49.8386 19.6779 49.8335C19.6779 49.8318 19.6779 49.8301 19.6779 49.8278C20.0579 45.1374 23.49 44.4369 25.5023 44.4369C25.7053 44.4369 26.2464 44.4392 26.9985 44.442C28.7083 44.4488 31.5055 44.4595 33.8904 44.4595C35.0247 44.4482 39.025 43.041 39.0018 38.6994C39.0018 34.501 39.0035 30.5523 39.0041 26.7011C39.0069 17.9272 39.0098 9.65785 38.9968 0.094002C38.9968 0.0594591 38.9866 0.0277476 38.9696 0.000566277L38.9713 0Z" fill="#212121"/>
<path fill-rule="evenodd" clip-rule="evenodd" d="M39.004 26.7011L39.0041 26.4404C39.0069 17.7632 39.009 9.54919 38.9961 0.0801258C38.9931 0.0570202 38.9848 0.0272799 38.9738 0.00783825L38.9712 0.00333309L38.9695 0.000566483L38.9712 0H0.0406004C0.0213757 0.0283136 0.00950201 0.0628567 0.00950201 0.100231C-0.00259058 8.95404 -0.00050585 16.6975 0.00166471 24.759L0.00299747 29.3027L0.00299805 29.3045C0.00397538 32.3349 0.00497825 35.4444 0.00497825 38.7039C-0.0187692 43.0467 3.98161 44.4539 5.11698 44.4652C7.26554 44.4652 9.75065 44.456 11.4716 44.4496L12.0055 44.4476C12.7576 44.4443 13.2992 44.4426 13.5022 44.4426C15.4168 44.4426 18.6178 45.077 19.2487 49.1724C19.2686 49.3015 19.2859 49.434 19.3006 49.57C19.3085 49.6437 19.3156 49.7183 19.322 49.794L19.3233 49.8097L19.3244 49.8233L19.3244 49.8278L19.3247 49.8335L19.3251 49.8393L19.3262 49.8487L19.3278 49.8579C19.3363 49.9094 19.3662 49.9496 19.4081 49.9739C19.4352 49.9909 19.4669 50.0006 19.5008 50.0006C19.5896 50.0006 19.6636 49.9349 19.6761 49.8488L19.6778 49.8335V49.8278L19.6782 49.8233L19.6801 49.7999L19.6815 49.7835C19.6876 49.7118 19.6945 49.6411 19.702 49.5713C19.7168 49.4348 19.7342 49.3019 19.7542 49.1725C20.3877 45.071 23.5876 44.4369 25.5022 44.4369C25.6646 44.4369 26.0434 44.4383 26.5734 44.4404L26.9983 44.442C28.7082 44.4488 31.5053 44.4595 33.8903 44.4595C35.0245 44.4482 39.0249 43.041 39.0017 38.6994C39.0017 36.1405 39.0024 33.6744 39.003 31.2666V31.2634V31.2601V31.2569L39.003 31.155L39.003 31.1012L39.003 31.052C39.0034 29.583 39.0038 28.1353 39.004 26.7011ZM36.5709 42.8103C35.5077 43.6467 34.3306 43.9542 33.8874 43.9595C33.5781 43.9595 33.2618 43.9594 32.9419 43.959C30.797 43.9568 28.4876 43.9479 27.0002 43.942L26.5762 43.9404L26.5716 43.9404C26.0437 43.9383 25.6652 43.9369 25.5022 43.9369C25.3245 43.9369 25.1348 43.9421 24.936 43.9547C23.9581 44.0168 22.7612 44.2594 21.703 44.9558C20.747 45.5849 19.9411 46.56 19.5015 48.0185C19.0625 46.562 18.2565 45.5882 17.3005 44.96C16.1567 44.2084 14.8509 43.986 13.8349 43.9486C13.7201 43.9444 13.609 43.9426 13.5022 43.9426C13.298 43.9426 12.7554 43.9443 12.0037 43.9477L11.4646 43.9496C9.7444 43.956 7.26439 43.9652 5.11958 43.9652C4.67555 43.9597 3.49845 43.6521 2.43545 42.8159C1.39746 41.9993 0.494072 40.6997 0.504978 38.7066V38.7039C0.504978 35.443 0.503975 32.3322 0.502997 29.3007L0.501665 24.7589C0.499527 16.8188 0.497472 9.18736 0.508965 0.5H38.4972C38.5094 9.79774 38.5068 17.8869 38.5041 26.44L38.504 26.701C38.5038 28.1876 38.5034 29.6889 38.503 31.2134L38.503 31.2566V31.2596V31.2626C38.5024 33.6717 38.5017 36.1392 38.5017 38.6994L38.5017 38.702C38.5124 40.6945 37.6089 41.9939 36.5709 42.8103Z" fill="#FFEC00"/>
<path fill-rule="evenodd" clip-rule="evenodd" d="M18.1003 3.18506L19.1871 4.73383L18.0681 6.26051L19.6151 5.17212L21.1378 6.29222L20.0516 4.74289L21.1695 3.21677L19.6242 4.30515L18.1003 3.18506Z" fill="#FFEC00"/>
<path d="M21.3827 6.54232L19.6146 5.24158L17.8188 6.50495L19.1176 4.73307L17.8561 2.93457L19.6253 4.23531L21.42 2.97194L20.1218 4.74383L21.3832 6.54232H21.3827ZM19.6157 5.10228L20.893 6.0423L19.9815 4.74269L20.9196 3.46177L19.6231 4.37461L18.3441 3.43459L19.2561 4.73477L18.3175 6.01568L19.6157 5.10228Z" fill="#E67321"/>
<path fill-rule="evenodd" clip-rule="evenodd" d="M29.9138 8.34131L31.0006 9.89064L29.8821 11.4168L31.4291 10.3284L32.9518 11.4485L31.8657 9.8997L32.9835 8.37302L31.4376 9.4614L29.9138 8.34131Z" fill="#FFEC00"/>
<path d="M33.1961 11.6986L31.428 10.3978L29.6322 11.6612L30.931 9.88932L29.6695 8.09082L31.4387 9.39156L33.2334 8.12819L31.9352 9.90008L33.1966 11.6986H33.1961ZM31.4297 10.2585L32.707 11.1985L31.7955 9.89894L32.7336 8.61859L31.437 9.53143L30.158 8.59141L31.0701 9.89158L30.1315 11.1725L31.4297 10.2591V10.2585Z" fill="#E67321"/>
<path fill-rule="evenodd" clip-rule="evenodd" d="M34.047 20.2632L35.1338 21.8125L34.0154 23.3386L35.5618 22.2503L37.0845 23.3703L35.9983 21.8216L37.1167 20.2955L35.5709 21.3838L34.047 20.2632Z" fill="#FFEC00"/>
<path d="M37.3293 23.6204L35.5612 22.3197L33.7654 23.5831L35.0642 21.8112L33.8028 20.0127L35.572 21.3134L37.3666 20.0501L36.0684 21.8219L37.3299 23.6204H37.3293ZM35.5629 22.1804L36.8402 23.1204L35.9288 21.8208L36.8668 20.5399L35.5703 21.4527L34.2913 20.5127L35.2033 21.8129L34.2647 23.0938L35.5629 22.1804Z" fill="#E67321"/>
<path fill-rule="evenodd" clip-rule="evenodd" d="M29.9573 32.2168L31.0441 33.7661L29.9257 35.2922L31.4721 34.2039L32.9948 35.324L31.9086 33.7746L33.027 32.2485L31.4811 33.3369L29.9573 32.2168Z" fill="#FFEC00"/>
<path d="M33.2396 35.5741L31.4715 34.2733L29.6757 35.5367L30.9745 33.7648L29.713 31.9663L31.4822 33.267L33.2769 32.0037L31.9787 33.7756L33.2402 35.5741H33.2396ZM31.4732 34.134L32.7505 35.074L31.839 33.7744L32.7771 32.4941L31.4806 33.4069L30.2016 32.4669L31.1136 33.7671L30.175 35.048L31.4732 34.1346V34.134Z" fill="#E67321"/>
<path fill-rule="evenodd" clip-rule="evenodd" d="M18.0597 37.7886L19.1464 39.3379L18.028 40.864L19.575 39.7756L21.0977 40.8957L20.0115 39.347L21.1294 37.8209L19.5841 38.9087L18.0597 37.7886Z" fill="#FFEC00"/>
<path d="M21.3419 41.1458L19.5739 39.8451L17.7781 41.1085L19.0763 39.3366L17.8148 37.5381L19.584 38.8388L21.3787 37.5755L20.0805 39.3473L21.3419 41.1458ZM19.5756 39.7058L20.8529 40.6458L19.9414 39.3462L20.8794 38.0659L19.5829 38.9787L18.3039 38.0387L19.2159 39.3388L18.2773 40.6198L19.5756 39.7064V39.7058Z" fill="#E67321"/>
<path fill-rule="evenodd" clip-rule="evenodd" d="M6.24001 32.3799L7.32675 33.9292L6.20834 35.4553L7.75478 34.367L9.27803 35.487L8.19129 33.9383L9.3097 32.4116L7.76383 33.5L6.24001 32.3799Z" fill="#FFEC00"/>
<path d="M9.5223 35.7371L7.75422 34.4364L5.95844 35.6998L7.25722 33.9279L5.99575 32.1294L7.76497 33.4301L9.55962 32.1668L8.26141 33.9387L9.5223 35.7371ZM7.75592 34.2971L9.03321 35.2371L8.12175 33.9375L9.05979 32.6572L7.76327 33.57L6.48428 32.63L7.39631 33.9302L6.4577 35.2111L7.75592 34.2977V34.2971Z" fill="#E67321"/>
<path fill-rule="evenodd" clip-rule="evenodd" d="M1.82123 20.2627L2.90798 21.812L1.789 23.3381L3.336 22.2498L4.85869 23.3699L3.77251 21.8211L4.89035 20.295L3.34505 21.3828L1.82123 20.2627Z" fill="#FFEC00"/>
<path d="M5.10351 23.62L3.33543 22.3192L1.53964 23.5826L2.83842 21.8107L1.57696 20.0122L3.34617 21.3129L5.14083 20.0496L3.84262 21.8215L5.10408 23.62H5.10351ZM3.33656 22.1799L4.61385 23.1199L3.70239 21.8203L4.64043 20.54L3.34391 21.4528L2.06492 20.5128L2.97695 21.813L2.03835 23.0939L3.33656 22.1805V22.1799Z" fill="#E67321"/>
<path d="M32.4921 13.1476L33.0083 12.5949L33.1163 12.7733L34.4349 10.7205L32.4734 12.2314L32.6589 12.3055L31.8713 13.1493L28.01 13.1561H28.0038C27.4564 13.1867 26.9679 13.403 26.5506 13.8C25.9665 13.7258 25.314 13.7037 24.6095 13.7348C24.393 13.7445 24.251 13.6567 24.1012 13.5638C24.0622 13.5395 24.0215 13.514 23.9802 13.4913C23.4306 13.1901 22.8505 13.1521 22.1624 13.3752C22.1341 13.2733 22.112 13.1272 22.1013 13.0559C22.0911 12.9766 22.0838 12.8933 22.0764 12.8129C22.0764 12.8107 22.0764 12.8084 22.0759 12.8061C22.1267 12.805 22.1799 12.8095 22.241 12.8203L22.3026 12.8316L22.3444 12.7846C22.4078 12.7138 22.4451 12.6725 22.4818 12.6306C22.5191 12.5887 22.5565 12.5468 22.6204 12.476C22.6792 12.4109 22.6701 12.3254 22.6526 12.2591L22.6577 12.258C22.7922 12.2206 22.8906 12.1589 22.9574 12.0711L22.9658 12.0581C23.0512 11.9058 23.1937 11.7687 23.3447 11.6232L23.4057 11.5637V11.5162C23.4069 11.4442 23.3701 11.3786 23.2972 11.3197L23.27 11.2976L23.235 11.2947C23.1179 11.2862 22.9856 11.28 22.8488 11.3044C22.8454 11.2636 22.8426 11.224 22.8392 11.1855C22.8007 10.6871 22.7753 10.3576 22.4807 10.1684C22.0086 9.86489 21.5127 9.83488 21.0451 9.85244C20.8992 9.77316 20.7618 9.77769 20.6369 9.86546L20.6278 9.87226C20.5238 9.96173 20.4152 10.0654 20.3343 10.2613L20.3208 10.2896C20.2818 10.3728 20.2659 10.4074 20.1856 10.4895C20.0126 10.6481 19.8481 10.8836 19.7514 11.0518C19.7163 11.1124 19.7237 11.1888 19.7684 11.2421C19.7831 11.2596 19.7995 11.2778 19.8153 11.2959C19.8272 11.3089 19.8385 11.3219 19.8498 11.3349L19.8175 11.5649L19.7774 11.5569L19.7333 11.7631C19.709 11.7659 19.6847 11.7704 19.6592 11.7783L19.636 11.7857L19.618 11.8021C19.4941 11.9143 19.5037 12.2274 19.5467 12.3254L19.5518 12.3373L19.5597 12.3475C19.6202 12.4296 20.0573 12.6329 20.2902 12.7325C20.2478 12.8565 20.2337 12.9013 20.2201 12.9443C20.2071 12.9851 20.1941 13.0276 20.1545 13.1425C20.0782 13.1119 20.0041 13.0757 19.9284 13.0315C19.8147 12.9556 19.7101 12.8582 19.5993 12.7552C19.3369 12.5111 19.0401 12.2342 18.5397 12.1889C18.1778 12.16 17.8222 12.254 17.6825 12.2971C17.2935 12.2019 16.779 12.1815 16.2265 12.2393C15.9744 12.2387 15.8958 12.1057 15.7957 11.9375C15.7731 11.8995 15.7499 11.8605 15.725 11.8242C15.5017 11.4839 15.2195 11.2262 14.7762 10.8695C14.5116 10.6565 14.2973 10.3547 14.0904 10.0631C14.0632 10.0252 14.0367 9.98721 14.0089 9.94927L14.0169 9.94304L14.0265 9.92888C14.178 9.70917 14.1763 9.5155 14.1497 9.39432L14.1882 9.37167C14.5648 9.15138 15.1036 8.78953 15.4372 8.19381C15.8952 7.4837 16.1101 7.44236 16.4991 7.36705L16.5443 7.35799C17.0724 7.29909 17.4665 7.4282 17.9647 7.59186C18.097 7.63546 18.2344 7.6802 18.3825 7.72437C19.6315 8.09641 20.5933 7.99731 21.4098 7.41178C21.537 7.32061 21.5427 7.16998 21.4833 7.07485C21.4222 6.97631 21.3052 6.94404 21.2057 6.99783C20.5249 7.36648 19.9255 7.4786 19.2629 7.36138C18.8156 7.28267 18.4475 7.15243 18.0913 7.02615C17.7583 6.90836 17.4439 6.79737 17.0815 6.72998C16.9842 6.7113 15.7878 6.50121 15.2048 7.3914C15.1307 7.50522 15.0606 7.61961 14.9934 7.73003C14.7169 8.18362 14.4551 8.61229 13.927 8.90279C13.8161 8.7465 13.6148 8.77708 13.5018 8.79463C13.3757 8.80822 13.2524 8.85862 13.1687 8.92884C13.167 8.9277 13.1648 8.92657 13.1631 8.92544L13.1433 8.91581C13.1303 8.91128 13.0138 8.87108 12.8832 8.94413L12.8781 8.94696C12.8357 8.97357 12.7922 9.01208 12.7712 9.06418C12.7209 9.05908 12.6548 9.06588 12.5835 9.11344L12.5784 9.11684C12.5066 9.17007 12.4738 9.23689 12.4648 9.29862C12.428 9.30258 12.3862 9.31617 12.3409 9.34788L12.3364 9.35128C12.2703 9.40281 12.2363 9.47077 12.2375 9.54438C12.2081 9.55061 12.1758 9.56307 12.1419 9.58515C12.0407 9.65141 12.0237 9.77655 12.0622 9.87395L12.0599 9.88698L12.0825 9.92322C12.108 9.96399 12.1453 10.015 12.1877 10.0705C11.7716 10.3219 11.356 10.3938 10.9172 10.4697L10.859 10.4799C10.2217 10.5903 9.42845 10.7279 8.91278 11.8712C8.60406 12.5558 8.64477 13.2733 8.68378 13.9676C8.69396 14.1459 8.70414 14.33 8.70809 14.5084C8.72393 15.2457 8.45083 15.7666 7.76553 16.3074C7.65584 16.3941 7.62926 16.5419 7.70447 16.6449C7.74235 16.697 7.80568 16.7321 7.88371 16.7321C7.94477 16.7321 8.01545 16.7106 8.09122 16.6585C9.03717 16.0096 9.38547 15.3527 9.33402 14.317C9.30122 13.4489 9.26334 12.4647 9.753 11.8622C10.172 11.3282 10.5949 11.2024 11.1926 11.0711C11.7077 10.9578 12.1289 10.7653 12.5168 10.4668C12.5213 10.4719 12.5247 10.4759 12.5258 10.477L12.5598 10.5161H12.5784C12.6095 10.5376 12.6485 10.5586 12.6938 10.5835C12.7882 10.635 12.9052 10.699 12.9629 10.7698L13.4905 11.4873C14.0304 12.2716 14.506 12.8922 14.9068 13.3345C15.1788 13.6216 15.4361 13.7331 15.889 13.7603C16.174 13.783 16.4612 13.8124 16.7394 13.8407C16.9486 13.8622 17.1634 13.8838 17.3783 13.903C17.2042 14.4523 17.1284 14.8725 17.2799 15.1239C17.2658 15.2377 17.2403 15.4104 17.2138 15.5928C17.1844 15.7955 17.1533 16.0045 17.1352 16.1534C16.563 16.4564 16.3662 16.603 15.8873 17.1976C15.8268 17.2763 15.6826 17.359 15.5435 17.4388C15.4774 17.4768 15.4089 17.5159 15.3462 17.5561C15.0686 17.726 14.8514 17.8856 14.6626 18.0584L14.6564 18.0629C14.6501 18.0674 14.6439 18.0719 14.6377 18.077L14.6303 18.0838C14.4172 18.2837 14.2051 18.5142 13.9993 18.7685C13.9207 18.6988 13.5719 18.3868 13.1597 17.9666L12.3749 17.1149C12.2731 17 12.1787 16.893 12.0922 16.795C11.7603 16.4179 11.5595 16.1896 11.4493 16.1166C11.2039 15.9597 10.9308 15.9495 10.6379 16.0866L10.626 16.0928C10.3846 16.2434 10.1347 16.3918 9.88305 16.5345L9.88135 16.5322C9.88135 16.5322 9.82933 16.5628 9.74056 16.6132C9.27126 16.8748 8.78499 17.124 8.29647 17.3522C8.09065 17.4439 7.9001 17.5221 7.73443 17.5816L7.7056 17.5906C7.56141 17.6348 7.36408 17.6942 7.2476 17.9151C7.0842 18.1422 6.53234 18.8245 6.14955 19.1462C5.84479 19.4078 5.6107 19.8959 5.5813 20.3331L5.57169 20.4752L5.71191 20.4526C5.72322 20.4509 6.85576 20.2714 7.38557 20.448L7.45059 20.4696L7.49978 20.422C7.51053 20.4118 7.75875 20.1655 7.75479 19.5471V19.5261L7.74687 19.5063C7.73726 19.4814 7.72369 19.4565 7.71012 19.4304C7.66998 19.3551 7.6434 19.2985 7.66489 19.2543C7.69994 19.183 7.73104 19.1405 7.85091 19.1422C7.94308 19.1439 8.04033 19.17 8.12571 19.1926C8.1913 19.2102 8.24727 19.2249 8.2959 19.2277L8.35357 19.2305L8.38976 19.1852C8.48984 19.0601 8.72788 18.6773 8.87716 18.3857C8.97384 18.2549 9.3295 17.9355 10.5864 17.645L11.8066 19.5896C11.1553 19.153 10.522 18.6552 10.207 18.3279C10.0849 18.1829 9.92149 18.1031 9.74621 18.1031C9.74508 18.1031 9.74339 18.1031 9.74226 18.1031C9.59242 18.1042 9.45332 18.1654 9.37134 18.2673C9.21189 18.4644 9.17457 18.6637 9.21698 19.0873C9.25882 19.5069 9.16722 20.8835 9.16609 20.8971V20.9039V20.9169C9.12707 21.5279 9.08297 22.2205 9.07505 22.9538C9.06544 23.276 9.07619 23.6486 9.31875 23.9963L10.1991 25.3305L10.2053 25.339C10.2144 25.3503 10.4349 25.621 10.8957 25.7648C11.3107 25.8939 11.7574 25.9919 11.935 25.9919H12.1679L12.0237 25.8084C11.9022 25.6538 11.4685 24.8435 11.2163 24.0416L11.1988 23.9856L11.1428 23.968C11.0337 23.9335 10.9313 23.921 10.8341 23.9318C11.045 23.8361 11.2146 23.6753 11.2338 23.5252L11.2457 23.4652L11.196 23.4255C11.1592 23.391 10.8997 23.0943 10.6283 22.6095C10.44 22.2732 10.3767 21.9 10.3427 21.699L10.3337 21.648C10.3054 21.3207 10.2839 21.016 10.3043 20.7017C10.6322 21.1242 11.0116 21.6191 11.2361 21.9351C11.5448 22.3694 11.9519 22.8762 12.1555 22.8434C12.2844 22.8224 12.4218 22.8043 12.5535 22.8179L12.5767 22.8202L12.5841 22.8683C12.7435 23.9165 12.9855 25.0247 14.0163 26.0451C14.9792 26.9268 16.2096 27.6517 17.5118 28.4184C17.6966 28.5271 17.8821 28.6364 18.0676 28.7468L18.1439 28.7921L18.1377 30.0583C18.1365 30.2401 18.2095 30.4179 18.3378 30.5459C18.9281 31.1388 20.0098 32.2051 20.9094 32.9798C20.1495 33.0522 19.264 33.0681 18.5815 33.0194C18.2434 32.9747 17.9584 33.0239 17.7108 33.17L16.2899 34.1242C15.9942 34.2499 15.7601 34.4787 15.5955 34.802L14.999 35.8904H17.1748L17.1996 35.8111C17.2782 35.5592 17.1934 35.319 17.1069 35.1135C17.0877 35.0591 17.0724 34.9821 17.1069 34.9193C17.1431 34.8519 17.2262 34.8202 17.2895 34.8049C17.3924 34.7805 17.553 34.8213 17.7391 34.8683C17.8199 34.8887 17.903 34.9102 17.9952 34.9289C18.1298 34.9527 18.2796 34.8581 18.4798 34.6961L18.5227 34.6605H18.5233L18.8642 34.3773C18.8744 34.3694 18.8829 34.3632 18.8925 34.3558L18.9677 34.3116C18.8756 34.3875 18.784 34.4951 18.6777 34.635C18.4905 34.8813 18.2417 35.1101 17.9386 35.3134C17.7939 35.4108 17.6786 35.5507 17.5762 35.7534C17.419 36.0654 17.2816 36.3836 17.168 36.6996L17.1137 36.8503L17.9647 36.8559C18.3508 36.8588 18.7421 36.861 19.1113 36.8638H19.212L19.2244 36.7648C19.2301 36.7211 19.2781 36.3332 19.26 36.1838C19.2527 36.1237 19.2335 36.0637 19.2148 36.0059C19.1956 35.9471 19.1667 35.8576 19.182 35.8304C19.2075 35.7851 19.2561 35.7268 19.3918 35.7432C19.437 35.7489 19.5235 35.7766 19.6066 35.8038C19.8588 35.8859 20.02 35.9312 20.1285 35.8689C20.1664 35.8468 20.2054 35.8083 20.2642 35.7494C20.284 35.7296 20.3061 35.7081 20.327 35.6877C20.3293 35.6854 20.5515 35.4861 20.7081 35.3836C20.7675 35.3462 20.8155 35.3049 20.8619 35.2647C20.9591 35.1809 21.0598 35.0937 21.2956 35.0201C21.9729 34.8587 22.1245 34.8649 22.6243 34.8841L22.7199 34.8875C23.3933 34.9221 23.6506 34.9261 23.8456 34.8813C24.0656 34.8309 24.1911 34.738 24.2414 34.5874C24.2793 34.473 24.2731 34.3802 24.1351 34.1633C24.1182 34.1338 24.1029 34.1095 24.0865 34.0868C23.659 33.4741 23.1943 32.8699 22.6243 32.1853L21.9752 31.3472C22.7448 30.7911 23.4046 30.2056 23.9355 29.6053L24.5993 28.8544L24.5654 28.8788C24.6039 28.8261 24.6395 28.7712 24.67 28.71C24.6779 28.7395 24.6853 28.7672 24.6938 28.7916C24.7039 28.8227 24.7271 28.8578 24.752 28.881C25.1026 29.2095 25.314 29.4354 25.3016 29.8052C25.2841 30.2384 25.2349 30.743 25.188 31.2311C25.0901 32.2436 25.0359 32.875 25.1518 33.0902L25.1585 33.1032L26.0174 34.0177C25.9982 34.1049 25.9841 34.2023 25.9976 34.302L26.0016 34.3315L26.0197 34.3552C26.1684 34.5529 26.3618 34.7969 26.5489 35.0325C26.6948 35.216 26.8452 35.4057 26.973 35.5716L27.0544 35.6775L29.0447 33.5421L29.2579 33.311H28.2005L28.3809 33.1145C28.6823 32.7872 29.0679 32.3659 29.0679 32.3659L29.2828 32.1309L28.9678 32.1773C28.9576 32.179 27.971 32.3183 27.5593 31.9412C27.4044 31.7979 27.3677 31.1479 27.3439 30.718C27.3354 30.5686 27.3275 30.427 27.3162 30.3126C27.2704 29.8471 27.1438 29.7101 27.0606 29.6189C27.0516 29.6093 27.0431 29.6002 27.0358 29.5912L27.0278 29.5821C26.0853 28.6676 25.1077 27.9903 24.8696 27.83C24.9035 26.9772 24.5643 26.2467 23.7761 25.4704C23.0778 24.7823 22.3348 24.408 21.6167 24.0462C20.9128 23.6917 20.245 23.3553 19.6638 22.7483L19.5066 22.4481C19.0667 21.6066 19.0186 20.8376 19.3533 19.9656L23.6805 19.961C24.3257 19.9537 24.722 19.8376 25.05 19.559L25.5391 19.0431L28.0727 16.3306H28.8971L27.0505 18.3081L26.7513 18.3211L25.8472 19.2843L25.1382 20.0403L25.4277 20.0466L25.2343 20.2538L25.5809 20.546L25.7896 20.3229L25.845 20.5907L26.8616 19.5007L27.4643 18.8545L27.4078 18.5901L29.5174 16.3306L32.6747 16.3199L35.6404 13.1436L32.4881 13.1493L32.4921 13.1476ZM23.1411 15.9631H23.1174C23.2174 15.8295 23.309 15.6896 23.4052 15.5435C23.4589 15.462 23.5137 15.3787 23.5703 15.2961L25.275 15.2944C24.5219 16.0079 24.2861 16.0005 23.1411 15.9637V15.9631Z" fill="#E67321"/>
<path d="M29.1601 16.2189L27.1059 18.4189L26.8068 18.4319L26.6405 18.6092L26.9408 18.5956L26.8854 18.655L26.5851 18.6681L26.3827 18.8838L26.6841 18.8702L26.6292 18.9297L26.3273 18.9427L26.1249 19.1584L26.4274 19.1454L26.3725 19.2043L26.0695 19.2179L25.867 19.4337L26.1712 19.4201L26.1158 19.479L25.8111 19.4926L25.6086 19.7083L25.9145 19.6947L25.8591 19.7542L25.5532 19.7678L25.3989 19.932L25.6872 19.9382L25.4028 20.2429L25.5758 20.389L25.8602 20.0849L25.9157 20.3522L26.1192 20.1341L26.0621 19.8686L26.109 19.8182L26.1661 20.0837L26.3742 19.8606L26.3171 19.5956L26.364 19.5452L26.4212 19.8102L26.6287 19.5877L26.5721 19.3227L26.619 19.2723L26.6756 19.5373L26.8837 19.3147L26.8266 19.0497L26.8735 18.9993L26.9306 19.2643L27.1381 19.0412L27.0816 18.7768L27.1285 18.7264L27.1856 18.9908L27.3451 18.8198L27.2885 18.5548L29.4705 16.2178L29.1601 16.2189Z" fill="#FFEC00"/>
<path d="M14.1345 9.2743C14.5862 9.00985 15.051 8.65989 15.3433 8.13551C15.8488 7.35122 16.0988 7.33084 16.5307 7.24646C17.2307 7.16718 17.7136 7.40672 18.4181 7.61624C19.4054 7.91014 20.4299 7.97809 21.3476 7.32008C21.4816 7.22381 21.3781 7.0358 21.2633 7.0981C20.6595 7.42484 20.0256 7.61114 19.247 7.47354C18.3785 7.32008 17.8109 6.98031 17.0645 6.84214C16.9282 6.80873 15.8302 6.6496 15.3032 7.45428C14.9204 8.03925 14.6682 8.63554 13.9671 9.01324C13.9745 9.05175 13.9971 9.11631 14.0265 9.15991C14.0547 9.20181 14.0904 9.24202 14.1333 9.27373L14.1345 9.2743Z" fill="#FFEC00"/>
<path d="M8.0324 16.5672C8.99815 15.9052 9.27294 15.2636 9.22601 14.3236C9.18982 13.3768 9.16438 12.4152 9.66874 11.7946C10.1211 11.2187 10.5881 11.0913 11.1728 10.9627C11.6149 10.8659 12.0531 10.6938 12.4783 10.3602L12.3081 10.1343C11.8354 10.4378 11.3661 10.5097 10.8827 10.5935C10.2149 10.709 9.49968 10.8568 9.0202 11.9203C8.64419 12.755 8.80647 13.6475 8.82513 14.5082C8.84322 15.3395 8.49605 15.8809 7.83959 16.399C7.70615 16.5043 7.8051 16.7235 8.0324 16.5677V16.5672Z" fill="#FFEC00"/>
<path d="M22.777 30.2222C22.1901 30.5472 21.6461 30.7811 21.6461 30.7811C21.6461 30.7811 21.5958 30.8847 21.6292 30.9833C21.6586 31.0688 21.8129 31.2409 21.8627 31.2941C22.6136 30.7568 23.2943 30.1661 23.8564 29.5308C23.5861 29.7244 23.1954 29.99 22.777 30.2216V30.2222Z" fill="#FFEC00"/>
<path d="M24 34.153C23.529 33.478 23.0399 32.8556 22.5429 32.2588C22.8097 32.6835 23.2536 33.418 23.4278 33.8653L23.4289 33.8682L23.4402 33.8942L23.4498 33.9202L23.4572 33.9463L23.4617 33.9729V34.0001L23.4589 34.0273L23.4498 34.0539L23.4345 34.0782L23.4142 34.0998L23.3893 34.1173L23.3605 34.1309L23.3254 34.1422L23.2236 34.1496L23.1275 34.1564L23.0314 34.1626L22.9353 34.1688L22.8391 34.1745L22.743 34.1802L22.6469 34.1853L22.5508 34.1898L22.4547 34.1943L22.3585 34.1983L22.2624 34.2023L22.1663 34.2056L22.0702 34.209L21.974 34.2119L21.8779 34.2147L21.7818 34.2175L21.6857 34.2198L21.5896 34.2221L21.4934 34.2238L21.3973 34.2255L21.3012 34.2272L21.2051 34.2289L21.1089 34.23L21.0128 34.2311L20.9167 34.2323L20.8206 34.2334L20.7245 34.2345L20.6283 34.2357H20.5322L20.3405 34.2379L20.1947 34.2391V34.2402L19.2131 34.3076C19.0661 34.3438 18.936 34.4882 18.7715 34.7045C18.5662 34.9752 18.3044 35.2074 18.0053 35.4084C17.8595 35.5064 17.7616 35.6451 17.6808 35.8054C17.523 36.118 17.3896 36.4277 17.2782 36.7392C17.8719 36.7431 18.5221 36.7477 19.1158 36.7516C19.1158 36.7516 19.1678 36.3382 19.1514 36.1984C19.1345 36.0585 19.0265 35.8852 19.0864 35.7765C19.1464 35.6683 19.2527 35.6128 19.4087 35.6321C19.5648 35.6514 19.9623 35.8371 20.0754 35.772C20.1104 35.7516 20.1686 35.6876 20.2546 35.6044C20.2546 35.6044 20.4836 35.3982 20.6515 35.2884C20.8211 35.1819 20.8924 35.0285 21.269 34.9112C22.0074 34.7351 22.1482 34.7532 22.7295 34.7753C23.3644 34.8076 23.6392 34.8144 23.8241 34.7719C24.0548 34.7187 24.113 34.6275 24.1368 34.555C24.1588 34.4894 24.1786 34.4378 24.0407 34.2209C24.0277 34.1983 24.0135 34.1756 23.9977 34.1536L24 34.153ZM19.3516 35.3173C19.3804 35.2918 19.411 35.268 19.4426 35.2448C19.411 35.268 19.381 35.2918 19.3516 35.3173ZM19.5518 35.1712C19.5653 35.1627 19.5795 35.1553 19.5936 35.1474C19.5795 35.1553 19.5653 35.1632 19.5518 35.1712ZM19.7344 35.0732C19.7423 35.0692 19.7497 35.0653 19.7576 35.0619C19.7497 35.0653 19.7423 35.0698 19.7344 35.0732ZM19.9719 34.8059C19.9821 34.8048 19.9922 34.8036 20.003 34.8025C19.9928 34.8036 19.9821 34.8048 19.9719 34.8059ZM20.2461 34.8552C20.2433 34.8506 20.2393 34.8472 20.2359 34.8433C20.2399 34.8472 20.2433 34.8512 20.2461 34.8552ZM20.2173 34.828C20.2144 34.8263 20.2111 34.824 20.2082 34.8223C20.2116 34.824 20.2144 34.8263 20.2173 34.828ZM20.0968 34.939C20.1076 34.9356 20.1183 34.9322 20.1296 34.9294C20.1189 34.9322 20.1081 34.9356 20.0968 34.939Z" fill="#FFEC00"/>
<path d="M10.652 17.5295L12.0531 19.7623C12.0531 19.7623 12.7141 20.1236 13.0528 20.1842C13.1896 19.9419 13.387 19.4968 13.9343 18.8614C13.7766 18.7221 13.4407 18.4129 13.0805 18.046L12.294 17.1926C11.823 16.6614 11.5154 16.2962 11.3922 16.2141C11.1666 16.0697 10.9313 16.0781 10.6893 16.1908C10.4405 16.3454 10.1878 16.4961 9.9294 16.6422L9.94241 16.632C9.94241 16.632 9.88982 16.6631 9.79936 16.7146C9.33005 16.9763 8.84605 17.2243 8.34678 17.4582C8.15284 17.5448 7.95834 17.6252 7.77231 17.6926C7.63265 17.7362 7.45002 17.7792 7.34881 17.9769C7.18031 18.213 6.61715 18.9073 6.22757 19.2346C5.95786 19.4662 5.72717 19.9192 5.69833 20.3428C5.69833 20.3428 6.86311 20.1548 7.42571 20.3428C7.42571 20.3428 7.64961 20.127 7.64566 19.55C7.61343 19.4667 7.5043 19.3359 7.56763 19.2068C7.61569 19.1083 7.68071 19.0273 7.85769 19.0307C8.03467 19.0341 8.21504 19.1117 8.30664 19.1162C8.40276 18.9956 8.6408 18.6128 8.78555 18.3285C8.9156 18.1456 9.34249 17.8161 10.5955 17.5301C10.5955 17.5301 10.6356 17.5267 10.652 17.5301V17.5295Z" fill="#FFEC00"/>
<path d="M32.2377 13.2618L32.2365 13.255L33.027 12.4084L33.1186 12.5596L33.9871 11.2079L32.6996 12.1995L32.8545 12.2612L31.9256 13.2562L32.2365 13.2545L32.2303 13.2613L28.01 13.2686C27.4875 13.2975 27.0109 13.5019 26.5902 13.9187C25.9801 13.8372 25.3033 13.8173 24.6146 13.8479C24.2974 13.8621 24.1142 13.6939 23.9265 13.5908C23.2943 13.2443 22.6797 13.31 22.0962 13.5172C22.051 13.4368 22.0193 13.2669 21.9899 13.0699C21.9746 12.9498 21.9656 12.8258 21.9543 12.7046C22.0606 12.6848 22.1562 12.6887 22.2625 12.708C22.3897 12.5664 22.4112 12.541 22.5384 12.3994C22.5734 12.3609 22.5446 12.2827 22.5288 12.2374C22.5259 12.2261 22.5078 12.2216 22.4965 12.221C22.4536 12.2199 22.3377 12.2114 22.1296 12.1604C22.1296 12.1604 21.9379 12.1157 21.8508 12.0602C21.8333 12.0489 21.8344 11.9854 21.8536 11.9934C21.9922 12.0506 22.1318 12.0925 22.2755 12.1185C22.315 12.1253 22.4123 12.14 22.5225 12.1457C22.5344 12.1457 22.5469 12.1468 22.5593 12.1474C22.5825 12.148 22.6057 12.148 22.6294 12.1474C22.7301 12.1191 22.8137 12.0743 22.8691 12.0013C22.9681 11.8246 23.1338 11.67 23.2949 11.5143C23.2949 11.4786 23.2729 11.4429 23.2282 11.4073C23.0687 11.3954 22.9087 11.392 22.7493 11.4475C22.6933 10.8212 22.7103 10.4486 22.4219 10.2634C21.9786 9.97855 21.5053 9.9457 21.0191 9.96665C20.9145 9.9021 20.8121 9.88228 20.7041 9.95816C20.6018 10.0459 20.5108 10.1354 20.4407 10.307C20.3898 10.4146 20.3734 10.4627 20.2676 10.5709C20.111 10.7141 19.9533 10.9333 19.8526 11.1083C19.8413 11.1275 19.8436 11.1519 19.8577 11.1689C19.895 11.2125 19.938 11.2583 19.9719 11.3008C19.9589 11.3937 19.9459 11.4865 19.9329 11.5794L20.0211 11.6508L20.0392 11.6649L20.1336 11.7414C20.0454 11.7244 19.9567 11.7068 19.8684 11.6893C19.8554 11.7499 19.8424 11.8099 19.8294 11.8705C19.7757 11.8733 19.7367 11.8739 19.6971 11.8863C19.623 11.9532 19.623 12.2097 19.6536 12.2805C19.6898 12.3292 20.1512 12.5574 20.435 12.6689C20.2942 13.0738 20.3677 12.883 20.2269 13.2879C20.0907 13.2437 19.9759 13.1888 19.8718 13.1282C19.4715 12.8626 19.1967 12.362 18.534 12.302C18.1575 12.2714 17.782 12.3847 17.6893 12.4147C17.3116 12.3167 16.7988 12.2929 16.2362 12.3529C15.8477 12.3546 15.7719 12.0891 15.6345 11.8869C15.4259 11.5692 15.1658 11.3252 14.7095 10.9582C14.3912 10.7017 14.1452 10.3268 13.9094 9.99893C13.8738 9.94967 13.8891 9.90267 13.9377 9.86416C14.1305 9.58498 14.0316 9.36187 14.0129 9.32506C14.0118 9.32336 14.0112 9.3211 14.0101 9.3194C14.0101 9.3194 13.914 9.1801 13.88 9.05835C13.8376 8.89752 13.7359 8.87487 13.5187 8.90828C13.4028 8.92074 13.275 8.97567 13.2134 9.04929L13.2258 9.07194L13.1597 9.08326C13.1388 9.05212 13.1207 9.02947 13.1094 9.02267C13.1094 9.02267 13.0325 8.99436 12.9437 9.04362C12.8606 9.09572 12.8736 9.13763 12.8838 9.16651C12.8838 9.16764 12.8855 9.17047 12.8872 9.17273C12.8668 9.18293 12.8459 9.19312 12.8267 9.20331C12.8204 9.19708 12.8148 9.19199 12.8103 9.19029C12.8103 9.19029 12.7384 9.15065 12.6514 9.20841C12.5807 9.26107 12.5756 9.32733 12.5841 9.36357C12.562 9.38112 12.5411 9.39868 12.5225 9.41567C12.4987 9.40831 12.4608 9.40717 12.4116 9.44172C12.3466 9.49268 12.3523 9.54988 12.3636 9.58498C12.3404 9.61556 12.324 9.63991 12.3138 9.6569C12.2918 9.6518 12.2556 9.65124 12.2086 9.68182C12.1385 9.72769 12.16 9.82056 12.1849 9.85906C12.1849 9.86133 12.1838 9.86303 12.1838 9.86473C12.2878 10.0306 12.6163 10.4044 12.6163 10.4044H12.6225C12.6881 10.4667 12.9426 10.5595 13.0596 10.7045L13.5888 11.4248C14.1164 12.1916 14.597 12.8201 14.9945 13.2584C15.2252 13.5019 15.4468 13.6214 15.9031 13.6497C16.4516 13.6933 16.9882 13.759 17.5349 13.8049C17.3755 14.2851 17.2149 14.8519 17.4026 15.0977C17.3761 15.3338 17.2771 15.9488 17.246 16.228C16.654 16.5389 16.4736 16.6595 15.9823 17.2682C15.8765 17.4064 15.6215 17.5197 15.4101 17.6544C15.1579 17.809 14.9391 17.9642 14.7395 18.1477C14.7304 18.1545 14.7214 18.1607 14.7123 18.1675C14.4777 18.3878 14.264 18.6262 14.0751 18.8612C14.0638 18.8731 14.0525 18.8855 14.0412 18.8997C13.8229 19.1698 13.6239 19.4665 13.4667 19.7208C13.3638 19.8856 13.2813 20.0283 13.2219 20.137C13.1716 20.227 13.1365 20.2927 13.1201 20.3239C12.8538 20.321 12 19.8488 12 19.8488C11.2508 19.368 10.4892 18.7802 10.1284 18.4042C9.91189 18.1437 9.58733 18.1873 9.46407 18.3391C9.34138 18.4908 9.29105 18.6426 9.33402 19.0764C9.37756 19.5101 9.2837 20.9054 9.2837 20.9054V20.9185C9.24186 21.581 9.20058 22.2458 9.19323 22.9582C9.18362 23.2934 9.20228 23.6253 9.41827 23.935C9.71173 24.3795 10.0052 24.8241 10.2986 25.2692C10.2986 25.2692 10.5016 25.5223 10.9347 25.6576C11.3679 25.7924 11.7914 25.8796 11.9406 25.8796C11.8157 25.7205 11.3746 24.905 11.114 24.0766C10.9523 24.025 10.7911 24.0234 10.63 24.1236C10.578 24.0364 10.5339 23.9463 10.5163 23.9039C10.8194 23.8795 11.1083 23.6604 11.1276 23.5109C11.1032 23.4916 10.8245 23.1807 10.5356 22.6649C10.3184 22.277 10.2613 21.8528 10.2274 21.6625C10.1929 21.2605 10.1629 20.8528 10.2274 20.4105C10.5672 20.846 11.0637 21.4881 11.3345 21.8698C11.7721 22.4865 12.0667 22.7515 12.1431 22.7322C12.2855 22.709 12.428 22.6915 12.5711 22.7056C13.1393 22.4984 13.599 22.6954 14.0084 23.0805C13.5532 22.8851 13.1082 22.7543 12.7017 22.8517C12.8651 23.9265 13.1161 24.99 14.0989 25.9623C15.1913 26.9629 16.6653 27.7789 18.1315 28.6498C18.0653 28.3186 18.0975 28.0603 18.3418 27.9624C18.1987 28.1238 18.2163 28.4143 18.2615 28.7274L18.2632 28.7285V28.7393L18.2672 28.7665L18.2632 28.7631L18.257 30.0599C18.2564 30.2128 18.3164 30.3589 18.4238 30.467C19.2776 31.3244 20.3717 32.3816 21.1898 33.0657C20.3745 33.1619 19.3392 33.1885 18.5759 33.133C18.2445 33.0889 17.9844 33.1444 17.7735 33.2684C17.2986 33.5872 16.8242 33.906 16.3492 34.2254C16.0728 34.3398 15.8568 34.5504 15.7001 34.8574C15.5316 35.1643 15.3637 35.4712 15.1952 35.7781H17.0967C17.1612 35.5703 17.0945 35.3647 17.0068 35.1552C16.9316 34.9463 17.0029 34.7583 17.2681 34.6948C17.449 34.6518 17.7142 34.7537 18.0201 34.8177C18.1128 34.8341 18.2525 34.739 18.4125 34.6093L18.5035 34.534C18.5075 34.5306 18.5114 34.5272 18.5159 34.5238L18.7998 34.2894C18.901 34.2095 19.0022 34.1388 19.0978 34.0906C19.0978 34.0906 19.1617 34.0459 19.4574 34.0493C19.7531 34.0527 20.6159 34.0997 22.1318 34.0419C23.0631 33.9949 23.2559 34.0023 23.2288 33.8398C23.2158 33.7588 22.9376 33.1166 22.4242 32.3153L22.3806 32.2497L22.3292 32.1738L22.2772 32.0979L22.2246 32.0226L22.172 31.9473L22.1188 31.872L22.1053 31.8527L22.0651 31.7966L22.0108 31.7219L21.9566 31.6471L21.9017 31.5724L21.8463 31.4982L21.7903 31.424L21.736 31.3527L21.7032 31.3204L21.6688 31.2847L21.636 31.2485L21.6049 31.2117L21.576 31.1743L21.5494 31.1364L21.5257 31.0973L21.5053 31.0571L21.4889 31.0157L21.4771 30.9733L21.4703 30.9297L21.4692 30.8849L21.4737 30.8396L21.485 30.7938L21.5025 30.7479L21.5336 30.6907L21.5755 30.6703L21.6032 30.6573L21.6309 30.6443L21.6586 30.6312L21.6857 30.6182L21.7134 30.6052L21.7411 30.5922L21.7688 30.5791L21.796 30.5661L21.8237 30.5531L21.8514 30.5401L21.8791 30.527L21.9062 30.514L21.9339 30.501L21.9616 30.488L21.9893 30.4749L22.0165 30.4619L22.0442 30.4489L22.0719 30.4359L22.0996 30.4228L22.1267 30.4098L22.1545 30.3968L22.1822 30.3838L22.2099 30.3708L22.237 30.3577L22.2647 30.3447L22.2924 30.3317L22.3201 30.3187L22.3478 30.3056L22.375 30.2926L22.4027 30.2796L22.4287 30.2671L22.4897 30.2326L22.5519 30.1975L22.6136 30.1618L22.6752 30.1261L22.7363 30.0904L22.7973 30.0542L22.8578 30.018L22.9178 29.9817L22.9777 29.9449L23.0371 29.9081L23.0965 29.8713L23.1553 29.8339L23.2141 29.7965L23.2723 29.7592L23.33 29.7212L23.3876 29.6833L23.4448 29.6448L23.5019 29.6063L23.5584 29.5672L23.6149 29.5281L23.6709 29.4891L23.7263 29.4494L23.7817 29.4098L23.8366 29.3701L23.8909 29.3299L23.9452 29.2897L23.9989 29.249L24.0526 29.2082L24.1057 29.1674L24.1583 29.1261L24.2103 29.0847L24.2957 29.0162C24.5055 28.8458 24.6282 28.6244 24.7006 28.3157C24.7362 28.4369 24.7712 28.6453 24.8097 28.7608C24.8142 28.7744 24.8278 28.7942 24.838 28.8039C25.197 29.1408 25.4379 29.3917 25.4232 29.8152C25.3745 31.0016 25.093 32.7327 25.2592 33.0413C25.556 33.3573 25.8529 33.6733 26.1497 33.9893C26.1249 34.0901 26.1045 34.1914 26.1181 34.2922C26.381 34.6427 26.7785 35.128 27.0708 35.5074L28.0145 34.4944L28.1333 34.3664L28.1587 34.3392L28.2418 34.2503L28.9695 33.4694L29.0074 33.4286H27.9506L28.3057 33.0419C28.6071 32.7146 28.9927 32.2938 28.9927 32.2938C28.9927 32.2938 27.9484 32.4479 27.4915 32.0288C27.2461 31.8023 27.2608 30.8141 27.2122 30.3277C27.1635 29.8413 27.0295 29.7541 26.9572 29.6674C25.8744 28.617 24.7611 27.8927 24.7611 27.8927C24.8199 26.9408 24.3805 26.2211 23.7043 25.5551C22.2924 24.1644 20.6793 24.0709 19.4693 22.7C19.4693 22.7 19.4681 22.6784 19.4082 22.4984C19.4099 22.5006 19.4121 22.5023 19.4138 22.5046C18.9395 21.5974 18.9084 20.7837 19.2838 19.8567C20.7516 19.855 22.2189 19.8533 23.6868 19.8522C24.3907 19.8442 24.7215 19.7004 24.9844 19.4773L25.4644 18.9705L28.0315 16.2218H29.4767L29.4784 16.2206L32.6323 16.2104L33.5732 15.2025L35.3859 13.2607L32.2405 13.2664L32.2377 13.2618ZM25.4283 15.3044C24.5931 16.1108 24.3613 16.1164 23.1394 16.0774L22.885 16.074L22.9263 16.023C23.1366 15.7687 23.3079 15.4743 23.5103 15.1832C23.5103 15.1832 24.3839 15.1821 25.5283 15.1809L25.4283 15.3044Z" fill="#FFEC00"/>
<path d="M12.6214 10.4057C12.6214 10.4057 12.6157 10.4 12.6135 10.3978C12.5631 10.3349 12.592 10.2845 12.592 10.2845C12.7531 10.1254 12.8481 10.0478 13.024 10.0048C13.0545 9.99741 13.0867 10.0053 13.1099 10.0269C13.6233 10.5065 14.1062 10.9771 14.5721 11.4324C14.0983 10.9216 13.5685 10.4108 13.2445 9.90001C13.1732 9.75447 13.4062 9.5693 13.6148 9.40055C13.6352 9.35128 13.6555 9.28843 13.586 9.23916C13.4192 9.27484 13.3762 9.27824 13.3287 9.26578L13.2247 9.07324L13.1585 9.08457C13.223 9.1797 13.3169 9.35298 13.3327 9.38696C13.3559 9.45661 13.3559 9.53136 13.2892 9.55798C13.2224 9.58459 13.1602 9.55458 13.132 9.51437C13.1048 9.47643 12.9137 9.22274 12.8866 9.17347C12.8662 9.18367 12.8453 9.19386 12.8261 9.20405C12.8973 9.27257 13.1014 9.56987 13.1246 9.61177C13.154 9.68199 13.1472 9.75504 13.0811 9.78788C13.0144 9.82073 12.9228 9.79468 12.89 9.75504C12.8572 9.7154 12.601 9.40735 12.588 9.37847C12.5863 9.3745 12.5846 9.36941 12.5835 9.36431C12.5615 9.38186 12.5405 9.39942 12.5219 9.41641C12.54 9.42207 12.5501 9.43056 12.5501 9.43056C12.5993 9.45435 12.8204 9.74485 12.847 9.78958C12.8781 9.85924 12.8651 9.92492 12.7995 9.9589C12.7339 9.99344 12.6661 9.9623 12.6321 9.92379C12.5988 9.88528 12.385 9.63442 12.3715 9.60554C12.3692 9.60045 12.3664 9.59308 12.3636 9.58516C12.3404 9.61574 12.324 9.64009 12.3138 9.65707C12.3285 9.66047 12.337 9.66613 12.337 9.66613C12.3867 9.68879 12.5648 9.92322 12.5965 9.97476C12.6293 10.0438 12.6253 10.0903 12.5728 10.1243C12.5077 10.1605 12.4325 10.1435 12.3986 10.1056C12.3641 10.0682 12.2075 9.89887 12.1934 9.87113C12.1905 9.8683 12.1877 9.86377 12.1849 9.85924C12.1849 9.8615 12.1837 9.8632 12.1837 9.8649C12.2878 10.0308 12.6163 10.4046 12.6163 10.4046H12.6225L12.6214 10.4057Z" fill="#E67321"/>
<path d="M31.5897 14.6996C31.6389 14.6237 31.7034 14.5942 31.7458 14.4346C31.7622 14.4147 31.7769 14.3955 31.7899 14.3757C31.791 14.374 31.7921 14.3723 31.7933 14.3706C31.8068 14.3507 31.8181 14.3304 31.8278 14.3105C31.8453 14.2692 31.8736 14.1797 31.8515 14.0614C31.8249 13.9187 31.7967 13.8456 31.7559 13.7697L32.2303 13.2612L28.01 13.2686L31.9199 13.2618L31.5643 13.6429C31.5354 13.6418 31.5072 13.6406 31.4783 13.6395C31.3641 13.6338 31.251 13.6253 31.1374 13.6208C31.0803 13.6186 31.0237 13.6174 30.9666 13.618C30.9378 13.618 30.9095 13.6191 30.8807 13.6208C30.6375 13.6327 30.5098 13.7596 30.3978 13.9011C30.3486 13.9634 30.2932 14.0014 30.231 14.024C30.1598 14.0501 30.0806 14.0552 29.9935 14.0472C28.9441 13.9991 28.0145 14.0059 26.9685 13.9589L26.9668 13.96C27.0816 13.9679 27.1958 13.9753 27.3083 13.9827C27.3128 13.9827 27.3174 13.9832 27.3219 13.9838C27.3377 13.9849 27.353 13.9855 27.3688 13.9866C27.5769 13.9997 27.781 14.011 27.984 14.0217C28.1497 14.0308 28.3142 14.0393 28.4787 14.0478C28.606 14.0546 28.7332 14.0608 28.8604 14.0676C29.2432 14.088 29.6305 14.1101 30.0348 14.1384C30.0433 14.139 30.0523 14.1395 30.0614 14.1401C30.1032 14.1424 30.1479 14.1418 30.1942 14.1333C30.1976 14.1327 30.201 14.1322 30.2044 14.131C30.2276 14.1265 30.2514 14.1197 30.2757 14.1101C30.2841 14.1067 30.2932 14.1027 30.3017 14.0988C30.3379 14.0818 30.3746 14.0585 30.4119 14.0268C30.4436 13.9997 30.4758 13.9662 30.5086 13.9249C30.529 13.8989 30.5527 13.8722 30.5793 13.8468C30.637 13.7913 30.7105 13.742 30.8009 13.7165C30.8354 13.7069 30.8722 13.6995 30.9129 13.6984C30.9644 13.6967 31.0181 13.6961 31.0707 13.6967C31.182 13.6978 31.2917 13.7046 31.3816 13.7131C31.4207 13.7171 31.4563 13.721 31.4862 13.7256C31.4908 13.7261 31.4959 13.7267 31.4998 13.7273C31.562 13.7386 31.6219 13.7873 31.6677 13.8626C31.6841 13.8892 31.6988 13.9187 31.7113 13.9515C31.7559 14.071 31.7876 14.1786 31.7311 14.2539C31.6632 14.3445 31.5812 14.2811 31.5224 14.1724C31.5032 14.1373 31.4806 14.1106 31.4551 14.0903C31.3896 14.0387 31.3019 14.0302 31.1967 14.0353C31.1577 14.037 31.1165 14.041 31.0723 14.045C30.9836 14.1344 30.8954 14.2239 30.8117 14.3128C30.7642 14.3638 30.7178 14.4147 30.6754 14.4657C30.6472 14.4991 30.6144 14.5274 30.5776 14.5501C30.5182 14.5863 30.4498 14.6067 30.3786 14.6084C30.3769 14.6084 30.3746 14.6084 30.3729 14.6084C30.3707 14.6084 30.3684 14.6084 30.3667 14.6084C30.2406 14.6101 30.1089 14.6129 29.9743 14.6152C29.5632 14.6231 29.1262 14.6328 28.7422 14.6384C28.9933 14.6514 29.2975 14.6628 29.5757 14.6735C29.626 14.6758 29.6758 14.6775 29.7238 14.6798C29.7662 14.6815 29.8081 14.6832 29.8488 14.6849C29.9262 14.6882 29.9986 14.7052 30.0631 14.7352C30.0795 14.7426 30.0947 14.7511 30.11 14.7602C30.1552 14.7873 30.1959 14.8213 30.231 14.8627C30.2615 14.8989 30.2875 14.9408 30.3079 14.9884C30.3316 15.0444 30.348 15.1067 30.3548 15.1769C30.2864 15.1769 30.2118 15.1769 30.132 15.1769C29.0679 15.1769 27.0561 15.1792 25.5284 15.1803L25.4283 15.3038C25.4334 15.2987 25.439 15.2936 25.4441 15.2885L30.0325 15.2834L29.1618 16.2155H28.5811L29.4728 16.2161L29.4745 16.2149H29.4722L30.343 15.2828H30.8614L30.8801 15.2823C30.8988 15.2772 30.9169 15.2709 30.9349 15.2636C30.9689 15.2494 31.0017 15.2302 31.0328 15.2041C31.0373 15.2002 31.0424 15.1968 31.0469 15.1928C31.0571 15.1832 31.0667 15.1735 31.0769 15.1639C31.1295 15.126 31.2058 15.1067 31.3081 14.985C31.4625 14.9182 31.5303 14.8513 31.5897 14.6996ZM31.1685 14.1752C31.2013 14.1152 31.2714 14.1231 31.3347 14.1525C31.3421 14.1571 31.3556 14.1661 31.3737 14.1786C31.458 14.2369 31.6349 14.3672 31.6525 14.4051C31.6525 14.4051 31.6711 14.481 31.6146 14.5591C31.5558 14.6316 31.5179 14.6146 31.4919 14.6022C31.4693 14.5908 31.2844 14.4147 31.2143 14.349C31.2041 14.3394 31.1962 14.3321 31.1917 14.3281C31.1572 14.297 31.1357 14.2347 31.1679 14.1746L31.1685 14.1752ZM30.9316 15.1843C30.8744 15.2528 30.7744 15.2064 30.7518 15.1781C30.7303 15.1639 30.646 15.0575 30.603 15.0048C30.5963 14.9963 30.59 14.9889 30.5855 14.9838C30.5539 14.947 30.5459 14.874 30.5872 14.8168C30.6251 14.7709 30.6698 14.7726 30.7308 14.8111C30.7376 14.8168 30.7478 14.8259 30.7597 14.8366C30.8241 14.8966 30.9468 15.0229 30.9604 15.0648C30.9604 15.0648 30.9881 15.1158 30.9316 15.1843ZM31.1803 15.0195C31.1125 15.0886 31.0469 15.0552 31.0215 15.0393C31.0017 15.0269 30.8648 14.8813 30.7919 14.8032C30.7721 14.7823 30.7568 14.7653 30.7501 14.7579C30.7178 14.7217 30.6958 14.6543 30.7354 14.5959C30.7749 14.5376 30.8383 14.5325 30.9005 14.5699C30.9101 14.5773 30.9321 14.5971 30.9598 14.6231C31.0475 14.7052 31.1933 14.853 31.2064 14.8904C31.2064 14.8904 31.2465 14.9453 31.1798 15.0201L31.1803 15.0195ZM31.4269 14.8179C31.4065 14.8394 31.3856 14.8525 31.3652 14.8604C31.3194 14.8785 31.2776 14.8695 31.2601 14.8587C31.2403 14.8468 31.0797 14.6803 30.9921 14.588C30.966 14.5608 30.9457 14.5393 30.9383 14.5314C30.905 14.4963 30.8903 14.4062 30.9287 14.3468C30.9672 14.2873 31.0367 14.2896 31.0995 14.3247C31.1102 14.3326 31.1396 14.357 31.177 14.3898C31.281 14.4799 31.4484 14.6333 31.4614 14.6696C31.4614 14.6696 31.4744 14.7035 31.4631 14.7488C31.4574 14.7704 31.4472 14.7936 31.4269 14.8179Z" fill="#E67321"/>
<path d="M34.5978 14.0973H32.5017L32.3485 14.2609H34.4451L33.7225 15.0345H31.6253L31.4727 15.1981H33.5698L35.3826 13.2563L34.5978 14.0973Z" fill="#E67321"/>
<path d="M22.8782 16.0821C22.2155 16.8942 21.3962 17.6677 20.4214 18.2147C19.8339 18.5296 19.0667 18.9424 18.7975 19.8728C18.4458 21.3468 18.8009 22.1509 19.4664 22.6957C19.4664 22.6957 19.4653 22.6742 19.4054 22.4941C18.75 21.8117 18.6471 20.9074 18.9321 19.8943C18.9756 19.8026 19.1074 19.7726 19.2957 19.7958C19.5314 19.2052 19.951 18.7476 20.5277 18.3671C21.8847 17.5901 22.5333 16.8189 23.1394 16.0776L22.885 16.0742L22.8782 16.0827V16.0821Z" fill="#E67321"/>
<path d="M10.6192 23.3487L10.3229 23.5446L10.345 23.4104L10.5763 23.2496L10.6051 23.2292C10.5666 23.1562 10.5259 23.0769 10.4858 22.992L10.4728 23.0004L10.2065 23.1777L10.2285 23.0435L10.4355 22.9019C10.4151 22.8487 10.3953 22.796 10.3761 22.7428C10.3292 22.6267 10.2845 22.5033 10.246 22.373C10.2325 22.3334 10.2189 22.2937 10.2048 22.2541C10.198 22.2184 10.1923 22.1833 10.1867 22.1488C10.1177 21.8452 10.0069 21.1368 10.1217 20.2767C10.0227 20.1504 9.94524 20.0524 9.90283 19.998C9.86099 20.566 9.80728 21.6057 9.88983 22.4381C9.97634 23.0339 10.0368 23.488 10.4236 24.2094C10.4468 24.2525 10.4705 24.2967 10.4965 24.342C10.5005 24.3216 10.5044 24.3035 10.5084 24.287C10.5135 24.2644 10.518 24.2451 10.5225 24.2298C10.5259 24.2061 10.5288 24.1823 10.5321 24.1585C10.5214 24.1387 10.5011 24.0996 10.4784 24.0532C10.4417 23.9778 10.3993 23.8827 10.3829 23.8153C10.3784 23.7972 10.3761 23.7813 10.3761 23.7683C10.4914 23.7729 10.6413 23.7496 10.7781 23.6704C10.7951 23.6602 10.812 23.65 10.8284 23.6381C10.79 23.5622 10.7278 23.4552 10.6554 23.3238L10.6187 23.3481L10.6192 23.3487Z" fill="#E67321"/>
<path d="M10.5327 17.2191C10.5327 17.2191 9.68798 17.137 8.44687 18.077C8.04033 18.4315 7.71521 18.5855 7.52749 18.7226C7.39914 18.8166 7.32281 18.9202 7.28436 19.0697C7.27022 19.1733 7.2821 19.3879 7.51562 19.5301C7.39518 19.3251 7.36408 19.1637 7.51562 18.9904C7.66715 18.8171 7.94873 18.8024 8.12175 18.8602C8.17773 18.8132 8.23088 18.7599 8.28346 18.7005L7.98944 18.6557L8.09574 18.5714L8.36036 18.6093C8.40503 18.5538 8.45026 18.4932 8.49719 18.427L8.29647 18.3964L8.40277 18.312L8.56109 18.3347C8.59162 18.2899 8.62272 18.2441 8.65551 18.1948C8.85737 17.8913 9.75979 17.479 10.5972 17.3777C10.561 17.2837 10.5322 17.2185 10.5322 17.2185L10.5327 17.2191Z" fill="#E67321"/>
<path d="M12.7848 19.793C12.6406 19.8077 12.4167 19.7952 12.3014 19.7664C12.3014 19.7664 12.6451 19.9544 12.9759 20.0319C13.279 19.4362 13.7703 18.8818 13.7703 18.8818C13.2541 19.2182 12.8679 19.6842 12.7848 19.7924V19.793Z" fill="#E67321"/>
<path d="M21.5529 11.045C21.5879 11.186 21.6264 11.2845 21.6835 11.293C21.6185 10.9895 21.5823 10.7114 21.5014 10.5319C21.4918 10.511 21.4816 10.4923 21.4709 10.4742C21.4601 10.4566 21.4494 10.4402 21.437 10.4255C21.4262 10.4119 21.4149 10.3994 21.4025 10.3887C21.4607 10.5863 21.498 10.8077 21.5376 10.9821C21.5427 11.0036 21.5472 11.0252 21.5523 11.045H21.5529Z" fill="#E67321"/>
<path d="M20.6142 10.9025C20.6187 10.9042 20.6227 10.9053 20.6272 10.907C20.6295 10.9076 20.6312 10.9087 20.6334 10.9098C20.6538 10.9178 20.673 10.9285 20.6906 10.941C20.7013 10.9483 20.7115 10.9568 20.7211 10.9659C20.7663 11.0055 20.8065 11.0548 20.8523 11.0927C20.7918 10.8373 20.6838 10.6941 20.5294 10.6641C20.5322 10.6714 20.5356 10.6788 20.5402 10.6867C20.5571 10.7179 20.5814 10.749 20.5707 10.7807C20.5696 10.7835 20.5684 10.7852 20.5667 10.7869C20.552 10.8028 20.5119 10.7858 20.4864 10.7875C20.4502 10.8532 20.4994 10.8628 20.6137 10.9025H20.6142Z" fill="#E67321"/>
<path d="M21.5489 11.7887C21.5478 11.8022 21.5489 11.8153 21.5512 11.8277C21.558 11.8657 21.5794 11.8996 21.6162 11.9285C21.6456 11.9517 21.6852 11.9721 21.7338 11.9891C21.7067 11.9438 21.6773 11.9059 21.6462 11.873C21.6151 11.8402 21.5823 11.8124 21.5483 11.7881L21.5489 11.7887Z" fill="#E67321"/>
<path d="M19.968 12.225C19.9883 12.2261 20.0041 12.2204 20.0166 12.2108C20.0268 12.2029 20.0347 12.1916 20.0415 12.1785C20.0443 12.1734 20.0471 12.1678 20.0499 12.1621C20.0641 12.131 20.0754 12.0936 20.0946 12.0647C20.1076 12.0455 20.1218 12.0313 20.137 12.0217C20.1444 12.0166 20.1523 12.0132 20.1608 12.0098C20.2009 11.9951 20.2478 12.0013 20.2982 12.0036C20.3457 12.0064 20.3739 11.9588 20.3965 11.8971C20.3999 11.8875 20.4033 11.8773 20.4067 11.8671C20.4079 11.8626 20.4096 11.8586 20.4107 11.8541C20.4248 11.8082 20.4373 11.7584 20.452 11.717C20.4599 11.6955 20.4599 11.687 20.4554 11.687C20.4429 11.687 20.3943 11.751 20.3592 11.7997C20.3372 11.8303 20.3202 11.8546 20.3202 11.8546C20.2863 11.8948 20.2507 11.913 20.2162 11.9248C20.1856 11.9356 20.1557 11.9413 20.128 11.9537C20.0946 11.9685 20.0731 12.0075 20.0556 12.046C20.0482 12.0625 20.0415 12.0783 20.0352 12.0925C20.0313 12.1021 20.0268 12.11 20.0228 12.1174C20.0143 12.131 20.0058 12.1389 19.9962 12.1361C19.9877 12.1338 19.9827 12.131 19.9793 12.127C19.9787 12.1259 19.9781 12.1247 19.9776 12.1236C19.9759 12.1202 19.9753 12.1168 19.9759 12.1123C19.9759 12.1089 19.977 12.1055 19.9781 12.1015C19.9798 12.0959 19.9821 12.0891 19.9844 12.0817C19.9872 12.0743 19.99 12.0659 19.9928 12.0562C19.9934 12.054 19.9945 12.0517 19.9951 12.0489C19.9962 12.0455 19.9945 12.0426 19.9917 12.0398C19.9917 12.0398 19.9917 12.0398 19.9911 12.0392C19.986 12.0353 19.977 12.0319 19.9691 12.0313C19.9663 12.0313 19.964 12.0313 19.9612 12.0313C19.9566 12.0319 19.9527 12.0341 19.951 12.0375C19.938 12.0676 19.9255 12.1004 19.9193 12.131C19.9171 12.1412 19.9159 12.1508 19.9154 12.1599C19.9137 12.1961 19.9261 12.2233 19.9674 12.2255L19.968 12.225Z" fill="#E67321"/>
<path d="M19.9318 12.4145C19.9459 12.4139 19.9572 12.3992 19.9691 12.3844C19.9832 12.3658 19.9968 12.3459 20.0143 12.3499C20.0437 12.3573 20.0624 12.355 20.0816 12.3499C20.1008 12.3448 20.12 12.3363 20.15 12.3301C20.1675 12.3267 20.1834 12.325 20.1981 12.3244C20.2128 12.3238 20.2252 12.3233 20.2365 12.3216C20.2478 12.3199 20.2574 12.3171 20.2654 12.3108C20.2733 12.3046 20.2795 12.2955 20.2834 12.2814C20.3004 12.2242 20.3569 12.2129 20.4361 12.2004C20.4435 12.1993 20.4508 12.1981 20.4587 12.197C20.4706 12.1953 20.4819 12.1947 20.4927 12.1953C20.4938 12.1953 20.4955 12.1953 20.4966 12.1953C20.5113 12.1959 20.526 12.1981 20.5407 12.1998C20.5611 12.2027 20.582 12.2055 20.6063 12.2044C20.6934 12.1998 20.7669 12.1579 20.8274 12.0956C20.8393 12.0832 20.8511 12.0702 20.8619 12.056C20.8839 12.0282 20.9043 11.9971 20.9218 11.9648C20.9535 12.0158 20.9851 12.0362 21.0168 12.0384C21.0275 12.039 21.0377 12.0384 21.0485 12.035C20.9868 11.958 20.9755 11.8504 20.9784 11.753C20.9636 11.7242 20.9501 11.6953 20.9388 11.6675C20.9331 11.6534 20.928 11.6398 20.9235 11.6268C20.9145 11.6001 20.9082 11.5747 20.9065 11.5509C20.9037 11.5152 20.9094 11.4835 20.9292 11.4574C20.9405 11.4093 20.9359 11.3691 20.9263 11.3317C20.9229 11.3193 20.919 11.3074 20.915 11.2949C20.8607 11.3816 20.8161 11.4693 20.8302 11.5673C20.8319 11.5798 20.8342 11.5922 20.8381 11.6047C20.8523 11.6415 20.8636 11.6772 20.8726 11.7111C20.8788 11.7344 20.8834 11.7576 20.8868 11.7791C20.8913 11.8148 20.8918 11.8487 20.8868 11.8793C20.8845 11.8946 20.8805 11.9093 20.8749 11.9235C20.8658 11.9478 20.8511 11.9699 20.8325 11.9897C20.8296 11.9926 20.8279 11.996 20.8246 11.9988C20.7754 12.0362 20.7256 12.0719 20.6764 12.0922C20.664 12.0973 20.6515 12.1019 20.6397 12.1047C20.621 12.1092 20.6023 12.1104 20.5837 12.1092C20.5656 12.1081 20.5481 12.1053 20.53 12.0973C20.5232 12.0945 20.5175 12.09 20.5119 12.0843C20.5079 12.0803 20.504 12.0758 20.5 12.0719C20.496 12.0673 20.4921 12.0634 20.4876 12.0594C20.4791 12.052 20.4706 12.0469 20.4599 12.0481C20.457 12.0481 20.4548 12.0492 20.4525 12.0503C20.4463 12.0526 20.4406 12.0554 20.4355 12.06C20.4282 12.0662 20.4214 12.0747 20.4146 12.0826C20.4044 12.0945 20.3943 12.1058 20.3818 12.1104C20.3779 12.1115 20.3733 12.1121 20.3688 12.1115C20.3309 12.107 20.2993 12.1041 20.2733 12.1064C20.2687 12.1064 20.2654 12.1081 20.2608 12.1087C20.2557 12.1098 20.2506 12.1104 20.2467 12.1115C20.2173 12.1211 20.1998 12.1438 20.1935 12.1885C20.1924 12.1981 20.1902 12.21 20.1862 12.2219C20.1822 12.2338 20.1777 12.2463 20.1715 12.2582C20.1585 12.2814 20.1387 12.3012 20.1093 12.3086C20.1008 12.3108 20.0918 12.3114 20.0827 12.312C20.0737 12.312 20.0646 12.312 20.0561 12.3103C20.0296 12.3074 20.0041 12.3006 19.9826 12.3012C19.9612 12.3018 19.9436 12.3103 19.934 12.3369C19.9312 12.3437 19.9284 12.3522 19.9255 12.3612C19.9199 12.3788 19.9154 12.3969 19.9199 12.4071C19.9221 12.4122 19.9267 12.415 19.934 12.4145H19.9318Z" fill="#E67321"/>
<path d="M22.1245 11.462C22.1477 11.4694 22.172 11.475 22.1963 11.4795C22.2025 11.4807 22.2082 11.4818 22.2144 11.4829C22.2687 11.4909 22.3252 11.4937 22.3835 11.492C22.4038 11.4914 22.4242 11.4903 22.4445 11.4886C22.5259 11.4824 22.6091 11.4705 22.6905 11.4569C22.6876 11.4161 22.6826 11.3595 22.6758 11.3108C22.6735 11.2949 22.6713 11.2797 22.669 11.2661C22.6141 11.274 22.5593 11.2808 22.505 11.2853C22.4728 11.2881 22.4411 11.2904 22.41 11.291C22.2704 11.2949 22.1437 11.2768 22.0578 11.21C21.8463 11.0469 21.8763 10.7677 21.684 10.6035C21.7332 10.8113 21.7513 11.0322 21.8491 11.2264C21.9136 11.3555 22.0108 11.4257 22.1251 11.4614L22.1245 11.462Z" fill="#E67321"/>
<path d="M20.1093 11.3852C20.1172 11.3886 20.1251 11.3908 20.133 11.392C20.1404 11.3931 20.1472 11.3937 20.1545 11.3931C20.1788 11.3914 20.2037 11.3801 20.2275 11.3603C20.2393 11.3501 20.2507 11.3376 20.2614 11.3229C20.2721 11.3082 20.2823 11.2912 20.2919 11.2714C20.2953 11.2646 20.2919 11.2578 20.2857 11.251C20.2823 11.2476 20.2784 11.2447 20.2738 11.2419C20.2512 11.2278 20.2156 11.221 20.2094 11.2385C20.2009 11.2623 20.1805 11.277 20.1579 11.2833C20.1432 11.2878 20.1274 11.2884 20.1133 11.2855C20.0997 11.2827 20.0884 11.2765 20.0822 11.2668C20.0788 11.2623 20.0771 11.2566 20.0771 11.2498C20.0771 11.2436 20.0759 11.2391 20.0748 11.2363C20.0731 11.2334 20.0714 11.2329 20.0692 11.2329C20.0573 11.2346 20.0364 11.2691 20.033 11.2895C20.0324 11.2934 20.033 11.2968 20.033 11.2997C20.0511 11.3444 20.0782 11.3733 20.1082 11.3863L20.1093 11.3852Z" fill="#E67321"/>
<path d="M22.3631 12.3117C22.3569 12.31 22.3506 12.3088 22.3444 12.3071C22.289 12.2941 22.233 12.2851 22.1771 12.289C22.1714 12.289 22.168 12.293 22.1652 12.2981C22.1567 12.3128 22.159 12.3423 22.1691 12.3609C22.1737 12.3694 22.1799 12.3751 22.1867 12.3762C22.2274 12.3836 22.2687 12.383 22.3099 12.3796C22.3834 12.3734 22.4575 12.357 22.5304 12.3519C22.501 12.3468 22.4716 12.3394 22.4422 12.3321C22.4157 12.3253 22.3897 12.3179 22.3631 12.3117Z" fill="#E67321"/>
<path d="M17.5881 13.6497C17.6096 13.5902 17.6294 13.5359 17.6474 13.4883C17.5898 13.4821 17.5315 13.4764 17.4727 13.4708C17.4139 13.4651 17.3546 13.4594 17.2946 13.4532C17.2647 13.4504 17.2347 13.4475 17.2047 13.4447C17.1448 13.439 17.0849 13.4334 17.0249 13.4277C16.965 13.4221 16.905 13.4164 16.8457 13.4107C16.697 13.3966 16.5511 13.3824 16.4114 13.3671C16.3277 13.3581 16.2463 13.3484 16.1683 13.3388C16.0643 13.3258 15.9653 13.3116 15.8748 13.2969C15.8336 13.2901 15.7946 13.2833 15.7567 13.276C15.7284 13.2703 15.7007 13.2652 15.6747 13.2595C15.5243 13.2267 15.4095 13.1893 15.3467 13.1452C15.1257 12.9996 14.7276 12.6032 14.3963 12.2C14.3533 12.1474 14.3114 12.0947 14.2713 12.0426C14.1712 11.9129 14.0802 11.7855 14.0089 11.6694C14.0395 11.807 14.1282 11.9848 14.2538 12.1813C14.2747 12.2142 14.2962 12.2476 14.3194 12.281C14.3646 12.3484 14.4138 12.4175 14.4658 12.4871C14.4918 12.5222 14.5184 12.5574 14.5455 12.5925C14.5998 12.6632 14.6569 12.734 14.7152 12.8048C14.7734 12.8756 14.8333 12.9458 14.8944 13.0143C14.9549 13.0834 15.0165 13.1514 15.0782 13.2171C15.1234 13.2601 15.1681 13.298 15.2127 13.3315C15.2574 13.3649 15.3026 13.3932 15.3479 13.4175C15.3931 13.4419 15.4395 13.4628 15.4864 13.4804C15.5961 13.5217 15.7103 13.5461 15.8341 13.5642C16.4403 13.618 16.9718 13.6537 17.5666 13.7109C17.5739 13.6899 17.5813 13.6695 17.5881 13.6497Z" fill="#E67321"/>
<path d="M20.69 12.4837C20.7007 12.5109 20.7222 12.5358 20.7533 12.5364C20.7578 12.5364 20.7624 12.5364 20.7674 12.5353C20.7912 12.5307 20.8132 12.52 20.8319 12.5024C20.8624 12.473 20.8828 12.4243 20.8805 12.3495C20.8783 12.2578 20.9439 12.1796 21.0298 12.1021C20.9942 12.1083 20.9603 12.1156 20.9297 12.1292C20.9161 12.1355 20.9031 12.1423 20.8918 12.1519C20.8698 12.17 20.8517 12.1949 20.8393 12.2306C20.8319 12.2527 20.8229 12.2736 20.8132 12.2946C20.8065 12.3104 20.7991 12.3257 20.7918 12.3416C20.7816 12.3631 20.7714 12.3841 20.7618 12.4056C20.7499 12.3846 20.7431 12.3637 20.7386 12.3427C20.733 12.3155 20.7313 12.2884 20.7313 12.2612C20.7239 12.2668 20.7166 12.2725 20.7103 12.2782C20.7024 12.2855 20.6962 12.2929 20.6905 12.3002C20.6826 12.3104 20.6758 12.3212 20.6702 12.3314C20.664 12.3433 20.6594 12.3546 20.6555 12.3659C20.6453 12.3937 20.6391 12.4186 20.6244 12.4356C20.6097 12.4526 20.5859 12.4611 20.5413 12.4571C20.4847 12.452 20.4276 12.4531 20.3773 12.4588C20.3377 12.4633 20.3032 12.4713 20.2767 12.482C20.2659 12.4866 20.2569 12.4911 20.2495 12.4962C20.2467 12.4979 20.2433 12.4996 20.241 12.5018C20.2348 12.5075 20.2303 12.5132 20.228 12.5194C20.2388 12.5171 20.2506 12.5143 20.262 12.5115C20.2936 12.5041 20.3275 12.4973 20.3558 12.503C20.3716 12.5058 20.3858 12.512 20.3971 12.5245C20.4248 12.5545 20.4463 12.5732 20.4746 12.5879C20.4757 12.5879 20.4768 12.589 20.4774 12.589C20.4909 12.5958 20.5057 12.6021 20.5232 12.6077C20.5424 12.614 20.565 12.6202 20.5922 12.627C20.6176 12.6332 20.6408 12.6479 20.6611 12.6627C20.6832 12.678 20.7019 12.6932 20.7183 12.6995C20.7296 12.7034 20.7397 12.7034 20.7482 12.6949C20.7527 12.6904 20.7573 12.6836 20.7612 12.674C20.7669 12.6593 20.7686 12.6468 20.7674 12.6349C20.7641 12.5828 20.7024 12.5562 20.6272 12.5658C20.6414 12.5471 20.6555 12.5279 20.6696 12.5092C20.6758 12.5007 20.6826 12.4922 20.6888 12.4837H20.69Z" fill="#E67321"/>
<path d="M25.785 14.8319C25.7607 14.8512 25.7381 14.8687 25.7172 14.8869C25.7064 14.8959 25.6963 14.9044 25.6867 14.9135C25.6369 14.9582 25.5939 15.0047 25.5487 15.0647H29.8736C29.8651 15.0341 29.8521 15.008 29.834 14.9854C29.8216 14.9701 29.8075 14.9565 29.7911 14.9446C29.7662 14.9265 29.7362 14.9118 29.7012 14.8993C29.678 14.8914 29.6525 14.884 29.6248 14.8784C29.5819 14.8693 29.5338 14.8631 29.4807 14.858C29.4303 14.8535 29.3749 14.8512 29.3144 14.8495C29.1889 14.8489 29.0668 14.8478 28.9469 14.8472C28.766 14.8461 28.5907 14.845 28.4177 14.8444C28.1875 14.8433 27.9619 14.8416 27.7352 14.8404C27.3383 14.8382 26.9362 14.8359 26.4963 14.8331C26.5139 14.8149 26.5325 14.7974 26.5518 14.7804C26.6937 14.6524 26.882 14.5397 27.0358 14.452C26.4398 14.4118 25.7375 14.3806 25.0483 14.3653C25.0415 14.3653 25.0353 14.3653 25.0285 14.3653C24.8787 14.3619 24.7294 14.3597 24.5818 14.358C24.5801 14.358 24.5784 14.358 24.5767 14.358C24.4263 14.3563 24.2776 14.3551 24.1323 14.3557H24.1317C23.9129 14.3557 23.7009 14.358 23.5013 14.3625C23.5166 14.2968 23.5431 14.2328 23.5855 14.1694C23.5963 14.1535 23.6082 14.1382 23.6206 14.1224C23.6443 14.0935 23.6726 14.0646 23.7048 14.0363C23.7241 14.0193 23.745 14.0023 23.7676 13.9854C23.637 14.0046 23.5154 14.0369 23.3973 14.0845C22.9924 14.247 22.6345 14.5935 22.1313 15.2578C22.0742 15.3325 22.0159 15.3999 21.9571 15.4605C21.8977 15.5211 21.8378 15.5755 21.7767 15.623C21.6953 15.687 21.6128 15.7402 21.5291 15.7838C21.4663 15.8167 21.403 15.8444 21.3391 15.8671C21.2752 15.8897 21.2113 15.9084 21.1469 15.9226C21.1254 15.9271 21.1039 15.9316 21.0824 15.9356C21.0394 15.9435 20.9965 15.9492 20.9529 15.9537C20.9314 15.956 20.91 15.9577 20.8885 15.9594C20.8455 15.9622 20.8025 15.9639 20.759 15.9645C20.716 15.9645 20.673 15.9639 20.6301 15.9617C20.5871 15.96 20.5447 15.9566 20.5017 15.9526C20.4616 15.9486 20.422 15.9441 20.3824 15.939C20.3315 15.9322 20.2812 15.9249 20.2309 15.9164C20.1953 15.9107 20.1602 15.9045 20.1246 15.8977C19.9555 15.8495 19.8464 15.862 19.7983 15.935C19.7915 15.9452 19.7859 15.9571 19.7814 15.9702C19.7531 16.0075 19.7401 16.0341 19.7418 16.0534C19.7424 16.0608 19.7452 16.0676 19.7503 16.0726C19.7576 16.0806 19.7706 16.0862 19.7876 16.0902C19.8221 16.0981 19.8752 16.0998 19.9453 16.1004C20.1551 16.097 20.3626 16.0981 20.569 16.1055C20.9133 16.1174 21.256 16.1468 21.6054 16.2018C22.116 16.0409 22.4247 15.6949 22.7561 15.238C22.7843 15.1983 22.8132 15.1587 22.842 15.1173C22.8872 15.059 22.9319 15.0103 22.9771 14.9701C22.9964 14.9531 23.0156 14.9378 23.0354 14.9237C23.071 14.8976 23.1078 14.8761 23.1462 14.8586C23.1841 14.841 23.2231 14.8268 23.2638 14.8161C23.3051 14.8048 23.3486 14.7963 23.395 14.7906C23.4962 14.7776 23.6099 14.7753 23.7422 14.7753C23.8236 14.7776 23.9061 14.7798 23.9898 14.7821C24.4082 14.7934 24.8538 14.8059 25.2812 14.8172C25.452 14.8217 25.6205 14.8263 25.7828 14.8308L25.785 14.8319Z" fill="#E67321"/>
<path d="M20.2354 16.7232C20.2756 16.7317 20.3191 16.7424 20.3666 16.7543C20.5685 16.7951 20.7534 16.7996 20.9218 16.7583C21.0903 16.7175 21.2424 16.6314 21.3798 16.4916C21.1786 16.5799 20.9371 16.6456 20.651 16.5641C20.5882 16.5459 20.5221 16.5244 20.4565 16.5063C20.4124 16.4938 20.3689 16.4831 20.3259 16.4757C20.2829 16.4684 20.2411 16.4644 20.2015 16.4655C20.1817 16.4661 20.1625 16.4684 20.1433 16.4718C20.111 16.4972 20.0856 16.5199 20.0635 16.5414C20.0528 16.5522 20.0426 16.5624 20.033 16.572C20.0121 16.5941 19.9946 16.6156 19.977 16.6377C19.9544 16.666 19.9324 16.696 19.903 16.7317C19.9414 16.7181 19.9776 16.7096 20.0138 16.7051C20.0856 16.6966 20.1557 16.7051 20.2366 16.722L20.2354 16.7232Z" fill="#E67321"/>
<path d="M19.7836 17.2317C19.8498 17.2062 19.9312 17.2045 20.0138 17.2096C20.055 17.2124 20.0963 17.2164 20.1359 17.2204C20.1755 17.2243 20.2134 17.2277 20.2479 17.2289C20.2891 17.2306 20.3287 17.2311 20.3666 17.23C20.3689 17.23 20.3706 17.23 20.3728 17.23C20.4062 17.2289 20.4378 17.2266 20.4689 17.2232C20.69 17.1994 20.8687 17.1145 21.0542 16.918C20.9337 16.9972 20.8127 17.0267 20.6928 17.0312C20.4525 17.0403 20.2156 16.9497 19.9878 16.9542C19.9651 16.9542 19.9425 16.9559 19.9199 16.9587C19.8622 17.0329 19.8385 17.0941 19.8119 17.1615C19.8029 17.1841 19.7938 17.2068 19.7831 17.2311L19.7836 17.2317Z" fill="#E67321"/>
<path d="M20.5984 10.394C20.6108 10.4251 20.6357 10.4557 20.6787 10.4971C20.7002 10.5174 20.7262 10.5412 20.7573 10.5684C20.7675 10.5775 20.7788 10.5871 20.7901 10.5973C20.8246 10.6273 20.8647 10.6618 20.9105 10.7021C20.9416 10.7292 20.9676 10.7587 20.9897 10.7887C21.0247 10.8363 21.0502 10.8861 21.0683 10.9388C21.0835 10.9824 21.0948 11.0277 21.1022 11.0741C21.1084 11.1115 21.1124 11.1494 21.1152 11.1879C21.1169 11.21 21.1186 11.2321 21.1197 11.2542C21.1265 11.3754 21.1276 11.4988 21.1531 11.6155C21.3007 12.304 20.9512 12.3567 20.8534 12.7157C20.8568 12.7152 20.8602 12.714 20.863 12.7135C20.8805 12.7095 20.8986 12.7055 20.9162 12.7033C20.9269 12.7021 20.9371 12.701 20.9478 12.7004C20.9687 12.6993 20.9897 12.7004 21.0112 12.7038C21.0219 12.7055 21.0321 12.7078 21.0428 12.7112C21.0637 12.7174 21.0852 12.7259 21.1061 12.7384C21.0191 12.8686 20.9263 13.0079 20.8314 13.1444C20.7986 13.1914 20.7658 13.2378 20.7324 13.2831C20.7222 13.2973 20.712 13.3115 20.7013 13.3256C20.5916 13.4745 20.4814 13.6122 20.3751 13.7209C20.3739 13.722 20.3728 13.7231 20.3717 13.7243C20.3417 13.7543 20.3129 13.782 20.284 13.8069C20.2586 13.829 20.2331 13.85 20.2083 13.8681C20.2733 13.8409 20.3383 13.816 20.4039 13.7928C20.4367 13.7809 20.4695 13.7701 20.5023 13.7594C20.5594 13.7413 20.6165 13.7243 20.6742 13.7096C20.7166 13.6982 20.759 13.688 20.8019 13.6784C20.8641 13.6648 20.9269 13.6541 20.9902 13.645C20.9998 13.6439 21.0089 13.6422 21.0185 13.641C21.2899 13.6048 21.5721 13.6099 21.8734 13.6693C21.9023 13.6405 21.9351 13.6116 21.9729 13.5855C21.9956 13.5702 22.0199 13.5555 22.0464 13.5436C21.9842 13.5555 21.9249 13.5612 21.8683 13.5623C21.8683 13.5623 21.8678 13.5623 21.8672 13.5623C21.783 13.564 21.7044 13.5561 21.6297 13.5419C21.5551 13.5278 21.4838 13.508 21.4149 13.4859C21.4132 13.4853 21.412 13.4842 21.4098 13.4836C21.3872 13.4757 21.3702 13.4661 21.36 13.4542C21.3487 13.4417 21.3431 13.4264 21.3419 13.41C21.3397 13.3766 21.3538 13.3358 21.3691 13.2899C21.412 13.158 21.4675 13.0181 21.5523 12.8884C21.5602 12.8766 21.5675 12.8647 21.576 12.8533C21.5834 12.8426 21.5918 12.8335 21.6003 12.8256C21.6444 12.786 21.7066 12.7792 21.7903 12.8058C21.8237 12.8165 21.8604 12.8324 21.9006 12.8539C21.8977 12.7831 21.8955 12.7622 21.8915 12.7055C21.8915 12.7055 21.8915 12.7044 21.8915 12.7038C21.8452 12.6903 21.8016 12.6727 21.7615 12.6512C21.7213 12.6297 21.684 12.6047 21.6495 12.5764C21.615 12.5481 21.5834 12.5164 21.554 12.4819C21.5393 12.4643 21.5251 12.4462 21.5116 12.4275C21.4844 12.3901 21.4595 12.3494 21.4369 12.3063C21.3787 12.1959 21.3346 12.0685 21.299 11.9292C21.286 11.8782 21.2741 11.8255 21.2633 11.7717C21.2503 11.7061 21.2413 11.6375 21.2345 11.5685C21.2141 11.3618 21.2181 11.1426 21.2322 10.9263C21.2385 10.8351 21.2464 10.7451 21.2549 10.6562C21.2696 10.4999 21.2328 10.4082 21.1717 10.3481C21.1633 10.3396 21.1536 10.3317 21.144 10.3238C21.0671 10.2643 20.9637 10.2383 20.8755 10.1958C20.8834 10.2037 20.8913 10.2111 20.8992 10.2185C20.915 10.2332 20.9314 10.2479 20.9467 10.2632C20.954 10.2711 20.9614 10.279 20.9676 10.2881C21.1022 10.4676 21.0038 10.5237 20.8755 10.5299C20.833 10.5316 20.798 10.5265 20.7686 10.5157C20.7098 10.4942 20.673 10.4529 20.6391 10.4093C20.6221 10.3878 20.6057 10.3657 20.5882 10.3459C20.5882 10.3572 20.5899 10.3685 20.5927 10.3787C20.5939 10.3838 20.5956 10.3895 20.5978 10.3946L20.5984 10.394Z" fill="#E67321"/>
<path d="M19.6898 17.62C19.6841 17.6426 19.6796 17.6647 19.6756 17.6874C19.6722 17.7078 19.67 17.7281 19.6683 17.7491C19.757 17.731 19.8413 17.7202 19.9221 17.7095C19.9482 17.7061 19.9736 17.7027 19.999 17.6993C20.0499 17.6925 20.0991 17.6851 20.1483 17.676C20.1642 17.6732 20.1794 17.6698 20.1947 17.6664C20.2348 17.6579 20.2744 17.6472 20.3134 17.6341C20.3355 17.6268 20.357 17.6189 20.379 17.6098C20.3858 17.607 20.3931 17.6041 20.3999 17.6013C20.4746 17.5685 20.5481 17.5237 20.6233 17.4614C20.5085 17.4965 20.4067 17.509 20.3129 17.5113C20.2727 17.5118 20.2343 17.5113 20.1964 17.509C20.1642 17.5073 20.1331 17.505 20.102 17.5028C19.9793 17.4931 19.8605 17.4818 19.7288 17.5056C19.7118 17.5452 19.6994 17.5826 19.6898 17.6194V17.62Z" fill="#E67321"/>
<path d="M18.4628 18.8433C18.4345 18.9792 18.4108 19.1208 18.3915 19.264C18.3373 19.6735 18.3237 20.1027 18.3746 20.4946C18.387 20.5908 18.4034 20.6848 18.4238 20.7754C18.4543 20.9113 18.4945 21.0405 18.5448 21.1594C18.5075 20.6758 18.5295 20.2596 18.6177 19.8971C18.6443 19.7884 18.6765 19.6842 18.7155 19.5851C18.754 19.4855 18.7987 19.3909 18.8495 19.2997C18.8733 19.2572 18.8987 19.2165 18.9253 19.1757C18.9745 19.1004 19.0282 19.0273 19.087 18.9577C19.1775 18.8507 19.2798 18.7499 19.394 18.6547C19.4512 18.6072 19.5111 18.5613 19.5744 18.516C19.6061 18.4933 19.6383 18.4713 19.6717 18.4497C19.8373 18.341 20.0217 18.2396 20.2264 18.1451C20.3185 18.1015 20.3903 18.0669 20.4497 18.0358C20.4791 18.0205 20.5057 18.0063 20.53 17.9922C20.5503 17.9803 20.569 17.969 20.5871 17.9576C20.6176 17.9378 20.6453 17.918 20.6719 17.8965C20.6617 17.9004 20.651 17.9038 20.6402 17.9078C20.4729 17.969 20.2948 18.0228 20.102 18.055C20.0901 18.0573 20.0782 18.059 20.0658 18.0607C19.9436 18.0788 19.8159 18.0884 19.6818 18.0845C19.4992 18.2413 19.3471 18.3082 19.2148 18.3127C19.1526 18.315 19.0955 18.3031 19.0418 18.2804C19.0384 18.2793 19.035 18.2782 19.0316 18.2765C18.8852 18.2119 18.7653 18.0675 18.6516 17.905C18.633 17.8784 18.6143 17.8512 18.5957 17.8234C18.5742 17.7912 18.5521 17.7583 18.5306 17.7255C18.5092 17.6926 18.4871 17.6603 18.4651 17.6281C18.421 17.5641 18.3768 17.5024 18.3299 17.4463C18.1094 17.9588 18.1846 18.4192 18.4617 18.8433H18.4628Z" fill="#E67321"/>
<path d="M19.7067 13.2799C19.7537 13.3303 19.7876 13.3875 19.8142 13.4447C19.8277 13.473 19.839 13.5013 19.8498 13.5285C19.8605 13.5557 19.8701 13.5823 19.8798 13.6066C19.8894 13.631 19.8984 13.6536 19.9086 13.674C19.9137 13.6842 19.9188 13.6933 19.9239 13.7018C19.9453 13.7357 19.9708 13.7573 20.0058 13.7595C20.0239 13.7516 20.0403 13.7448 20.0573 13.7403C20.0646 13.738 20.072 13.7363 20.0793 13.7352C20.1031 13.7312 20.1274 13.7323 20.1546 13.7425C20.1523 13.7267 20.15 13.712 20.1489 13.6984C20.1478 13.6848 20.1461 13.6712 20.1455 13.6582C20.1449 13.6451 20.1449 13.6327 20.1455 13.6202C20.1472 13.5579 20.1608 13.4968 20.1879 13.3971C20.1647 13.3937 20.1398 13.3886 20.1144 13.383C19.973 13.3524 19.7989 13.2957 19.67 13.2437C19.683 13.255 19.6949 13.2669 19.7062 13.2788C19.7062 13.2788 19.7073 13.2793 19.7073 13.2799H19.7067Z" fill="#E67321"/>
<path d="M19.1198 15.5961C19.1707 15.6301 19.2335 15.6624 19.3081 15.6929C19.3827 15.7235 19.4704 15.7518 19.5722 15.7784C19.5015 15.7348 19.4421 15.689 19.3941 15.6408C19.3697 15.6165 19.3483 15.5921 19.3296 15.5667C19.3013 15.5287 19.2793 15.4891 19.2623 15.4483C19.1792 15.245 19.2357 15.0072 19.3963 14.7348C19.3997 14.7291 19.4037 14.7229 19.4071 14.7167C19.493 14.574 19.6072 14.4222 19.7452 14.2603C19.6892 14.2982 19.6315 14.3412 19.5727 14.3888C19.5592 14.3996 19.5462 14.4103 19.5326 14.4216C19.4862 14.4607 19.4399 14.5032 19.3941 14.5479C19.2844 14.6538 19.1775 14.7761 19.0791 14.9149C19.0407 14.9692 19.0028 15.0253 18.9677 15.0848C18.8852 15.2671 18.8942 15.4472 19.1193 15.5967L19.1198 15.5961Z" fill="#E67321"/>
<path d="M18.2852 16.9047C18.2982 16.8667 18.3056 16.8311 18.3095 16.7965C18.3095 16.7931 18.3107 16.7892 18.3112 16.7858C18.3248 16.6306 18.2581 16.506 18.1987 16.4052C18.1586 16.3367 18.1224 16.279 18.1167 16.2303C18.1133 16.2014 18.1133 16.1719 18.1156 16.143C18.1213 16.0558 18.1439 15.9681 18.1529 15.8809C18.0246 16.0054 17.9443 16.194 17.912 16.4471C17.959 16.4811 18.0025 16.5162 18.0415 16.5525C18.1586 16.6612 18.24 16.7784 18.2852 16.9053V16.9047Z" fill="#E67321"/>
<path d="M26.6762 16.2168L26.6569 16.2321L26.588 16.3057H27.9421L27.9393 16.3085H27.941L27.1964 17.1042H25.8427L25.7596 17.1931H27.1155L26.372 17.9892H25.0161L24.9324 18.0787H26.2855L25.5425 18.8738H25.5464L25.5442 18.876H24.1877L24.1046 18.9655H25.4605L28.0281 16.2168H26.6762Z" fill="#E67321"/>
<path d="M27.2371 34.335H28.1553L28.2384 34.2461H27.3196L27.2371 34.335Z" fill="#E67321"/>
<path d="M19.9159 35.3619L19.7932 35.4197L20.2563 35.6043C20.2563 35.6043 20.2908 35.5731 20.3428 35.5284H20.3434L20.3394 35.5261L19.9159 35.3613V35.3619Z" fill="#E67321"/>
<path d="M20.2049 35.2194L20.5498 35.357L20.5538 35.3581C20.5877 35.3326 20.6216 35.3083 20.6533 35.2879L20.3276 35.1616L20.2049 35.2194Z" fill="#E67321"/>
<path d="M26.701 32.2999C26.6659 32.2784 26.6337 32.2546 26.6049 32.2285C26.6026 32.2263 26.5998 32.224 26.597 32.2223C26.5834 32.2099 26.571 32.1968 26.5585 32.1838C26.4737 32.0909 26.4211 31.9777 26.39 31.8559C26.381 31.8214 26.3736 31.7857 26.368 31.75C26.3623 31.7144 26.3578 31.6781 26.3544 31.6413C26.351 31.6045 26.3493 31.5683 26.3482 31.532C26.3482 31.5139 26.347 31.4958 26.347 31.4777C26.347 31.4233 26.3482 31.3695 26.3504 31.3174C26.3567 31.1781 26.3691 31.0501 26.3719 30.9499C26.3934 30.7353 26.394 30.5552 26.3776 30.4012C26.3753 30.3796 26.3731 30.3593 26.3702 30.3389C26.3674 30.3202 26.3646 30.3021 26.3618 30.2845C26.3521 30.2313 26.3408 30.1815 26.3267 30.135C26.3222 30.1197 26.3171 30.1044 26.312 30.0891C26.3018 30.0591 26.2911 30.0308 26.2792 30.0036C26.2702 29.9833 26.2605 29.9634 26.2509 29.9442C26.2023 29.849 26.1424 29.7692 26.0745 29.6995C26.0429 29.6667 26.0095 29.6361 25.975 29.6072C25.9405 29.5784 25.9043 29.5506 25.867 29.5234C25.8789 29.5484 25.8896 29.5738 25.8998 29.5993C25.9665 29.7647 25.9971 29.934 26.0067 30.1186C26.0084 30.1492 26.0089 30.1798 26.0095 30.2109C26.0106 30.2732 26.0095 30.3377 26.0067 30.404C26.0038 30.4703 25.9999 30.5388 25.9942 30.6101C25.9914 30.6458 25.9886 30.6815 25.9857 30.7183C25.9767 30.8287 25.9654 30.9454 25.9546 31.0688C25.9405 31.2308 25.9349 31.3746 25.9388 31.502C25.9388 31.5054 25.9388 31.5082 25.9388 31.5116C25.9405 31.5581 25.9433 31.6022 25.9479 31.6447C25.9479 31.6492 25.949 31.6543 25.9496 31.6589C25.9592 31.7472 25.9744 31.8265 25.9959 31.8967C26.0129 31.9511 26.0332 32.0003 26.057 32.0445C26.0728 32.074 26.0909 32.1011 26.1101 32.1266C26.1294 32.1521 26.1508 32.1753 26.1735 32.1963C26.1848 32.207 26.1966 32.2172 26.2091 32.2268C26.2289 32.2421 26.2498 32.2563 26.2718 32.2693C26.2843 32.2767 26.2967 32.2835 26.3097 32.2903C26.3646 32.318 26.4262 32.3395 26.4946 32.356C26.5218 32.3622 26.55 32.3678 26.5789 32.3724C26.5851 32.3735 26.5919 32.3746 26.5981 32.3752C26.6218 32.3786 26.6467 32.3814 26.6722 32.3837C26.7231 32.3882 26.7762 32.3911 26.8327 32.3916C26.861 32.3916 26.8899 32.3916 26.9198 32.3916C26.8819 32.382 26.8474 32.3701 26.8147 32.3571C26.7734 32.3407 26.7355 32.322 26.701 32.301V32.2999Z" fill="#E67321"/>
<path d="M17.8589 34.3883L18.4125 34.6092L18.5041 34.5339L17.9816 34.3306L17.8589 34.3883Z" fill="#E67321"/>
<path d="M22.1816 32.127C22.6509 33.2221 22.7414 33.5308 22.7086 33.5727C22.6809 33.6078 22.7278 33.6078 22.2981 33.6366C20.5294 33.7159 19.7899 33.7125 19.2301 33.6582C18.6816 33.6038 18.3373 33.6633 18.0812 33.7861C17.825 33.909 17.4931 34.1729 17.4931 34.1729C17.2443 34.3536 17.0278 34.4368 16.8977 34.5019C16.7677 34.567 16.7207 34.6067 16.6959 34.6503C16.6704 34.6939 16.6489 34.7947 16.6597 34.8926C16.6704 34.9906 16.6631 35.1599 16.5839 35.3479C16.5291 35.4776 16.4092 35.6707 16.3402 35.7783H16.883C16.8904 35.7585 16.8988 35.7358 16.909 35.7092C16.9814 35.5178 16.9452 35.3151 16.9056 35.1815C16.8661 35.0478 16.8514 34.943 16.8909 34.827C16.9305 34.7114 16.9989 34.6644 17.151 34.5925C17.5157 34.409 17.8075 34.2233 18.1507 34.0206C18.4939 33.8179 19.0701 33.8637 19.2216 33.8784C20.5283 33.977 22.4892 33.8654 22.7889 33.8507C23.1219 33.8348 23.0608 33.7193 23.0247 33.6508C22.7001 32.9277 22.1827 32.127 22.1827 32.127H22.1816Z" fill="#E67321"/>
<path d="M18.7998 34.2884L18.3933 34.1304L18.2706 34.1881L18.7082 34.3625C18.6432 34.4158 18.8004 34.2884 18.8004 34.2884H18.7998Z" fill="#E67321"/>
<path d="M19.9205 34.9962C19.9465 34.9866 19.973 34.9769 19.9996 34.9684C20.0222 34.9611 20.0449 34.9549 20.068 34.9481C20.0884 34.9418 20.1087 34.9356 20.1291 34.9299C20.1738 34.918 20.219 34.9067 20.2642 34.8965C20.262 34.8852 20.2575 34.875 20.2529 34.8659C20.2518 34.8637 20.2507 34.862 20.2495 34.8597C20.2439 34.8512 20.2377 34.8433 20.2303 34.8371C20.2292 34.8365 20.2281 34.8354 20.2275 34.8348C20.2201 34.8291 20.2117 34.824 20.2032 34.8195C20.2015 34.8184 20.1998 34.8178 20.1975 34.8167C20.1873 34.8122 20.1766 34.8088 20.1647 34.8059C20.163 34.8059 20.1608 34.8054 20.1591 34.8048C20.1478 34.8025 20.1353 34.8008 20.1229 34.7997C20.1218 34.7997 20.1206 34.7997 20.1195 34.7997C20.1054 34.7986 20.0907 34.798 20.076 34.7986C20.0743 34.7986 20.0726 34.7986 20.0709 34.7986C20.003 34.7997 19.9267 34.8122 19.856 34.8252C19.061 35.0494 18.7218 35.6021 18.6432 36.3581C18.642 36.3677 18.6426 36.3756 18.6432 36.3836C18.6844 36.3887 18.8303 36.4091 18.9287 36.4606C18.918 36.1248 18.9208 35.8337 19.1668 35.5143C19.2024 35.4668 19.2414 35.422 19.2838 35.3796C19.2844 35.379 19.2849 35.3779 19.2861 35.3773C19.307 35.3569 19.3296 35.3377 19.3516 35.3184C19.3805 35.2929 19.411 35.2691 19.4427 35.2459C19.4444 35.2448 19.4461 35.2437 19.4472 35.2425C19.4772 35.2204 19.5088 35.1995 19.5411 35.1791C19.5445 35.1768 19.5484 35.1746 19.5518 35.1723C19.5823 35.1536 19.614 35.1355 19.6462 35.1179C19.6525 35.1145 19.6587 35.1111 19.6649 35.1083C19.6954 35.0925 19.726 35.0772 19.7576 35.063C19.7672 35.0585 19.7774 35.0545 19.7876 35.05C19.8164 35.0375 19.8458 35.0251 19.8758 35.0132C19.8905 35.0075 19.9058 35.0024 19.9205 34.9968V34.9962Z" fill="#E67321"/>
<path d="M27.3835 33.3501L27.314 33.4248H27.9489C27.9489 33.4248 27.9919 33.3761 28.0287 33.3359H27.7934H27.3965L27.3829 33.3507L27.3835 33.3501Z" fill="#E67321"/>
</g>
<defs>
<clipPath id="clip0_540_3865">
<rect width="39.0086" height="50" fill="white"/>
</clipPath>
</defs>
</svg>
