<svg width="20" height="20" viewBox="0 0 20 20" fill="none" xmlns="http://www.w3.org/2000/svg">
<g id="Frame">
<path id="Vector (Stroke)" fill-rule="evenodd" clip-rule="evenodd" d="M3.39079 2.39591C3.49779 2.15516 3.73654 2 4 2H16C16.2635 2 16.5022 2.15516 16.6092 2.39591L17.9425 5.39591C17.9804 5.48115 18 5.57339 18 5.66667V16.6667C18 17.0203 17.8595 17.3594 17.6095 17.6095C17.3594 17.8595 17.0203 18 16.6667 18H3.33333C2.97971 18 2.64057 17.8595 2.39052 17.6095C2.14048 17.3594 2 17.0203 2 16.6667V5.66667C2 5.57339 2.01957 5.48115 2.05746 5.39591L3.39079 2.39591ZM4.43325 3.33333L3.69251 5H16.3075L15.5668 3.33333H4.43325ZM16.6667 6.33333H3.33333V16.6667H16.6667V6.33333ZM10.6667 8V12.7247L12.3582 11.0332L13.301 11.976L10.4714 14.8056C10.2111 15.066 9.78894 15.066 9.52859 14.8056L6.69897 11.976L7.64178 11.0332L9.33333 12.7247V8H10.6667Z" fill="#B0B0B0"/>
</g>
</svg>
