<svg width="20" height="20" viewBox="0 0 20 20" fill="none" xmlns="http://www.w3.org/2000/svg">
<g id="doc">
<path id="icon" fill-rule="evenodd" clip-rule="evenodd" d="M3.1142 3.50799C3.1142 2.49081 3.94842 1.66699 4.97458 1.66699H15.2589C16.2814 1.67128 17.1113 2.49347 17.1113 3.50799V10.3357H15.8189V3.50799C15.8189 3.19764 15.5602 2.94711 15.2509 2.94711H4.96654C4.65924 2.94711 4.4066 3.20359 4.4066 3.50799V10.3198H3.1142V3.50799ZM5.62297 6.43478C5.62297 6.07772 5.91041 5.79472 6.26917 5.79472H14.1734C14.5322 5.79472 14.8196 6.07772 14.8196 6.43478C14.8196 6.79184 14.5322 7.07484 14.1734 7.07484H6.26917C5.91041 7.07484 5.62297 6.79184 5.62297 6.43478ZM5.62297 8.98777C5.62297 8.63071 5.91041 8.3477 6.26917 8.3477H14.1734C14.5322 8.3477 14.8196 8.63071 14.8196 8.98777C14.8196 9.34482 14.5322 9.62782 14.1734 9.62782H6.26917C5.91041 9.62782 5.62297 9.34482 5.62297 8.98777ZM6.83715 14.8254C6.83715 13.0773 8.14505 11.7755 9.88759 11.7755C11.6301 11.7755 12.938 13.0773 12.938 14.8254C12.938 16.5736 11.6301 17.8753 9.88759 17.8753C8.14505 17.8753 6.83715 16.5736 6.83715 14.8254ZM16.5535 17.8753H16.5616C17.199 17.8744 17.698 17.7611 18.1229 17.5237C18.5491 17.2857 18.8935 16.9268 19.2272 16.4478L19.2796 16.3726L18.2173 15.7735L18.1739 15.8354C17.7693 16.4125 17.2547 16.7145 16.5616 16.7145C16.0678 16.7145 15.6274 16.5335 15.3105 16.2097C14.9937 15.886 14.7955 15.4146 14.7955 14.8254C14.7955 13.6534 15.5957 12.9364 16.5616 12.9364C16.9381 12.9364 17.2359 13.0225 17.4812 13.1762C17.7273 13.3303 17.926 13.5557 18.0983 13.8424L18.1412 13.9137L19.1975 13.2813L19.1598 13.2113C18.7354 12.4211 17.839 11.7755 16.6018 11.7755C14.8697 11.7755 13.5272 13.0034 13.5272 14.8254C13.5272 15.7325 13.8484 16.4961 14.3912 17.0331C14.9322 17.5681 15.6886 17.8734 16.5535 17.8753ZM1.2085 11.8869H3.112C3.99163 11.901 4.76551 12.1479 5.32594 12.6224C5.90602 13.1136 6.24797 13.8501 6.24797 14.8254C6.24797 15.8008 5.90602 16.5373 5.32594 17.0285C4.74788 17.5179 3.94272 17.756 3.02867 17.756H1.2085V11.8869ZM8.6343 13.4434C8.31796 13.7647 8.12151 14.2358 8.12151 14.8334C8.12151 15.431 8.31796 15.902 8.6343 16.2234C8.95079 16.5449 9.393 16.7225 9.89563 16.7225C10.3983 16.7225 10.8405 16.5449 11.157 16.2234C11.4733 15.902 11.6698 15.431 11.6698 14.8334C11.6698 14.2358 11.4733 13.7647 11.157 13.4434C10.8405 13.1218 10.3983 12.9443 9.89563 12.9443C9.393 12.9443 8.95079 13.1218 8.6343 13.4434ZM2.46069 13.0636H3.10104C3.67444 13.0636 4.14267 13.2132 4.46665 13.5036C4.78919 13.7928 4.9797 14.2314 4.9797 14.8334V14.8413C4.9797 15.4389 4.78742 15.8777 4.46362 16.1681C4.13843 16.4598 3.67004 16.6111 3.10104 16.6111H2.46069V13.0636Z" fill="#B0B0B0"/>
</g>
</svg>
