<svg width="20" height="20" viewBox="0 0 20 20" fill="none" xmlns="http://www.w3.org/2000/svg">
<g id="od">
<g id="icon">
<path d="M9.94596 4.21704C10.8567 4.21704 11.5892 4.97914 11.5892 5.92056C11.5892 6.857 10.8567 7.6191 9.94596 7.6191C9.03519 7.6191 8.30272 6.857 8.30272 5.92056C8.30272 4.97914 9.04001 4.22202 9.94596 4.21704ZM9.94596 1.66675C7.67626 1.66675 5.83544 3.56951 5.83544 5.92056C5.83544 8.26663 7.67626 10.1694 9.94596 10.1694C12.2157 10.1694 14.0565 8.26663 14.0565 5.92056C14.0565 3.56951 12.2157 1.66675 9.94596 1.66675Z" fill="#8291A1"/>
<path d="M5.97591 12.6499C5.43137 12.3112 5.25307 11.579 5.58076 11.0161C5.90844 10.4533 6.61682 10.269 7.16136 10.6077C8.91062 11.6637 11.0888 11.6438 12.8187 10.5529C13.1705 10.3238 13.609 10.3088 13.9705 10.5081C14.3367 10.7073 14.568 11.0909 14.5825 11.5192C14.5969 11.9426 14.3897 12.3461 14.0427 12.5702C13.2492 13.0817 12.3753 13.4394 11.4665 13.6273L14.0532 16.3011C14.3809 16.6398 14.4772 17.1528 14.2989 17.5961C14.1206 18.0394 13.7014 18.3283 13.2388 18.3283C12.9304 18.3333 12.6364 18.2038 12.4244 17.9797L9.94747 15.4244L7.47056 17.9797C7.18142 18.2835 6.75736 18.4031 6.35739 18.2935C5.96224 18.1839 5.64901 17.8601 5.543 17.4517C5.43698 17.0383 5.55264 16.5999 5.84177 16.3011L8.42773 13.6281C7.56614 13.4505 6.7362 13.1202 5.97591 12.6499Z" fill="#8291A1"/>
</g>
</g>
</svg>
