<svg width="20" height="20" viewBox="0 0 20 20" fill="none" xmlns="http://www.w3.org/2000/svg">
<g id="Frame">
<path id="Vector (Stroke)" fill-rule="evenodd" clip-rule="evenodd" d="M4.10433 3.47884V10.3538H2.771V3.43717C2.771 3.0946 2.90708 2.76606 3.14932 2.52383C3.39155 2.28159 3.72009 2.14551 4.06266 2.14551H12.4638L17.2293 6.91103V10.3538H15.896V8.47884H10.896V3.47884H4.10433ZM12.2293 3.79665V7.14551H15.5782L12.2293 3.79665ZM2.146 12.1455H4.06266C4.65387 12.1455 5.22087 12.3804 5.63892 12.7984C6.05697 13.2165 6.29183 13.7835 6.29183 14.3747C6.29183 14.9659 6.05697 15.5329 5.63892 15.9509C5.22087 16.369 4.65387 16.6038 4.06266 16.6038H3.47933V17.8538H2.146V12.1455ZM3.47933 15.2705H4.06266C4.30025 15.2705 4.52811 15.1761 4.69611 15.0081C4.86411 14.8401 4.9585 14.6123 4.9585 14.3747C4.9585 14.1371 4.86411 13.9092 4.69611 13.7412C4.52811 13.5732 4.30025 13.4788 4.06266 13.4788H3.47933V15.2705ZM8.0835 12.1455H10.0002C10.7571 12.1455 11.4831 12.4462 12.0184 12.9815C12.5536 13.5167 12.8543 14.2427 12.8543 14.9997C12.8543 15.7566 12.5536 16.4826 12.0184 17.0179C11.4831 17.5531 10.7571 17.8538 10.0002 17.8538H8.0835V12.1455ZM9.41683 13.4788V16.5205H10.0002C10.4035 16.5205 10.7903 16.3603 11.0756 16.0751C11.3608 15.7899 11.521 15.403 11.521 14.9997C11.521 14.5963 11.3608 14.2095 11.0756 13.9243C10.7903 13.6391 10.4035 13.4788 10.0002 13.4788H9.41683ZM14.646 12.1455H18.4793V13.4788H15.9793V14.6455H18.1668V15.9788H15.9793V17.8538H14.646V12.1455Z" fill="#B0B0B0"/>
</g>
</svg>
