<svg width="20" height="20" viewBox="0 0 20 20" fill="none" xmlns="http://www.w3.org/2000/svg">
<g id="vk">
<path id="icon" fill-rule="evenodd" clip-rule="evenodd" d="M2.83808 2.83832C1.6665 4.00989 1.6665 5.89551 1.6665 9.66675V10.3334C1.6665 14.1047 1.6665 15.9903 2.83808 17.1618C4.00965 18.3334 5.89527 18.3334 9.66651 18.3334H10.3332C14.1044 18.3334 15.99 18.3334 17.1616 17.1618C18.3332 15.9903 18.3332 14.1047 18.3332 10.3334V9.66675C18.3332 5.89551 18.3332 4.00989 17.1616 2.83832C15.99 1.66675 14.1044 1.66675 10.3332 1.66675H9.6665C5.89527 1.66675 4.00965 1.66675 2.83808 2.83832ZM4.47894 6.73623C4.56922 11.0696 6.73586 13.6737 10.5345 13.6737H10.7498V11.1945C12.1456 11.3334 13.2011 12.3543 13.6247 13.6737H15.597C15.0553 11.7015 13.6316 10.6112 12.7428 10.1945C13.6316 9.68066 14.8817 8.43067 15.1803 6.73623H13.3885C12.9997 8.11123 11.847 9.36121 10.7498 9.47927V6.73623H8.95807V11.5418C7.84696 11.264 6.44421 9.91678 6.38171 6.73623H4.47894Z" fill="#8291A1"/>
</g>
</svg>
