<svg width="20" height="20" viewBox="0 0 20 20" fill="none" xmlns="http://www.w3.org/2000/svg">
<g id="Frame">
<g id="Vector">
<path fill-rule="evenodd" clip-rule="evenodd" d="M3.07427 12.3039C3.35516 12.1033 3.7455 12.1683 3.94613 12.4492L5.00005 13.9247L6.05397 12.4492C6.2546 12.1683 6.64494 12.1033 6.92582 12.3039C7.20671 12.5045 7.27176 12.8949 7.07113 13.1758L5.76811 15L7.07113 16.8242C7.27176 17.1051 7.20671 17.4955 6.92582 17.6961C6.64494 17.8967 6.2546 17.8317 6.05397 17.5508L5.00005 16.0753L3.94613 17.5508C3.7455 17.8317 3.35516 17.8967 3.07427 17.6961C2.79339 17.4955 2.72833 17.1051 2.92897 16.8242L4.23198 15L2.92897 13.1758C2.72833 12.8949 2.79339 12.5045 3.07427 12.3039ZM9.37505 12.1875C9.72023 12.1875 10 12.4673 10 12.8125V16.5625H11.5625C11.9077 16.5625 12.1875 16.8423 12.1875 17.1875C12.1875 17.5327 11.9077 17.8125 11.5625 17.8125H8.75005V12.8125C8.75005 12.4673 9.02987 12.1875 9.37505 12.1875ZM14.8182 13.5696C14.7534 13.632 14.6875 13.7453 14.6875 13.9533C14.6875 14.0113 14.6994 14.0306 14.7026 14.0357C14.7084 14.0452 14.7277 14.0716 14.7877 14.1096C14.932 14.201 15.1472 14.2674 15.4895 14.3684L15.5093 14.3742C15.7992 14.4597 16.2007 14.5781 16.5232 14.7973C16.9026 15.0551 17.1875 15.4603 17.1875 16.0467C17.1875 16.6525 16.9594 17.1412 16.5274 17.4524C16.1316 17.7374 15.6472 17.8125 15.2342 17.8125H15.2257C14.6513 17.8047 14.0983 17.5985 13.6591 17.2273C13.3955 17.0045 13.3624 16.6102 13.5852 16.3466C13.808 16.0829 14.2024 16.0498 14.466 16.2727C14.6825 16.4556 14.9545 16.5577 15.2386 16.5625C15.5264 16.5619 15.7048 16.5043 15.7969 16.438C15.8532 16.3975 15.9375 16.3158 15.9375 16.0467C15.9375 15.9339 15.91 15.8919 15.8207 15.8312C15.6818 15.7368 15.4694 15.6658 15.1356 15.5672C15.1177 15.562 15.0993 15.5566 15.0805 15.551C14.8014 15.4691 14.4225 15.358 14.1186 15.1654C13.9442 15.0549 13.7681 14.9029 13.6372 14.6895C13.5033 14.4713 13.4375 14.2224 13.4375 13.9533C13.4375 13.458 13.6063 13.0009 13.9517 12.6687C14.2941 12.3393 14.7529 12.1875 15.2342 12.1875H15.242C15.8168 12.1946 16.3712 12.4016 16.8102 12.7727C17.0738 12.9956 17.1069 13.3899 16.884 13.6535C16.6611 13.9171 16.2668 13.9501 16.0032 13.7273C15.7868 13.5443 15.5137 13.4419 15.2304 13.4375C15.0115 13.4383 14.8856 13.5048 14.8182 13.5696Z" fill="#B0B0B0"/>
<path fill-rule="evenodd" clip-rule="evenodd" d="M3.17866 2.55362C3.41309 2.3192 3.73103 2.1875 4.06255 2.1875H12.4464L17.1875 6.92862V10.3125H15.9375V8.4375H10.9375V3.4375H4.06255L4.06255 10.3125H2.81255V3.4375C2.81255 3.10598 2.94424 2.78804 3.17866 2.55362ZM12.1875 3.69638V7.1875H15.6787L12.1875 3.69638Z" fill="#B0B0B0"/>
</g>
</g>
</svg>
